<svg width="106" height="106" viewBox="0 0 106 106" fill="none" xmlns="http://www.w3.org/2000/svg">
<circle cx="53" cy="53" r="53" fill="#1BCCAA"/>
<path d="M70.697 63.0211C70.697 66.2618 68.0695 68.8889 64.8288 68.8889C61.588 68.8889 58.9609 66.2618 58.9609 63.0211C58.9609 59.7803 61.588 57.1528 64.8288 57.1528C68.0695 57.1528 70.697 59.7803 70.697 63.0211Z" fill="white"/>
<path d="M70.3278 71.4194H64.8284H59.3273C56.1436 71.4194 55.7094 73.5903 55.7094 75.6165L55.709 79.1672H73.9456V75.6165C73.946 73.5902 73.5118 71.4194 70.328 71.4194H70.3278Z" fill="white"/>
<path d="M49.7349 45.7384C49.7349 49.0787 47.0268 51.7867 43.687 51.7867C40.3467 51.7867 37.6387 49.0786 37.6387 45.7384C37.6387 42.3981 40.3468 39.6904 43.687 39.6904C47.0269 39.6904 49.7349 42.3982 49.7349 45.7384Z" fill="white"/>
<path d="M56.9374 64.538H53.0854V58.7206C53.0854 56.6322 52.6376 54.394 49.3547 54.394H43.6872H38.0196C34.7363 54.394 34.2889 56.6322 34.2889 58.7206V64.5396L28 64.54V67.3941L58.0919 67.3937C57.5349 66.5392 57.1374 65.5746 56.9371 64.538H56.9374Z" fill="white"/>
<path d="M54.2149 46.6604L60.3992 45.0215C61.7252 45.4456 63.1673 45.6877 64.6784 45.6877C71.0816 45.6877 76.2709 41.5041 76.2709 36.3448C76.2713 31.1851 71.0814 27 64.6784 27C58.2753 27 53.0859 31.1836 53.0859 36.3429C53.0859 38.6617 54.1412 40.7786 55.8762 42.413L54.2149 46.6604ZM58.0789 33.0528H71.2789V34.6515H58.0789V33.0528ZM58.0789 38.0375H67.2301V39.6361H58.0789V38.0375Z" fill="white"/>
</svg>
