<svg width="106" height="106" viewBox="0 0 106 106" fill="none" xmlns="http://www.w3.org/2000/svg">
<circle cx="53" cy="53" r="53" fill="#1BCCAA"/>
<path d="M63.3146 53.4958C65.2517 53.7124 66.9515 54.0467 66.9515 54.0467C63.0863 51.9217 63.1862 44.2933 63.1862 44.2933C63.2339 43.2522 63.224 42.296 63.1752 41.4033H61.6458C61.6443 41.5086 61.6424 41.6112 61.6409 41.7096C61.6295 42.31 61.617 42.7594 61.6023 42.8597C61.455 44.8146 60.9576 46.6162 60.2046 48.1274C58.8327 50.8769 56.6124 52.6634 54.105 52.6645C51.5978 52.6634 49.3775 50.8773 48.0059 48.1274C47.2514 46.6165 46.754 44.8145 46.6074 42.8597C46.5927 42.7586 46.5802 42.31 46.5696 41.7096C46.568 41.6115 46.5662 41.5089 46.5646 41.4033H45.0337C44.9852 42.296 44.9758 43.2518 45.0235 44.2933C45.0235 44.2933 45.1246 51.9218 41.2582 54.0467C41.2582 54.0467 42.958 53.7128 44.8955 53.4958C40.3205 54.9367 37.0012 59.2118 37 64.262C37 70.4982 42.055 69.3965 48.2924 69.3965H49.3562C48.529 69.2011 47.7688 68.7843 47.151 68.1676C46.3216 67.3366 45.8397 66.235 45.7946 65.066L45.7795 64.6643L46.0645 64.38L46.7619 63.6816L47.4138 63.0304L48.0657 63.6812L49.5326 65.147H50.2095L50.7062 64.6514V63.9734L49.2408 62.508L48.5877 61.8557L49.2408 61.2046L49.9389 60.5065L50.2243 60.2222L50.6263 60.2381C51.798 60.2843 52.8992 60.7666 53.7242 61.5945C53.8529 61.7224 53.9699 61.8595 54.0808 61.9999C54.155 61.7698 54.2773 61.5566 54.4541 61.3806L56.0551 59.7861C56.3458 59.4953 56.7338 59.3344 57.1465 59.3344C57.561 59.3344 57.9498 59.4957 58.2443 59.7902L58.9311 60.48L59.148 60.6992L59.7965 61.3526L59.6799 61.4681L59.734 61.4847L59.8075 61.5082L60.0225 61.5756L60.1819 61.7357L60.2379 61.791L61.9263 63.4866L61.9691 63.5316L61.9982 63.5668C62.1694 63.7762 62.7243 64.5928 62.6755 66.2945C62.6354 67.7255 61.7177 68.8581 61.1711 69.4086C66.8186 69.5116 71.2123 70.0745 71.2123 64.2616C71.2097 59.2115 67.8904 54.9363 63.315 53.4955L63.3146 53.4958ZM56.7161 56.4559L54.1052 60.6992L51.4942 56.4559C49.1884 55.9327 47.5162 54.7402 47.2807 53.3205C48.7636 53.2838 50.0273 53.433 50.3635 53.9864L49.3599 51.8975C50.7193 53.2164 52.351 53.9864 54.1053 53.9864C55.8592 53.9864 57.4901 53.2164 58.8499 51.8975L57.8463 53.9864C58.1821 53.433 59.447 53.2834 60.9294 53.3205C60.6931 54.7398 59.0217 55.9326 56.7162 56.4559H56.7161Z" fill="white"/>
<path d="M55.5239 64.6458L55.3513 64.472L55.1351 64.2555L55.0234 64.1431C55.0745 64.4569 55.0851 64.776 55.0708 65.0959C55.2392 64.9278 55.3963 64.7722 55.5239 64.6458L55.5239 64.6458Z" fill="white"/>
<path d="M58.535 69.0679L58.0349 68.564L58.1807 68.3164L57.7695 68.7279L58.4373 69.3965H58.8617L58.7027 69.2367L58.535 69.0679Z" fill="white"/>
<path d="M44.9463 40.0975H63.262C63.9756 40.0975 64.5541 39.5191 64.5541 38.8055C64.5541 38.093 63.976 37.5142 63.262 37.5142H62.9103C62.9103 34.0813 60.9452 31.1107 58.0806 29.6566L57.8224 31.1183L57.3503 33.7951C57.2931 34.123 57.0088 34.3531 56.6867 34.3531C56.648 34.3531 56.6087 34.3494 56.5689 34.3422C56.5523 34.3395 56.5364 34.3323 56.5205 34.3285C56.1809 34.2422 55.9598 33.9106 56.0211 33.56L56.0298 33.5135L56.5394 30.6193L56.8547 28.8336C56.5417 28.3331 55.9878 28 55.3548 28H52.8555C52.2225 28 51.6687 28.3331 51.3556 28.8336L51.6702 30.6193L52.1797 33.5135L52.1888 33.56C52.2498 33.9106 52.0283 34.2422 51.6895 34.3285C51.6732 34.3323 51.6581 34.3395 51.6406 34.3422C51.602 34.3494 51.5627 34.3531 51.524 34.3531C51.2023 34.3531 50.9168 34.123 50.8593 33.7951L50.3872 31.1183L50.1298 29.6578C47.2644 31.1099 45.2996 34.081 45.2996 37.5142H44.9479C44.2343 37.5142 43.6563 38.0926 43.6563 38.8055C43.6547 39.5191 44.2328 40.0975 44.9464 40.0975H44.9463Z" fill="white"/>
<path d="M61.2698 64.1374L61.2585 64.1264L59.5792 62.4406L59.525 62.3865L59.4516 62.3638L58.1864 61.9731L58.0225 61.808L58.2689 61.5642L58.4877 61.3473L58.27 61.1281L57.5845 60.4388C57.4652 60.3199 57.307 60.2544 57.14 60.2544C56.9734 60.2544 56.8175 60.3191 56.6997 60.4361L55.0977 62.0322C54.9792 62.1499 54.9141 62.3074 54.9141 62.4743C54.9141 62.6417 54.9788 62.7976 55.0969 62.9158L55.7817 63.604L55.9979 63.8205L56.216 63.6055L56.3965 63.4268C56.6578 63.777 57.0246 64.446 56.5109 64.9562C56.3394 65.1273 55.8465 65.6161 55.2476 66.2104L57.1136 68.0756L58.3454 66.8429C58.4579 66.774 58.732 66.6355 58.9614 66.6355C59.0988 66.6355 59.1639 66.6847 59.2006 66.7229C59.8128 67.3347 59.3108 68.2046 59.3059 68.2134L59.1847 68.4185L59.3524 68.5874L59.7882 69.0243L59.9843 69.2211L60.2004 69.0458C60.2618 68.9955 61.7045 67.8056 61.7477 66.2687C61.7889 64.8191 61.3297 64.2138 61.2779 64.1499L61.2698 64.1374Z" fill="white"/>
<path d="M51.1834 69.6318L51.0998 69.6523L51.0396 69.7125L48.014 72.7244L47.6771 72.7891L47.5843 72.8057L47.5177 72.8731L46.6792 73.7071C46.5353 73.8498 46.4555 74.0403 46.4551 74.2432C46.4547 74.4468 46.5331 74.6373 46.6769 74.7804L48.5096 76.6202C48.6557 76.764 48.8461 76.8428 49.049 76.8428C49.2493 76.8428 49.4386 76.7652 49.5824 76.6251L50.4225 75.7873L50.4891 75.7207L50.5069 75.6272L50.572 75.2895L53.5956 72.278L53.6569 72.2178L53.6774 72.1349L53.7822 71.7139L51.5991 69.5308L51.1834 69.6318Z" fill="white"/>
<path d="M53.073 62.2472C52.3844 61.5575 51.4932 61.1955 50.5899 61.1592L49.8915 61.8573L51.6272 63.593L51.6268 65.0346L50.5903 66.0688H49.151L47.4149 64.3343L46.7168 65.0323C46.7509 65.936 47.1135 66.8264 47.8041 67.518C48.5324 68.2437 49.4842 68.606 50.4362 68.606C50.8792 68.606 51.3232 68.5273 51.743 68.3698L58.862 75.4888C59.1626 75.7913 59.5571 75.9408 59.9519 75.9408C60.3475 75.9408 60.7439 75.7898 61.046 75.4888C61.6494 74.8846 61.6479 73.9064 61.046 73.3048L53.9262 66.187C54.4233 64.8632 54.1405 63.3118 53.0729 62.2473L53.073 62.2472ZM59.4268 73.871C59.5733 73.7238 59.7638 73.6503 59.9553 73.6503C60.1457 73.6503 60.3361 73.723 60.4823 73.8684C60.7715 74.1603 60.7711 74.6335 60.4819 74.9239C60.3354 75.0693 60.1453 75.1419 59.9545 75.1419C59.7634 75.1419 59.5726 75.0685 59.4261 74.9231C59.1353 74.6339 59.1346 74.1611 59.4268 73.8711V73.871Z" fill="white"/>
</svg>
