<svg width="106" height="106" viewBox="0 0 106 106" fill="none" xmlns="http://www.w3.org/2000/svg">
<circle cx="53" cy="53" r="53" fill="#1BCCAA"/>
<path d="M46.0676 47.4829V40.6553H35.8262V47.4829H46.0676ZM40.9469 42.3622C41.3995 42.3622 41.8338 42.542 42.1539 42.862C42.4739 43.1821 42.6538 43.6164 42.6538 44.0691C42.6538 44.5217 42.4739 44.9561 42.1539 45.2761C41.8338 45.5961 41.3995 45.776 40.9469 45.776C40.4942 45.776 40.0599 45.5961 39.7398 45.2761C39.4198 44.9561 39.24 44.5217 39.24 44.0691C39.24 43.6164 39.4198 43.1821 39.7398 42.862C40.0599 42.542 40.4942 42.3622 40.9469 42.3622Z" fill="white"/>
<path d="M47.7754 47.4828H51.1892V46.6293C51.1892 46.403 51.0993 46.1858 50.9392 46.0258C50.7792 45.8658 50.5621 45.7759 50.3357 45.7759H47.7754V47.4828Z" fill="white"/>
<path d="M34.1209 39.802C34.1209 39.3307 34.503 38.9485 34.9743 38.9485H46.9226C47.1489 38.9485 47.3661 39.0385 47.5261 39.1985C47.6861 39.3585 47.776 39.5757 47.776 39.802V44.0692H49.4829V39.802C49.4829 39.1231 49.2132 38.4715 48.7331 37.9915C48.2531 37.5115 47.6015 37.2417 46.9226 37.2417H34.9744C34.2954 37.2417 33.6439 37.5114 33.1639 37.9915C32.6839 38.4716 32.4141 39.1231 32.4141 39.802V44.0692H34.121L34.1209 39.802Z" fill="white"/>
<path d="M45.2142 31.2672C45.2142 33.6241 43.3038 35.5345 40.9469 35.5345C38.59 35.5345 36.6797 33.6241 36.6797 31.2672C36.6797 28.9104 38.59 27 40.9469 27C43.3038 27 45.2142 28.9104 45.2142 31.2672Z" fill="white"/>
<path d="M59.7243 45.7759H57.164C56.6927 45.7759 56.3105 46.158 56.3105 46.6293V47.4828H59.7243V45.7759Z" fill="white"/>
<path d="M73.3789 47.4828H76.7927V46.6293C76.7927 46.403 76.7028 46.1858 76.5428 46.0258C76.3827 45.8658 76.1656 45.7759 75.9393 45.7759H73.3789V47.4828Z" fill="white"/>
<path d="M70.8177 31.2672C70.8177 33.6241 68.9073 35.5345 66.5504 35.5345C64.1936 35.5345 62.2832 33.6241 62.2832 31.2672C62.2832 28.9104 64.1936 27 66.5504 27C68.9073 27 70.8177 28.9104 70.8177 31.2672Z" fill="white"/>
<path d="M59.7244 39.802C59.7244 39.3307 60.1065 38.9485 60.5778 38.9485H72.5261C72.7524 38.9485 72.9696 39.0385 73.1296 39.1985C73.2896 39.3585 73.3796 39.5757 73.3796 39.802V44.0692H75.0865V39.802C75.0865 39.1231 74.8167 38.4715 74.3366 37.9915C73.8566 37.5115 73.205 37.2417 72.5262 37.2417H60.5779C59.8989 37.2417 59.2474 37.5114 58.7674 37.9915C58.2874 38.4716 58.0176 39.1231 58.0176 39.802V44.0692H59.7245L59.7244 39.802Z" fill="white"/>
<path d="M71.6711 47.4829V40.6553H61.4297V47.4829H71.6711ZM66.5504 42.3622C67.003 42.3622 67.4374 42.542 67.7574 42.862C68.0774 43.1821 68.2573 43.6164 68.2573 44.0691C68.2573 44.5217 68.0774 44.9561 67.7574 45.2761C67.4374 45.5961 67.003 45.776 66.5504 45.776C66.0978 45.776 65.6634 45.5961 65.3434 45.2761C65.0233 44.9561 64.8435 44.5217 64.8435 44.0691C64.8435 43.6164 65.0233 43.1821 65.3434 42.862C65.6634 42.542 66.0978 42.3622 66.5504 42.3622Z" fill="white"/>
<path d="M34.1208 45.7759H31.5605C31.0892 45.7759 30.707 46.158 30.707 46.6293V47.4828H34.1208V45.7759Z" fill="white"/>
<path d="M60.5762 73.0858H63.99V72.2324C63.99 72.006 63.9001 71.7889 63.74 71.6288C63.58 71.4688 63.3628 71.3789 63.1365 71.3789H60.5762V73.0858Z" fill="white"/>
<path d="M58.8703 73.0859V66.2583H48.6289V73.0859H58.8703ZM53.7496 67.9652C54.2022 67.9652 54.6366 68.145 54.9566 68.4651C55.2767 68.7851 55.4565 69.2195 55.4565 69.6721C55.4565 70.1247 55.2767 70.5591 54.9566 70.8791C54.6366 71.1992 54.2022 71.379 53.7496 71.379C53.297 71.379 52.8626 71.1992 52.5426 70.8791C52.2225 70.5591 52.0427 70.1247 52.0427 69.6721C52.0427 69.2195 52.2225 68.7851 52.5426 68.4651C52.8626 68.145 53.297 67.9652 53.7496 67.9652Z" fill="white"/>
<path d="M43.5098 72.2324V73.0858H46.9236V71.3789H44.3632C43.8919 71.3789 43.5098 71.7611 43.5098 72.2324Z" fill="white"/>
<path d="M29 74.7935H78.5V76.5004H29V74.7935Z" fill="white"/>
<path d="M58.0189 56.8708C58.0189 59.2276 56.1085 61.138 53.7516 61.138C51.3947 61.138 49.4844 59.2276 49.4844 56.8708C49.4844 54.5139 51.3947 52.6035 53.7516 52.6035C56.1085 52.6035 58.0189 54.5139 58.0189 56.8708Z" fill="white"/>
<path d="M29 49.1899V52.6037H49.5774C50.6907 51.5099 52.1887 50.8968 53.7497 50.8968C55.3107 50.8968 56.8088 51.5099 57.9221 52.6037H78.4994V49.1899H29Z" fill="white"/>
<path d="M45.2168 65.405V69.6723H46.9237V65.405C46.9237 64.9337 47.3058 64.5516 47.7771 64.5516H59.7254C59.9517 64.5516 60.1689 64.6415 60.3289 64.8015C60.489 64.9615 60.5789 65.1787 60.5789 65.405V69.6723H62.2858V65.405C62.2858 64.7261 62.016 64.0745 61.536 63.5945C61.0559 63.1146 60.4043 62.8447 59.7255 62.8447H47.7772C47.0982 62.8447 46.4467 63.1145 45.9667 63.5945C45.4867 64.0746 45.2169 64.7262 45.2169 65.405H45.2168Z" fill="white"/>
</svg>
