<svg width="62" height="62" viewBox="0 0 62 62" fill="none" xmlns="http://www.w3.org/2000/svg">
<circle cx="31" cy="31" r="31" fill="#0E5295"/>
<path fill-rule="evenodd" clip-rule="evenodd" d="M24.9993 37.9998C24.9993 37.7346 25.1047 37.4803 25.2922 37.2927C25.4797 37.1052 25.7341 36.9998 25.9993 36.9998H43.9993C44.2645 36.9998 44.5189 37.1052 44.7064 37.2927C44.894 37.4803 44.9993 37.7346 44.9993 37.9998C44.9993 38.2651 44.894 38.5194 44.7064 38.7069C44.5189 38.8945 44.2645 38.9998 43.9993 38.9998H25.9993C25.7341 38.9998 25.4797 38.8945 25.2922 38.7069C25.1047 38.5194 24.9993 38.2651 24.9993 37.9998ZM24.9993 29.9998C24.9993 29.7346 25.1047 29.4803 25.2922 29.2927C25.4797 29.1052 25.7341 28.9998 25.9993 28.9998H43.9993C44.2645 28.9998 44.5189 29.1052 44.7064 29.2927C44.894 29.4803 44.9993 29.7346 44.9993 29.9998C44.9993 30.2651 44.894 30.5194 44.7064 30.7069C44.5189 30.8945 44.2645 30.9998 43.9993 30.9998H25.9993C25.7341 30.9998 25.4797 30.8945 25.2922 30.7069C25.1047 30.5194 24.9993 30.2651 24.9993 29.9998ZM24.9993 21.9998C24.9993 21.7346 25.1047 21.4803 25.2922 21.2927C25.4797 21.1052 25.7341 20.9998 25.9993 20.9998H43.9993C44.2645 20.9998 44.5189 21.1052 44.7064 21.2927C44.894 21.4803 44.9993 21.7346 44.9993 21.9998C44.9993 22.2651 44.894 22.5194 44.7064 22.7069C44.5189 22.8945 44.2645 22.9998 43.9993 22.9998H25.9993C25.7341 22.9998 25.4797 22.8945 25.2922 22.7069C25.1047 22.5194 24.9993 22.2651 24.9993 21.9998ZM22.7073 19.2918C22.8004 19.3847 22.8743 19.4951 22.9247 19.6166C22.9751 19.7381 23.0011 19.8683 23.0011 19.9998C23.0011 20.1314 22.9751 20.2616 22.9247 20.3831C22.8743 20.5046 22.8004 20.6149 22.7073 20.7078L19.7073 23.7078C19.6144 23.801 19.5041 23.8748 19.3826 23.9253C19.2611 23.9757 19.1308 24.0016 18.9993 24.0016C18.8678 24.0016 18.7375 23.9757 18.616 23.9253C18.4946 23.8748 18.3842 23.801 18.2913 23.7078L17.2913 22.7078C17.1983 22.6149 17.1246 22.5045 17.0743 22.383C17.0239 22.2615 16.998 22.1313 16.998 21.9998C16.998 21.8683 17.0239 21.7381 17.0743 21.6167C17.1246 21.4952 17.1983 21.3848 17.2913 21.2918C17.3843 21.1989 17.4947 21.1251 17.6161 21.0748C17.7376 21.0245 17.8678 20.9986 17.9993 20.9986C18.1308 20.9986 18.261 21.0245 18.3825 21.0748C18.504 21.1251 18.6143 21.1989 18.7073 21.2918L18.9993 21.5858L21.2913 19.2918C21.3842 19.1987 21.4946 19.1248 21.616 19.0744C21.7375 19.024 21.8678 18.998 21.9993 18.998C22.1308 18.998 22.2611 19.024 22.3826 19.0744C22.5041 19.1248 22.6144 19.1987 22.7073 19.2918ZM22.7073 27.2918C22.8004 27.3847 22.8743 27.4951 22.9247 27.6166C22.9751 27.7381 23.0011 27.8683 23.0011 27.9998C23.0011 28.1314 22.9751 28.2616 22.9247 28.3831C22.8743 28.5046 22.8004 28.6149 22.7073 28.7078L19.7073 31.7078C19.6144 31.801 19.5041 31.8748 19.3826 31.9253C19.2611 31.9757 19.1308 32.0016 18.9993 32.0016C18.8678 32.0016 18.7375 31.9757 18.616 31.9253C18.4946 31.8748 18.3842 31.801 18.2913 31.7078L17.2913 30.7078C17.1035 30.5201 16.998 30.2654 16.998 29.9998C16.998 29.7343 17.1035 29.4796 17.2913 29.2918C17.4791 29.1041 17.7338 28.9986 17.9993 28.9986C18.2649 28.9986 18.5195 29.1041 18.7073 29.2918L18.9993 29.5858L21.2913 27.2918C21.3842 27.1987 21.4946 27.1248 21.616 27.0744C21.7375 27.024 21.8678 26.998 21.9993 26.998C22.1308 26.998 22.2611 27.024 22.3826 27.0744C22.5041 27.1248 22.6144 27.1987 22.7073 27.2918ZM22.7073 35.2918C22.8004 35.3847 22.8743 35.4951 22.9247 35.6166C22.9751 35.7381 23.0011 35.8683 23.0011 35.9998C23.0011 36.1314 22.9751 36.2616 22.9247 36.3831C22.8743 36.5046 22.8004 36.6149 22.7073 36.7078L19.7073 39.7078C19.6144 39.801 19.5041 39.8748 19.3826 39.9253C19.2611 39.9757 19.1308 40.0016 18.9993 40.0016C18.8678 40.0016 18.7375 39.9757 18.616 39.9253C18.4946 39.8748 18.3842 39.801 18.2913 39.7078L17.2913 38.7078C17.1035 38.5201 16.998 38.2654 16.998 37.9998C16.998 37.7343 17.1035 37.4796 17.2913 37.2918C17.4791 37.1041 17.7338 36.9986 17.9993 36.9986C18.2649 36.9986 18.5195 37.1041 18.7073 37.2918L18.9993 37.5858L21.2913 35.2918C21.3842 35.1987 21.4946 35.1248 21.616 35.0744C21.7375 35.024 21.8678 34.998 21.9993 34.998C22.1308 34.998 22.2611 35.024 22.3826 35.0744C22.5041 35.1248 22.6144 35.1987 22.7073 35.2918Z" fill="white"/>
</svg>
