<svg width="72" height="87" viewBox="0 0 72 87" fill="none" xmlns="http://www.w3.org/2000/svg">
<g clip-path="url(#clip0_970_27787)">
<path d="M53.9316 0C54.0456 1.72412 53.9772 3.47093 54.2962 5.14967C55.3671 10.9572 60.6076 15.2448 66.5316 15.3356C68.2861 15.3583 70.0633 15.3356 71.8633 15.3356C71.9089 15.5625 71.9772 15.7439 71.9772 15.9254C71.9544 24.546 72.1595 33.1666 71.8405 41.7872C71.3848 54.2417 66.5544 64.9721 57.8962 73.9784C51.9722 80.1262 44.8405 84.3911 36.6608 86.9093C36.2734 87.0227 35.7949 87.0454 35.4304 86.9319C17.6354 81.0336 6.26582 69.0782 1.43544 51.0203C0.364557 47.1184 0 43.103 0 39.0649C0 31.4652 0 23.8654 0 16.2657C0 15.9935 0.0227848 15.6986 0.0455696 15.3356C1.75443 15.3356 3.44051 15.3129 5.1038 15.3356C7.10886 15.3583 9.02279 14.9499 10.7772 14.0425C15.4025 11.6378 17.7722 7.80391 18 2.63155C18.0456 1.74681 18.0228 0.884746 18.0456 0C30.0076 0 41.9696 0 53.9316 0ZM22.9671 5.14967C22.9215 5.4219 22.8532 5.67145 22.8076 5.92099C21.3266 13.9518 14.1949 20.145 6.01519 20.4399C5.30886 20.4626 5.1038 20.6668 5.12658 21.37C5.14937 27.3137 5.05823 33.28 5.17215 39.2237C5.21772 41.9914 5.37722 44.8044 5.92405 47.504C9.36456 64.3142 19.2759 75.6344 35.4304 81.5554C35.7722 81.6688 36.2278 81.6688 36.5696 81.5327C38.9848 80.5119 41.4684 79.6725 43.7241 78.3794C57.9646 70.1898 65.7342 57.8714 66.6911 41.5377C67.0785 34.7546 66.7823 27.9262 66.8051 21.1205C66.8051 20.939 66.7595 20.7348 66.7139 20.4853C62.2481 20.4172 58.3291 18.9426 54.9798 16.0615C51.6304 13.1578 49.6937 9.48266 48.9646 5.17236C40.2608 5.14967 31.6481 5.14967 22.9671 5.14967Z" fill="#1F1D59"/>
<path d="M49.989 28.4932C51.5611 26.8826 53.0877 25.3626 54.5232 23.9107C55.7536 25.1357 56.9384 26.2927 58.1687 27.5404C58.1004 27.6085 57.9409 27.8127 57.7358 28.0168C56.4371 29.3326 55.1384 30.6484 53.7941 31.9188C53.3611 32.3271 53.3611 32.6221 53.6346 33.1438C57.713 40.4487 57.5763 47.7308 53.0649 54.7861C48.5536 61.8414 39.8497 65.335 31.7611 63.5655C23.308 61.7052 16.9282 55.0583 15.6295 46.7553C13.8523 35.2763 21.8725 24.614 33.4244 23.2301C39.2118 22.5269 44.4067 24.0695 48.9637 27.7219C49.3282 27.9261 49.6244 28.1983 49.989 28.4932ZM49.4422 36.1384C44.908 40.6755 40.4422 45.1219 36.0447 49.523C32.9004 46.3923 29.7561 43.2617 26.7257 40.2218C27.8422 39.1102 29.027 37.9305 30.3257 36.6374C32.1713 38.4977 34.108 40.4033 35.9308 42.2408C39.3257 38.8606 42.7434 35.4578 46.1611 32.0549C41.5358 27.5631 32.6953 26.3154 26.1561 31.6693C19.7991 36.887 18.7054 46.1882 23.6953 52.7444C28.6396 59.2325 37.8675 60.7751 44.6118 56.1926C51.8118 51.3378 52.9738 42.2862 49.4422 36.1384Z" fill="#1F1D59"/>
<path d="M49.4452 36.1383C52.9768 42.2862 51.8148 51.3378 44.592 56.2153C37.8477 60.7978 28.6199 59.2552 23.6756 52.767C18.6857 46.2108 19.7793 36.9097 26.1363 31.6919C32.6528 26.3381 41.5161 27.5858 46.1414 32.0776C42.7237 35.4805 39.3059 38.8833 35.911 42.2635C34.0882 40.426 32.1515 38.5204 30.3059 36.6601C29.0072 37.9532 27.8224 39.1329 26.7059 40.2445C29.7591 43.2844 32.8806 46.415 36.0249 49.5456C40.4452 45.1219 44.911 40.6755 49.4452 36.1383Z" fill="#159E83"/>
</g>
<defs>
<clipPath id="clip0_970_27787">
<rect width="72" height="87" fill="white"/>
</clipPath>
</defs>
</svg>
