<svg width="106" height="106" viewBox="0 0 106 106" fill="none" xmlns="http://www.w3.org/2000/svg">
<circle cx="53" cy="53" r="53" fill="#1BCCAA"/>
<path d="M34.7332 66.8675V59.7672C34.7332 58.4609 35.7959 57.4006 37.0999 57.4006H44.2001V52.667H37.1003C33.1856 52.667 30 55.8526 30 59.7672V66.8675C30 70.7822 33.1856 73.9678 37.1003 73.9678H39.4669V69.2341H37.1003C35.7959 69.2341 34.7332 68.1739 34.7332 66.8675Z" fill="white"/>
<path d="M51.2949 29H56.0286V33.7336H51.2949V29Z" fill="white"/>
<path d="M67.0578 35.5262L63.7118 38.8747L60.3633 35.5287L63.7093 32.1802L67.0578 35.5262Z" fill="white"/>
<path d="M46.966 35.5272L43.6175 38.8732L40.2715 35.5248L43.62 32.1787L46.966 35.5272Z" fill="white"/>
<path d="M70.2331 52.667H63.1328V57.4006H70.2331C71.537 57.4006 72.5997 58.4609 72.5997 59.7672V66.8675C72.5997 68.1739 71.537 69.2341 70.2331 69.2341H67.8665V73.9678H70.2331C74.1478 73.9678 77.3333 70.7822 77.3333 66.8675V59.7672C77.3333 55.8526 74.1478 52.667 70.2331 52.667Z" fill="white"/>
<path d="M56.0391 69.2344H65.5059V73.968H56.0391V69.2344Z" fill="white"/>
<path d="M48.9362 66.8677H44.203V69.2343H41.8359V73.9679H44.203V76.3345H48.9362V73.9679H51.3032V69.2343H48.9362V66.8677Z" fill="white"/>
<path d="M60.7683 52.6672V51.7916C62.2831 50.0684 63.1349 47.8555 63.1349 45.567C63.1349 40.346 58.8891 36.1001 53.668 36.1001C48.447 36.1001 44.2012 40.346 44.2012 45.567C44.2012 47.8555 45.053 50.0684 46.5678 51.7916V52.6672C46.5678 56.5819 49.7534 59.7675 53.668 59.7675C57.5827 59.7675 60.7683 56.5819 60.7683 52.6672Z" fill="white"/>
</svg>
