<svg width="62" height="62" viewBox="0 0 62 62" fill="none" xmlns="http://www.w3.org/2000/svg">
<circle cx="31" cy="31" r="31" fill="#0E5295"/>
<path d="M31 45L24.824 41.707C23.0633 40.7703 21.591 39.3719 20.5649 37.6617C19.5389 35.9516 18.9979 33.9943 19 32V19C19.0005 18.4697 19.2114 17.9613 19.5864 17.5864C19.9613 17.2114 20.4697 17.0005 21 17H41C41.5303 17.0005 42.0387 17.2114 42.4136 17.5864C42.7886 17.9613 42.9995 18.4697 43 19V32C43.0021 33.9943 42.4611 35.9516 41.4351 37.6617C40.409 39.3719 38.9367 40.7703 37.176 41.707L31 45ZM21 19V32C20.9983 33.6318 21.4411 35.2333 22.2808 36.6325C23.1204 38.0317 24.3253 39.1758 25.766 39.942L31 42.733L36.234 39.943C37.6749 39.1767 38.8798 38.0324 39.7195 36.633C40.5592 35.2336 41.0018 33.632 41 32V19H21Z" fill="white"/>
<path d="M31 40.277V21H39V31.805C38.9999 33.0725 38.6557 34.3162 38.0041 35.4034C37.3524 36.4906 36.4178 37.3805 35.3 37.978L31 40.277Z" fill="white"/>
</svg>
