<svg width="95" height="95" viewBox="0 0 95 95" fill="none" xmlns="http://www.w3.org/2000/svg">
<g clip-path="url(#clip0_970_27743)">
<path d="M54.6477 0.653809C55.5411 1.11138 55.9115 1.8522 55.9769 2.8545C56.173 5.29486 56.4562 7.71344 56.6523 10.132C56.6959 10.6332 56.8702 10.8946 57.3713 11.0254C60.5961 11.8969 63.6466 13.1825 66.5009 14.882C66.9367 15.1435 67.1982 15.0345 67.5468 14.7513C69.3771 13.2043 71.2509 11.6572 73.103 10.132C74.4539 9.02078 75.1947 9.04257 76.4149 10.2628C79.2257 13.0953 82.0365 15.9497 84.8473 18.7822C85.9367 19.8935 85.9803 20.6779 84.978 21.8763C83.4528 23.7283 81.9058 25.6022 80.3587 27.4325C79.9883 27.8683 79.9012 28.1733 80.228 28.6962C81.9058 31.4852 83.1695 34.4485 83.9975 37.5861C84.1282 38.1309 84.3679 38.3488 84.978 38.4141C87.3748 38.6102 89.7716 38.8717 92.1684 39.0896C93.8243 39.2421 94.3908 39.8304 94.4126 41.4646C94.4126 45.4956 94.4126 49.5265 94.4126 53.5357C94.4126 55.1699 93.8243 55.7582 92.1902 55.9107C89.7934 56.1286 87.3966 56.39 84.9998 56.6079C84.4769 56.6515 84.2808 56.8476 84.15 57.327C83.2785 60.4864 82.0365 63.4933 80.3587 66.304C80.0537 66.827 80.1408 67.1538 80.5113 67.5896C82.0583 69.3981 83.5617 71.2501 85.0652 73.0804C86.1546 74.4095 86.1328 75.1286 84.9344 76.327C82.0801 79.1813 79.2475 82.0139 76.3931 84.8683C75.2819 85.9795 74.4975 86.0013 73.2991 85.0208C71.4252 83.4738 69.5296 81.9267 67.6775 80.3362C67.2635 79.9875 66.9803 79.9439 66.5009 80.2272C63.6902 81.905 60.7051 83.1905 57.5239 83.9967C56.9574 84.1492 56.783 84.4325 56.7395 84.999C56.5434 87.5265 56.2819 90.0322 56.0204 92.5598C55.8897 93.7582 55.236 94.3683 54.0376 94.3683C49.7888 94.39 45.5617 94.39 41.3129 94.3683C40.0927 94.3683 39.4608 93.8235 39.3083 92.5598C39.0468 90.2283 38.8071 87.8969 38.6328 85.5437C38.5674 84.6068 38.3278 84.0403 37.2819 83.7788C34.3186 83.038 31.5296 81.7742 28.9149 80.2054C28.3702 79.8786 28.0434 79.9439 27.564 80.3362C25.7337 81.905 23.8599 83.4302 22.0078 84.9554C20.7876 85.9577 20.025 85.9141 18.9138 84.8247C15.9287 81.9703 13.0743 79.0942 10.1982 76.218C9.08694 75.1068 9.04336 74.3224 10.0457 73.124C11.5927 71.2501 13.1397 69.3545 14.7303 67.5024C15.0789 67.0884 15.1007 66.7834 14.8174 66.304C13.1615 63.515 11.8759 60.5517 11.048 57.4141C10.9172 56.8912 10.6993 56.6297 10.0892 56.5862C7.75781 56.4118 5.42639 56.1068 3.07318 55.9325C2.0491 55.8453 1.17754 55.5839 0.632812 54.6251C0.632812 49.8751 0.632812 45.1033 0.632812 40.3533C1.17754 39.3946 2.02731 39.1332 3.07318 39.046C5.4046 38.8717 7.73602 38.5667 10.0674 38.3923C10.6557 38.3488 10.8954 38.1309 11.048 37.5861C11.8759 34.4921 13.1179 31.5506 14.7739 28.7834C15.1225 28.1951 15.0353 27.8465 14.6213 27.3671C13.0525 25.5368 11.5273 23.663 10.0021 21.8109C9.04336 20.6561 9.08694 19.8499 10.1546 18.7822C13.0525 15.9061 15.9505 13.03 18.8484 10.1538C19.9379 9.08615 20.7005 9.04257 21.8771 10.0013C23.7074 11.5047 25.5594 13.0082 27.3461 14.5552C27.8908 15.0128 28.283 15.0999 28.9149 14.7077C31.5732 13.0735 34.4493 11.8751 37.4562 11.1125C38.2188 10.9164 38.4585 10.5242 38.5021 9.80518C38.6764 7.56092 38.9161 5.31665 39.1122 3.07239C39.1993 2.02652 39.439 1.08959 40.5502 0.653809C45.2567 0.653809 49.9413 0.653809 54.6477 0.653809ZM74.4321 13.5747C72.5801 15.1217 70.5973 16.7559 68.6363 18.39C67.6775 19.1744 67.0457 19.2834 66.0652 18.6733C62.6007 16.5162 58.8966 14.9474 54.9092 13.9887C53.9723 13.7708 53.4711 13.1389 53.384 12.1802C53.3186 11.4611 53.2532 10.7203 53.1879 10.0013C52.9918 8.06207 52.7957 6.14463 52.5996 4.20541C49.2223 4.20541 45.9321 4.20541 42.5548 4.20541C42.3152 6.62399 42.0537 8.99899 41.8576 11.3958C41.6833 13.3786 41.4436 13.749 39.5262 14.2066C36.345 14.991 33.3163 16.1676 30.5055 17.8671C27.8037 19.4795 27.8037 19.4795 25.3851 17.4749C23.7727 16.1458 22.1603 14.8167 20.5697 13.4875C18.173 15.8843 15.8633 18.2157 13.4883 20.5907C15.1007 22.53 16.7349 24.491 18.3473 26.4738C19.2188 27.5414 19.2406 28.0861 18.5652 29.2845C18.0204 30.2433 17.3668 31.1366 16.9528 32.1389C15.9069 34.7536 14.9482 37.4118 14.033 40.0919C13.6844 41.0724 13.1833 41.6607 12.1156 41.7478C11.0479 41.8132 10.0021 41.9439 8.93442 42.0529C7.36561 42.2054 5.7968 42.3579 4.18442 42.5322C4.18442 45.8878 4.18442 49.1779 4.18442 52.5116C4.40231 52.5552 4.59841 52.6206 4.79451 52.6423C6.90804 52.8384 9.04336 53.0563 11.1787 53.2306C13.423 53.4267 13.6626 53.6011 14.2074 55.7582C15.0353 59.0047 16.2773 62.0552 18.0204 64.9095C19.4585 67.2845 19.4585 67.2845 17.6718 69.4199C16.2555 71.1194 14.861 72.8407 13.5101 74.4531C15.9069 76.8717 18.2165 79.2031 20.548 81.5345C20.5697 81.5128 20.6351 81.5127 20.6787 81.4692C22.5308 79.9439 24.3828 78.3969 26.2567 76.8717C27.5858 75.7822 28.0216 75.7169 29.5032 76.632C32.6408 78.5712 35.9746 79.9875 39.548 80.8809C41.4218 81.3384 41.6615 81.7306 41.814 83.6481C42.0101 86.0449 42.2716 88.4417 42.5113 90.8602C45.8885 90.8602 49.2005 90.8602 52.5778 90.8602C52.8392 88.3327 53.0789 85.8488 53.3186 83.3866C53.4711 81.7089 53.7544 81.3167 55.3668 80.9462C59.0055 80.0747 62.4264 78.6366 65.6076 76.6538C67.111 75.7169 67.5468 75.7822 68.9413 76.9371C70.8152 78.4841 72.689 80.0529 74.5193 81.5563C76.8943 79.1595 79.2257 76.8063 81.6007 74.4313C80.0101 72.5139 78.3541 70.5311 76.6982 68.5265C75.9138 67.5678 75.8702 67.0231 76.4803 65.9554C77.0468 64.9531 77.7441 63.9944 78.1798 62.9267C79.2039 60.3556 80.1626 57.7628 81.056 55.1481C81.4264 54.0804 81.9493 53.405 83.1477 53.3396C84.15 53.2742 85.1523 53.1435 86.1546 53.0563C87.7234 52.9038 89.2922 52.7295 90.8392 52.577C90.8392 49.1779 90.8392 45.8878 90.8392 42.554C90.4688 42.5105 90.142 42.4669 89.8152 42.4451C87.5709 42.2272 85.3266 41.9875 83.0824 41.7914C81.8622 41.7043 81.2303 41.0942 80.9688 39.9176C80.0973 36.2134 78.6374 32.749 76.611 29.5242C75.6959 28.0644 75.7613 27.6068 76.8725 26.2777C78.4413 24.382 80.0101 22.4864 81.6225 20.5472C79.2039 18.1722 76.8507 15.9061 74.4321 13.5747Z" fill="#1F1D59"/>
<path d="M47.5654 94.9995C45.4518 94.9995 43.3383 94.9995 41.203 94.9778C39.6342 94.9778 38.7408 94.1716 38.5665 92.6028C38.2833 90.0752 38.0654 87.7656 37.8911 85.5649C37.8257 84.7587 37.695 84.5626 37.0195 84.3883C34.1869 83.6693 31.3979 82.4927 28.4782 80.7496C28.195 80.5752 28.1732 80.5752 27.8899 80.8149C26.2775 82.2094 24.5998 83.5821 22.9874 84.9113L22.3337 85.456C20.8521 86.6762 19.719 86.6108 18.3681 85.2817C15.4702 82.4055 12.5722 79.5294 9.73968 76.6968C8.38876 75.3459 8.32339 74.1911 9.54358 72.7312L10.0229 72.1211C11.3956 70.4652 12.8119 68.7438 14.2282 67.0879C14.4025 66.8918 14.4025 66.8918 14.2718 66.6521C12.5505 63.7759 11.2649 60.7255 10.4369 57.5879C10.3498 57.261 10.328 57.261 10.0665 57.2392C8.88991 57.1521 7.7133 57.0214 6.55849 56.9124C5.40367 56.8035 4.22706 56.6727 3.05046 56.5856C2.04817 56.4984 0.827982 56.2587 0.087156 54.9514L0 54.8207V40.2003L0.087156 40.0477C0.806193 38.7404 2.04817 38.5007 3.02867 38.4136C4.22706 38.3264 5.46904 38.1957 6.64564 38.0649C7.75688 37.956 8.88991 37.8253 10.0229 37.7381C10.328 37.7163 10.3498 37.6945 10.4151 37.4113C11.2649 34.2736 12.5287 31.2668 14.2064 28.456C14.3807 28.1727 14.3807 28.1074 14.1193 27.8023C12.703 26.1464 11.2867 24.425 9.93578 22.7691L9.5 22.2461C8.32339 20.8298 8.38876 19.6532 9.6961 18.3459C12.6158 15.4262 15.5356 12.5064 18.3681 9.69567C19.6972 8.36654 20.8303 8.32296 22.2683 9.49957L22.922 10.0225C24.5126 11.3298 26.1686 12.6808 27.7592 14.0535C28.1078 14.3585 28.195 14.3803 28.5654 14.1406C31.2454 12.5064 34.1869 11.2645 37.281 10.4583C37.7167 10.3493 37.8039 10.2404 37.8475 9.73925C37.9564 8.47549 38.0654 7.16815 38.1743 5.92618C38.2615 4.94567 38.3486 3.96517 38.4358 3.00645C38.5229 1.85164 38.828 0.587875 40.2878 0.0213612L40.3968 -0.0222168H54.7775L54.93 0.0431502C55.9541 0.587875 56.4988 1.48122 56.6078 2.78856C56.7167 4.13948 56.8475 5.4904 56.9782 6.81952C57.0872 7.88719 57.1961 8.97663 57.2833 10.0661C57.305 10.3276 57.3268 10.3276 57.5011 10.3711C60.7913 11.2427 63.9071 12.5718 66.805 14.3149C66.8486 14.3367 66.8922 14.3585 66.914 14.3585C66.9358 14.3585 66.9794 14.3149 67.0883 14.2278C68.5046 13.0294 69.9644 11.8092 71.3807 10.6544L72.6445 9.60851C74.2569 8.27939 75.3899 8.32296 76.828 9.78283C79.9656 12.9422 82.7328 15.7312 85.2603 18.3023C86.5894 19.6532 86.633 20.8081 85.4346 22.2679L84.8028 23.0305C83.4954 24.5993 82.1663 26.2335 80.8154 27.8241C80.5975 28.0856 80.5975 28.1074 80.75 28.3253C82.4713 31.2014 83.7569 34.2301 84.5849 37.3895C84.672 37.6727 84.6938 37.6945 84.9771 37.7163C86.4151 37.8253 87.875 37.9778 89.2913 38.1085C90.25 38.1957 91.2087 38.3046 92.1674 38.3918C94.172 38.5661 95 39.4376 95 41.3986C95 45.4296 95 49.4606 95 53.4697C95 55.4308 94.1938 56.3241 92.1892 56.4984C91.1869 56.5856 90.2064 56.6945 89.2041 56.7817C87.8314 56.9124 86.3933 57.0649 84.9771 57.1739C84.8245 57.1957 84.781 57.2175 84.7592 57.2175C84.7592 57.2175 84.7156 57.261 84.6938 57.4136C83.8005 60.6819 82.4931 63.7541 80.8154 66.5431C80.6846 66.761 80.6628 66.7828 80.9025 67.0661C82.1227 68.4824 83.3211 69.9422 84.4977 71.3585L85.4782 72.5569C86.7855 74.1257 86.7202 75.2369 85.3039 76.675C82.4495 79.5294 79.617 82.3619 76.7626 85.2163C75.4335 86.5454 74.2351 86.6108 72.7752 85.4124L72.4484 85.1509C70.7053 83.7129 68.8968 82.2312 67.1319 80.7278C66.9794 80.597 66.914 80.597 66.914 80.597C66.914 80.597 66.8486 80.597 66.6961 80.6842C63.7764 82.4273 60.7041 83.7129 57.5447 84.5408C57.305 84.6062 57.2615 84.6062 57.2397 84.9766C57.0436 87.4606 56.7821 89.9663 56.5424 92.4067L56.5206 92.5592C56.3681 94.1062 55.4312 94.956 53.8842 94.956C51.836 94.9995 49.7007 94.9995 47.5654 94.9995ZM28.1732 79.3333C28.4782 79.3333 28.7833 79.4422 29.1319 79.6383C31.9427 81.3161 34.6227 82.4491 37.3245 83.1246C38.828 83.495 39.0895 84.4755 39.1766 85.4778C39.3509 87.6567 39.5688 89.9445 39.8521 92.4502C39.961 93.3654 40.2878 93.6704 41.203 93.6704C45.4954 93.6922 49.7661 93.6922 53.906 93.6704C54.7775 93.6704 55.1697 93.3218 55.2569 92.4502L55.2787 92.2977C55.5183 89.8791 55.7798 87.3734 55.9759 84.9113C56.0195 84.3012 56.2156 83.5821 57.2615 83.3207C60.2901 82.5363 63.2534 81.2943 66.0642 79.6165C66.7833 79.2025 67.3716 79.2461 68.0034 79.7908C69.7466 81.2725 71.555 82.7541 73.2982 84.1922L73.625 84.4537C74.5619 85.2381 74.9759 85.2163 75.8475 84.3447C78.7018 81.5122 81.5562 78.6578 84.3888 75.8035C85.3475 74.8447 85.3693 74.5179 84.4759 73.4502L83.4954 72.2519C82.3406 70.8356 81.1204 69.3757 79.922 67.9594C79.5298 67.5019 79.1594 66.8482 79.7041 65.933C81.3165 63.2312 82.5585 60.2679 83.43 57.1303C83.6479 56.3677 84.0837 55.9973 84.8681 55.9319C86.2626 55.823 87.6789 55.6704 89.0734 55.5397C90.0757 55.4308 91.0562 55.3436 92.0585 55.2564C93.3658 55.1257 93.6709 54.8207 93.6709 53.5351C93.6709 49.5042 93.6709 45.495 93.6709 41.464C93.6709 40.2003 93.3658 39.8734 92.0367 39.7427C91.078 39.6555 90.0975 39.5684 89.1388 39.4594C87.7443 39.3287 86.2844 39.1762 84.8463 39.0672C83.9966 39.0019 83.5172 38.5879 83.2993 37.7599C82.5149 34.7312 81.2729 31.8115 79.617 29.0443C79.0505 28.1074 79.4209 27.4755 79.8131 27.0179C81.164 25.4491 82.4931 23.8149 83.8005 22.2461L84.4323 21.4835C85.2167 20.5248 85.2167 20.1326 84.3452 19.261C81.8177 16.6899 79.0505 13.9009 75.9128 10.7415C74.9541 9.76104 74.5837 9.76104 73.4943 10.6544L72.2305 11.7003C70.8142 12.8551 69.3761 14.0753 67.9381 15.2737C67.6984 15.4698 67.0665 16.0145 66.1514 15.4698C63.3624 13.792 60.3337 12.5282 57.1743 11.6785C56.4335 11.4824 56.0413 11.003 55.9759 10.2186C55.8888 9.15095 55.7798 8.0615 55.6709 6.99384C55.5401 5.66471 55.4094 4.292 55.3005 2.94109C55.2351 2.13489 54.9954 1.67732 54.4507 1.3287H40.6583C40.07 1.59017 39.8303 2.09131 39.7431 3.15898C39.656 4.13948 39.5688 5.11998 39.4817 6.10049C39.3727 7.34246 39.242 8.62801 39.1548 9.89177C39.0894 10.589 38.8716 11.4388 37.6078 11.7656C34.6227 12.5282 31.8119 13.7266 29.2408 15.2954C28.3911 15.8184 27.6938 15.753 26.9094 15.0775C25.3188 13.7048 23.6846 12.3757 22.094 11.0684L21.4404 10.5454C20.5252 9.78283 20.133 9.80462 19.2833 10.6544C16.4725 13.4434 13.5528 16.3413 10.633 19.261C9.80505 20.089 9.78326 20.503 10.5241 21.4181L10.9599 21.9411C12.3108 23.597 13.7271 25.2966 15.1433 26.9525C15.5791 27.4755 15.9495 28.1292 15.3612 29.1314C13.7489 31.8333 12.5287 34.7312 11.7225 37.7599C11.5046 38.5879 11.0252 38.9801 10.1537 39.0454C9.04243 39.1326 7.88761 39.2415 6.79817 39.3723C5.59977 39.503 4.37959 39.6119 3.1594 39.7209C2.20069 39.7863 1.67775 40.0259 1.32913 40.5489V54.4502C1.67775 54.9732 2.20069 55.2129 3.1594 55.2782C4.33601 55.3654 5.5344 55.4961 6.68922 55.6051C7.82225 55.714 9.02064 55.8447 10.1755 55.9319C11.2649 56.0191 11.57 56.6727 11.7225 57.261C12.5069 60.2679 13.7489 63.2094 15.4048 65.9766C15.8188 66.6739 15.7752 67.3057 15.2523 67.9376C13.836 69.5936 12.4415 71.3149 11.0688 72.9709L10.5894 73.5592C9.80505 74.4961 9.82683 74.9101 10.6984 75.7817C13.531 78.6142 16.4289 81.5122 19.305 84.3665C20.1766 85.2381 20.5688 85.2599 21.5275 84.4537L22.1812 83.909C23.7936 82.5798 25.4495 81.2071 27.0619 79.8344C27.4323 79.5076 27.8028 79.3333 28.1732 79.3333ZM53.1869 91.4697H41.9438L41.8784 90.8814C41.8131 90.1406 41.7259 89.4216 41.6605 88.6807C41.4862 87.0248 41.3337 85.3252 41.1812 83.6693C41.0287 81.9697 40.9633 81.8608 39.3945 81.4904C35.8211 80.597 32.3784 79.159 29.1537 77.1544C27.9335 76.3918 27.781 76.4135 26.6479 77.3505C25.7764 78.0695 24.9048 78.7885 24.0333 79.5076C23.0528 80.3356 22.0505 81.1418 21.07 81.9697C20.961 82.0569 20.8303 82.1223 20.7649 82.1223L20.3727 82.2966L12.594 74.4525L14.1846 72.5133C15.1433 71.3367 16.1456 70.1601 17.1261 68.9617L17.1479 68.9399C17.8888 68.0466 18.3463 67.5019 18.3681 67.1532C18.3899 66.7828 18.0413 66.1945 17.4312 65.1922C15.7099 62.3597 14.4025 59.222 13.531 55.8665C13.0516 53.9927 13.0516 53.9927 11.0688 53.8184C9.3039 53.6658 7.5172 53.4915 5.77408 53.339L4.68463 53.2301C4.48853 53.2083 4.31422 53.1647 4.1617 53.1211C4.09633 53.0993 4.05275 53.0993 3.98739 53.0775L3.48624 52.9686V41.878L8.82454 41.3551C9.15138 41.3333 9.45642 41.2897 9.78326 41.2461C10.5241 41.159 11.2649 41.0936 12.0275 41.0282C12.7248 40.9847 13.0734 40.6578 13.3784 39.8081C14.4679 36.6486 15.4048 34.1211 16.32 31.8333C16.625 31.0707 17.039 30.3952 17.453 29.7197C17.6273 29.4365 17.8016 29.1532 17.9541 28.87C18.4989 27.9113 18.4989 27.628 17.8016 26.8C16.6468 25.4055 15.492 24.011 14.3589 22.6383L12.5722 20.4812L20.4817 12.5282L22.3555 14.0753C23.4885 15.0122 24.6216 15.9491 25.7546 16.886C26.8222 17.7794 27.4106 18.2587 27.8463 18.3023C28.2821 18.3459 28.9358 17.9537 30.1342 17.2347C32.9232 15.5787 36.0172 14.3149 39.3291 13.5087C40.9197 13.1165 41.0069 13.0076 41.1594 11.2645C41.2901 9.58673 41.4645 7.88719 41.6388 6.25301C41.7041 5.53398 41.7913 4.79315 41.8567 4.07411L41.922 3.48581H53.1651L53.4048 5.77365C53.5355 7.14636 53.6881 8.49728 53.8188 9.86998C53.8842 10.589 53.9495 11.3081 54.0149 12.0707C54.0803 12.7679 54.3853 13.1601 55.039 13.3126C59.0046 14.2496 62.8177 15.8402 66.3911 18.0626C67.0665 18.4766 67.3933 18.4984 68.1995 17.8448C69.6158 16.6899 71.0103 15.5133 72.3612 14.4021L74.4312 12.6808L82.4495 20.4159L80.6193 22.6165C79.508 23.9457 78.4186 25.2748 77.3073 26.6039C76.3704 27.7369 76.3486 27.9113 77.1112 29.0879C79.1812 32.378 80.6846 35.9514 81.5562 39.6773C81.7741 40.6142 82.1881 40.9847 83.0814 41.05C84.6938 41.1808 86.3498 41.3551 87.9186 41.5076C88.5505 41.573 89.1823 41.6383 89.8142 41.7037C90.0321 41.7255 90.2718 41.7473 90.4897 41.7691L91.4266 41.878V53.0775L89.5092 53.2736C88.3979 53.3826 87.2649 53.4915 86.1537 53.6223C85.8704 53.6441 85.5654 53.6876 85.2821 53.7094C84.5849 53.7966 83.844 53.8619 83.125 53.9055C82.3406 53.9491 81.9484 54.2977 81.6216 55.2782C80.6628 58.089 79.7259 60.6383 78.7454 63.1005C78.4404 63.8631 78.0046 64.5821 77.5906 65.2576C77.3945 65.5626 77.1984 65.8895 77.0241 66.2163C76.5447 67.0661 76.5665 67.3275 77.1766 68.0684C78.3532 69.5064 79.5516 70.9445 80.7064 72.3172L82.4495 74.4307L74.5401 82.4055L72.4048 80.6406C71.1193 79.573 69.8119 78.4835 68.5046 77.4158C67.3062 76.4353 67.1755 76.4136 65.9335 77.1762C62.6869 79.2025 59.1789 80.6624 55.5183 81.534C54.211 81.839 54.1021 81.9697 53.9713 83.4078C53.797 85.1291 53.6227 86.8723 53.4484 88.6154L53.1869 91.4697ZM43.1204 90.1624H51.9885L52.1628 88.4629C52.3372 86.7197 52.5115 84.9984 52.6858 83.2771C52.8601 81.425 53.2523 80.7278 55.2351 80.2484C58.7867 79.3986 62.164 77.9824 65.2798 76.0431C67.0011 74.9755 67.7638 75.0408 69.3761 76.3918C70.6835 77.4812 71.9908 78.5489 73.2764 79.6165L74.4966 80.6188L80.7282 74.3436L79.7259 73.1452C78.5711 71.7507 77.3727 70.3126 76.1961 68.8746C75.2374 67.7197 75.172 66.87 75.9128 65.5626C76.1089 65.214 76.305 64.8872 76.5011 64.5603C76.9151 63.9067 77.3073 63.2748 77.5688 62.6211C78.5493 60.2025 79.4862 57.6532 80.4232 54.886C80.7718 53.8837 81.3819 52.7289 83.0814 52.62C83.7787 52.5764 84.4759 52.511 85.1732 52.4239C85.4782 52.3803 85.7615 52.3585 86.0665 52.3367C87.1777 52.2278 88.3108 52.1188 89.422 51.9881L90.1628 51.9227V43.0764C90.0103 43.0546 89.8796 43.0546 89.7271 43.0328C89.0952 42.9675 88.4633 42.9021 87.8314 42.8367C86.2408 42.6842 84.6284 42.5099 83.0161 42.3792C81.5344 42.2702 80.6628 41.4858 80.3142 40.0042C79.4862 36.409 78.0482 32.9881 76.0436 29.8069C74.9977 28.1292 75.0631 27.3447 76.3486 25.7977C77.4381 24.4686 78.5493 23.1395 79.6606 21.8103L80.7064 20.5466L74.4094 14.4675L73.2328 15.448C71.8601 16.581 70.4656 17.7358 69.0493 18.9124C68.047 19.7404 67.1101 20.1108 65.7156 19.2392C62.2729 17.1039 58.5906 15.5569 54.7557 14.6418C53.5573 14.3585 52.8383 13.5087 52.7294 12.245C52.664 11.5042 52.5986 10.7633 52.5333 10.0661C52.4025 8.69338 52.25 7.34246 52.1193 5.96975L52.0103 4.85852H43.1422C43.0986 5.40324 43.0333 5.92618 42.9897 6.4709C42.8154 8.10507 42.6628 9.80462 42.5103 11.4606C42.336 13.6395 41.9438 14.2931 39.6778 14.8597C36.4748 15.6441 33.4897 16.8425 30.8314 18.4331C27.9117 20.1762 27.5849 20.1544 24.9702 17.9755C23.8372 17.0386 22.7041 16.0798 21.5711 15.1647L20.6124 14.3803L14.3589 20.5902L15.4048 21.8321C16.5596 23.2048 17.7144 24.5993 18.8693 26.0156C19.9151 27.2794 19.9805 28.1292 19.1525 29.5672C18.9782 29.8723 18.8039 30.1555 18.6296 30.4388C18.2374 31.0925 17.8452 31.6808 17.6055 32.3344C16.7122 34.6005 15.7752 37.128 14.6858 40.2656C14.4025 41.1154 13.8142 42.2484 12.2018 42.3574C11.4828 42.4009 10.7202 42.4881 10.0011 42.5535C9.67431 42.597 9.34748 42.6188 9.04243 42.6624L4.88073 43.0764V51.9445H4.90252L5.99197 52.0535C7.7133 52.2278 9.5 52.4021 11.2649 52.5328C13.7924 52.7507 14.2718 53.1429 14.8819 55.5615C15.7099 58.7863 16.9736 61.8149 18.6296 64.5386C20.2202 67.1532 20.1984 67.4365 18.2374 69.7897L18.2156 69.8115C17.2351 71.0099 16.2328 72.1865 15.2741 73.3631L14.4243 74.3872L20.6342 80.6624C21.5057 79.9434 22.3773 79.2243 23.2489 78.5053C24.1204 77.7862 24.992 77.0672 25.8635 76.3482C27.4105 75.0626 28.1732 74.9973 29.8727 76.0649C32.9885 77.9824 36.3005 79.3769 39.7431 80.2266C41.9656 80.7713 42.336 81.425 42.5103 83.5603C42.6411 85.2163 42.8154 86.9158 42.9897 88.5718C43.0115 89.0947 43.0768 89.6395 43.1204 90.1624Z" fill="#1F1D59"/>
<path d="M47.526 75.3025C32.252 75.3243 19.7015 62.8175 19.6797 47.5216C19.6579 32.2475 32.1866 19.7188 47.5043 19.697C62.8001 19.6753 75.3288 32.1821 75.3506 47.4998C75.3506 62.7739 62.8437 75.2808 47.526 75.3025ZM47.5478 71.8381C60.9698 71.7945 71.8861 60.8347 71.8643 47.478C71.8425 34.0778 60.8609 23.1397 47.4825 23.1833C34.0604 23.2269 23.1224 34.1867 23.166 47.5434C23.1877 60.9218 34.1912 71.8817 47.5478 71.8381Z" fill="#1F1D59"/>
<path d="M47.4799 75.9561C39.9191 75.9561 32.7941 72.9928 27.4122 67.6109C22.0085 62.2291 19.0234 55.0823 19.0234 47.4997C19.0234 39.9389 21.9867 32.7921 27.3686 27.4102C32.7723 22.0066 39.9191 19.0433 47.4799 19.0215H47.5016C63.1897 19.0215 75.9581 31.768 75.9581 47.4779C75.9799 63.166 63.2115 75.9343 47.5016 75.9561C47.5234 75.9561 47.5016 75.9561 47.4799 75.9561ZM47.5234 20.3506H47.5016C40.2677 20.3506 33.4477 23.205 28.3055 28.3472C23.1633 33.4894 20.3308 40.3093 20.3308 47.5215C20.3308 54.7554 23.1851 61.5536 28.3273 66.6958C33.4695 71.838 40.2677 74.6488 47.4799 74.6488C47.5016 74.6488 47.5016 74.6488 47.5234 74.6488C62.5143 74.627 74.6943 62.4469 74.6943 47.4779C74.6725 32.5089 62.4925 20.3506 47.5234 20.3506ZM47.4581 72.4917C40.856 72.4917 34.6244 69.8988 29.8961 65.1924C25.1461 60.4642 22.5315 54.1889 22.5097 47.5433C22.4661 33.7944 33.6874 22.5731 47.4799 22.5295C47.5016 22.5295 47.5452 22.5295 47.567 22.5295C54.1473 22.5295 60.3789 25.1006 65.1071 29.807C69.8571 34.5352 72.4936 40.8105 72.5154 47.4779C72.559 61.2268 61.3594 72.4481 47.567 72.4917C47.5234 72.4917 47.5016 72.4917 47.4581 72.4917ZM47.5452 71.1843V71.838V71.1843C60.6186 71.1408 71.2299 60.5077 71.2081 47.4779C71.1863 41.1591 68.7023 35.2107 64.192 30.7222C59.7253 26.2772 53.8205 23.8369 47.5888 23.8369C47.567 23.8369 47.5234 23.8369 47.5016 23.8369C34.4283 23.8804 23.7952 34.5135 23.8388 47.5433C23.8606 53.8403 26.3445 59.7887 30.8331 64.2554C35.3216 68.7222 41.2264 71.1843 47.4799 71.1843C47.5016 71.1843 47.5234 71.1843 47.5452 71.1843Z" fill="#1F1D59"/>
<path d="M47.546 71.8385C34.1893 71.8821 23.1859 60.9223 23.1641 47.5438C23.1423 34.1872 34.0586 23.2273 47.4806 23.1837C60.8373 23.1401 71.8189 34.0782 71.8625 47.4784C71.8843 60.8351 60.968 71.7732 47.546 71.8385Z" fill="#159E83"/>
<path d="M49.1322 45.8876C51.834 45.8876 54.3834 45.8876 56.9327 45.8876C57.8478 45.8876 58.7847 45.8658 59.6999 45.9094C60.9418 45.9747 61.6391 46.6284 61.6391 47.6743C61.6391 48.6766 60.9418 49.3956 59.7652 49.3956C55.6689 49.4392 51.5726 49.4392 47.498 49.3956C46.2996 49.3738 45.646 48.7419 45.646 47.5435C45.6024 43.0768 45.6024 38.6318 45.646 34.1651C45.646 32.9449 46.4086 32.2477 47.4762 32.2912C48.5003 32.3348 49.154 33.0539 49.154 34.3176C49.1758 37.7603 49.154 41.2029 49.154 44.6456C49.1322 45.016 49.1322 45.3864 49.1322 45.8876Z" fill="#1F1D59"/>
<path d="M53.7294 50.093C51.594 50.093 49.5241 50.093 47.4759 50.0712C45.9289 50.0494 44.992 49.1125 44.9702 47.5655C44.9266 43.1859 44.9266 38.6974 44.9702 34.1652C44.9702 33.3808 45.2317 32.7272 45.711 32.2696C46.1686 31.8338 46.7787 31.6159 47.4759 31.6377C48.8922 31.7031 49.7856 32.7272 49.7856 34.3178C49.8073 36.8017 49.8073 39.3292 49.8073 41.7478C49.8073 42.7065 49.8073 43.687 49.8073 44.6457V45.2123H56.9541C57.2156 45.2123 57.4989 45.2123 57.7603 45.2123C58.414 45.2123 59.0895 45.1905 59.7431 45.2341C61.3119 45.2994 62.3142 46.2581 62.2924 47.6744C62.2707 49.0907 61.2684 50.0494 59.7649 50.0494C57.6732 50.0712 55.6686 50.093 53.7294 50.093ZM47.3452 32.9451C47.1273 32.9451 46.8222 32.9886 46.6044 33.2065C46.3865 33.4026 46.2775 33.7513 46.2775 34.1652C46.2339 38.6756 46.2339 43.1641 46.2775 47.5437C46.2775 48.3717 46.6479 48.7421 47.4759 48.7421C51.3979 48.7857 55.4071 48.7857 59.7431 48.7421C60.5058 48.7421 60.9633 48.3499 60.9633 47.6744C60.9633 46.9772 60.5275 46.6068 59.656 46.5632C59.0241 46.5414 58.3704 46.5414 57.7385 46.5414C57.4553 46.5414 57.1938 46.5414 56.9106 46.5414H48.4564V44.6675C48.4564 43.7088 48.4564 42.7283 48.4564 41.7696C48.4564 39.3292 48.4564 36.8235 48.4346 34.3396C48.4346 33.4462 48.086 32.9886 47.3888 32.9668C47.3888 32.9451 47.367 32.9451 47.3452 32.9451Z" fill="#1F1D59"/>
</g>
<defs>
<clipPath id="clip0_970_27743">
<rect width="95" height="95" fill="white"/>
</clipPath>
</defs>
</svg>
