<svg width="106" height="106" viewBox="0 0 106 106" fill="none" xmlns="http://www.w3.org/2000/svg">
<circle cx="53" cy="53" r="53" fill="#1BCCAA"/>
<path d="M42.7713 29V40.9751H29V74.5052H48.7588V60.1351H59.5364V74.5052H79.2952V40.9751H65.5239V29H42.7713ZM52.95 32.5927H55.3448V37.3829H60.1349V39.7777H55.3448V44.5678H52.95V39.7777H48.1599V37.3829H52.95V32.5927ZM33.7899 48.1603H44.5675V55.3452H33.7899V48.1603ZM48.7587 48.1603H59.5363V55.3452H48.7587V48.1603ZM63.7276 48.1603H74.5051V55.3452H63.7276V48.1603ZM33.7899 60.1354H44.5675V67.3203H33.7899V60.1354ZM63.7276 60.1354H74.5051V67.3203H63.7276V60.1354Z" fill="white"/>
</svg>
