<svg width="106" height="106" viewBox="0 0 106 106" fill="none" xmlns="http://www.w3.org/2000/svg">
<circle cx="53" cy="53" r="53" fill="#1BCCAA"/>
<path d="M39.6309 39.6112V56.3161C39.6309 60.2553 47.2373 69.5749 53.9993 72.7868C60.7613 69.5749 68.3677 60.2575 68.3677 56.3161V39.6112C63.3034 38.9193 58.1551 37.0625 53.9993 34.4253C49.8435 37.0625 44.6952 38.9193 39.6309 39.6112ZM55.1023 40.8425V42.0207C58.7011 42.3766 61.4775 44.4235 61.7295 47.085C61.787 47.6929 61.3426 48.2322 60.7348 48.2897C60.1114 48.3605 59.5875 47.9007 59.53 47.295C59.3863 45.7896 57.4919 44.5318 55.1045 44.229V50.9622C57.2709 51.3513 61.7361 52.4411 61.7361 56.3183C61.7361 59.1434 58.8956 61.3893 55.1045 61.7651V62.9477C55.1045 63.5578 54.6094 64.053 53.9993 64.053C53.3892 64.053 52.894 63.5578 52.894 62.9477V61.7695C49.2953 61.4136 46.5189 59.3667 46.2669 56.703C46.2094 56.0951 46.6537 55.5557 47.2616 55.4982C47.8695 55.4253 48.4089 55.8873 48.4663 56.493C48.61 57.9983 50.5044 59.2583 52.8918 59.5612V52.8301C50.7189 52.4411 46.2602 51.3469 46.2602 47.4762C46.2602 44.649 49.1008 42.4053 52.8918 42.0273V40.8425C52.8918 40.2323 53.387 39.7372 53.9971 39.7372C54.6072 39.7372 55.1023 40.2323 55.1023 40.8425Z" fill="white"/>
<path d="M48.4707 47.4741C48.4707 49.4392 51.1764 50.2306 52.8918 50.5732V44.229C50.4027 44.5473 48.4707 45.9046 48.4707 47.4741Z" fill="white"/>
<path d="M59.5246 56.3162C59.5246 54.3488 56.8145 53.5575 55.1035 53.2148V59.5591C57.5904 59.2429 59.5246 57.8879 59.5246 56.3162Z" fill="white"/>
<path d="M73.8947 33.1058C67.9882 33.1058 59.4379 31.4523 54.7825 26.7969C54.3515 26.3659 53.6507 26.3659 53.2197 26.7969C48.5621 31.4523 40.0118 33.1058 34.1053 33.1058C33.4952 33.1058 33 33.6009 33 34.211V56.3163C33 64.6168 44.8285 76.5912 53.6574 79.4716C53.7701 79.5091 53.8851 79.5268 54 79.5268C54.1149 79.5268 54.2299 79.5091 54.3426 79.4716C63.1715 76.5912 75 64.6168 75 56.3163V34.211C75 33.6009 74.5048 33.1058 73.8947 33.1058ZM70.5789 56.3163C70.5789 61.6481 61.8319 71.7833 54.4421 75.0129C54.3006 75.0748 54.1503 75.1058 54 75.1058C53.8497 75.1058 53.6994 75.0748 53.5579 75.0129C46.1681 71.7833 37.4211 61.6481 37.4211 56.3163V38.6321C37.4211 38.0662 37.8477 37.5931 38.4092 37.5334C43.6172 36.9786 49.2164 34.9803 53.3855 32.1884C53.7591 31.9408 54.2432 31.9408 54.6167 32.1884C58.7858 34.9803 64.3851 36.9786 69.5931 37.5334C70.1523 37.5931 70.5789 38.0662 70.5789 38.6321V56.3163Z" fill="white"/>
</svg>
