<svg width="106" height="106" viewBox="0 0 106 106" fill="none" xmlns="http://www.w3.org/2000/svg">
<circle cx="53" cy="53" r="53" fill="#1BCCAA"/>
<path d="M68.0994 35.8271C68.338 35.8271 68.5668 35.7324 68.7355 35.5637C68.9043 35.3949 68.9993 35.1661 68.9993 34.9272V29.528V29.5283C68.9993 29.2897 68.9043 29.0609 68.7355 28.8918C68.5668 28.7231 68.338 28.6284 68.0994 28.6284H62.7001C62.203 28.6284 61.8002 29.0312 61.8002 29.5283V31.3281H42.0038V29.5283C42.0038 29.2897 41.9088 29.0609 41.74 28.8919C41.5713 28.7231 41.3425 28.6285 41.1039 28.6285H35.7046C35.2079 28.6285 34.8047 29.0312 34.8047 29.5284V34.9276V34.9273C34.8047 35.1662 34.8997 35.395 35.0685 35.5638C35.2372 35.7325 35.466 35.8272 35.7046 35.8272H37.5044V68.2216H35.7046V68.2219C35.2078 68.2219 34.8047 68.6247 34.8047 69.1218V74.5211V74.5208C34.8047 74.7594 34.8997 74.9882 35.0684 75.1572C35.2372 75.326 35.466 75.4206 35.7046 75.4206H41.1038C41.3424 75.4206 41.5712 75.326 41.74 75.1572C41.9087 74.9882 42.0037 74.7594 42.0037 74.5208V72.721H61.8001V74.5208C61.8001 74.7594 61.8951 74.9882 62.0639 75.1572C62.2326 75.326 62.4614 75.4206 62.7 75.4206H68.0993C68.3379 75.4206 68.5667 75.326 68.7354 75.1572C68.9042 74.9882 68.9991 74.7594 68.9991 74.5208V69.1215V69.1218C68.9991 68.8829 68.9042 68.6541 68.7354 68.4854C68.5667 68.3166 68.3379 68.222 68.0993 68.222H66.2995V35.8267L68.0994 35.8271ZM64.4999 68.2215H62.7001V68.2218C62.203 68.2218 61.8002 68.6246 61.8002 69.1218V70.9215L42.0038 70.9212V69.1214V69.1218C42.0038 68.8828 41.9088 68.654 41.74 68.4853C41.5713 68.3165 41.3425 68.2219 41.1039 68.2219H39.3041V35.8266H41.1039C41.3425 35.8266 41.5713 35.732 41.74 35.5632C41.9088 35.3945 42.0038 35.1657 42.0038 34.9267V33.127H61.8002V34.9267C61.8002 35.1657 61.8952 35.3945 62.064 35.5632C62.2327 35.732 62.4615 35.8266 62.7001 35.8266H64.4998L64.4999 68.2215ZM57.5711 37.4464L38.4038 32.2277V71.8214L57.5703 66.6023L57.5706 66.602C57.943 66.4568 58.1914 66.102 58.2002 65.7021V38.347C58.1914 37.9472 57.943 37.5924 57.5706 37.4471L57.5711 37.4464ZM52.8018 53.8237C52.3246 53.8237 51.8667 53.6341 51.5292 53.2966C51.1917 52.9591 51.0021 52.5012 51.0021 52.024C51.0021 51.5468 51.1917 51.0889 51.5292 50.7514C51.8667 50.4139 52.3247 50.2243 52.8018 50.2243C53.279 50.2243 53.7369 50.4139 54.0744 50.7514C54.4119 51.0889 54.6015 51.5468 54.6015 52.024C54.6015 52.5012 54.4119 52.9591 54.0744 53.2966C53.7369 53.6341 53.279 53.8237 52.8018 53.8237Z" fill="white"/>
</svg>
