<svg width="1121" height="633" viewBox="0 0 1121 633" fill="none" xmlns="http://www.w3.org/2000/svg">
<g id="our-process">
<g id="Group 626578">
<g id="Group 29219">
<g id="Frame 29366">
<g id="Frame 29295">
<path id="general concept" d="M743.047 171.473H735.793V175.82H742.836V178.387H735.793V184.434H743.047V187H733.062V168.906H743.047V171.473ZM749.668 180.824L745.566 175.586H748.707L751.25 178.914L753.84 175.586H757.074L752.855 180.824L757.742 187H754.602L751.25 182.734L747.816 187H744.594L749.668 180.824ZM762.172 193.211H759.535V175.586H762.172V176.828C763.211 175.789 764.391 175.27 765.711 175.27C767.281 175.27 768.574 175.848 769.59 177.004C770.621 178.152 771.137 179.602 771.137 181.352C771.137 183.062 770.625 184.488 769.602 185.629C768.586 186.762 767.305 187.328 765.758 187.328C764.422 187.328 763.227 186.793 762.172 185.723V193.211ZM768.441 181.363C768.441 180.27 768.145 179.379 767.551 178.691C766.949 177.996 766.191 177.648 765.277 177.648C764.309 177.648 763.523 177.984 762.922 178.656C762.32 179.328 762.02 180.211 762.02 181.305C762.02 182.375 762.32 183.258 762.922 183.953C763.516 184.633 764.297 184.973 765.266 184.973C766.18 184.973 766.934 184.629 767.527 183.941C768.137 183.254 768.441 182.395 768.441 181.363ZM784.32 181.914H776.141C776.211 182.852 776.516 183.598 777.055 184.152C777.594 184.699 778.285 184.973 779.129 184.973C779.785 184.973 780.328 184.816 780.758 184.504C781.18 184.191 781.66 183.613 782.199 182.77L784.426 184.012C784.082 184.598 783.719 185.102 783.336 185.523C782.953 185.938 782.543 186.281 782.105 186.555C781.668 186.82 781.195 187.016 780.688 187.141C780.18 187.266 779.629 187.328 779.035 187.328C777.332 187.328 775.965 186.781 774.934 185.688C773.902 184.586 773.387 183.125 773.387 181.305C773.387 179.5 773.887 178.039 774.887 176.922C775.895 175.82 777.23 175.27 778.895 175.27C780.574 175.27 781.902 175.805 782.879 176.875C783.848 177.938 784.332 179.41 784.332 181.293L784.32 181.914ZM781.613 179.758C781.246 178.352 780.359 177.648 778.953 177.648C778.633 177.648 778.332 177.699 778.051 177.801C777.77 177.895 777.512 178.035 777.277 178.223C777.051 178.402 776.855 178.621 776.691 178.879C776.527 179.137 776.402 179.43 776.316 179.758H781.613ZM787.215 175.586H789.852V176.605C790.336 176.098 790.766 175.75 791.141 175.562C791.523 175.367 791.977 175.27 792.5 175.27C793.195 175.27 793.922 175.496 794.68 175.949L793.473 178.363C792.973 178.004 792.484 177.824 792.008 177.824C790.57 177.824 789.852 178.91 789.852 181.082V187H787.215V175.586ZM799.777 178.047V187H797.141V178.047H796.016V175.586H797.141V171.402H799.777V175.586H801.828V178.047H799.777ZM810.254 177.531L808.074 178.691C807.73 177.988 807.305 177.637 806.797 177.637C806.555 177.637 806.348 177.719 806.176 177.883C806.004 178.039 805.918 178.242 805.918 178.492C805.918 178.93 806.426 179.363 807.441 179.793C808.84 180.395 809.781 180.949 810.266 181.457C810.75 181.965 810.992 182.648 810.992 183.508C810.992 184.609 810.586 185.531 809.773 186.273C808.984 186.977 808.031 187.328 806.914 187.328C805 187.328 803.645 186.395 802.848 184.527L805.098 183.484C805.41 184.031 805.648 184.379 805.812 184.527C806.133 184.824 806.516 184.973 806.961 184.973C807.852 184.973 808.297 184.566 808.297 183.754C808.297 183.285 807.953 182.848 807.266 182.441C807 182.309 806.734 182.18 806.469 182.055C806.203 181.93 805.934 181.801 805.66 181.668C804.895 181.293 804.355 180.918 804.043 180.543C803.645 180.066 803.445 179.453 803.445 178.703C803.445 177.711 803.785 176.891 804.465 176.242C805.16 175.594 806.004 175.27 806.996 175.27C808.457 175.27 809.543 176.023 810.254 177.531ZM821.281 187V168.906H825.078C826.898 168.906 828.336 169.086 829.391 169.445C830.523 169.797 831.551 170.395 832.473 171.238C834.34 172.941 835.273 175.18 835.273 177.953C835.273 180.734 834.301 182.984 832.355 184.703C831.379 185.562 830.355 186.16 829.285 186.496C828.285 186.832 826.867 187 825.031 187H821.281ZM824.012 184.434H825.242C826.469 184.434 827.488 184.305 828.301 184.047C829.113 183.773 829.848 183.34 830.504 182.746C831.848 181.52 832.52 179.922 832.52 177.953C832.52 175.969 831.855 174.359 830.527 173.125C829.332 172.023 827.57 171.473 825.242 171.473H824.012V184.434ZM848.609 181.914H840.43C840.5 182.852 840.805 183.598 841.344 184.152C841.883 184.699 842.574 184.973 843.418 184.973C844.074 184.973 844.617 184.816 845.047 184.504C845.469 184.191 845.949 183.613 846.488 182.77L848.715 184.012C848.371 184.598 848.008 185.102 847.625 185.523C847.242 185.938 846.832 186.281 846.395 186.555C845.957 186.82 845.484 187.016 844.977 187.141C844.469 187.266 843.918 187.328 843.324 187.328C841.621 187.328 840.254 186.781 839.223 185.688C838.191 184.586 837.676 183.125 837.676 181.305C837.676 179.5 838.176 178.039 839.176 176.922C840.184 175.82 841.52 175.27 843.184 175.27C844.863 175.27 846.191 175.805 847.168 176.875C848.137 177.938 848.621 179.41 848.621 181.293L848.609 181.914ZM845.902 179.758C845.535 178.352 844.648 177.648 843.242 177.648C842.922 177.648 842.621 177.699 842.34 177.801C842.059 177.895 841.801 178.035 841.566 178.223C841.34 178.402 841.145 178.621 840.98 178.879C840.816 179.137 840.691 179.43 840.605 179.758H845.902ZM858.137 177.531L855.957 178.691C855.613 177.988 855.188 177.637 854.68 177.637C854.438 177.637 854.23 177.719 854.059 177.883C853.887 178.039 853.801 178.242 853.801 178.492C853.801 178.93 854.309 179.363 855.324 179.793C856.723 180.395 857.664 180.949 858.148 181.457C858.633 181.965 858.875 182.648 858.875 183.508C858.875 184.609 858.469 185.531 857.656 186.273C856.867 186.977 855.914 187.328 854.797 187.328C852.883 187.328 851.527 186.395 850.73 184.527L852.98 183.484C853.293 184.031 853.531 184.379 853.695 184.527C854.016 184.824 854.398 184.973 854.844 184.973C855.734 184.973 856.18 184.566 856.18 183.754C856.18 183.285 855.836 182.848 855.148 182.441C854.883 182.309 854.617 182.18 854.352 182.055C854.086 181.93 853.816 181.801 853.543 181.668C852.777 181.293 852.238 180.918 851.926 180.543C851.527 180.066 851.328 179.453 851.328 178.703C851.328 177.711 851.668 176.891 852.348 176.242C853.043 175.594 853.887 175.27 854.879 175.27C856.34 175.27 857.426 176.023 858.137 177.531ZM863.891 175.586V187H861.254V175.586H863.891ZM860.855 170.84C860.855 170.379 861.023 169.98 861.359 169.645C861.695 169.309 862.098 169.141 862.566 169.141C863.043 169.141 863.449 169.309 863.785 169.645C864.121 169.973 864.289 170.375 864.289 170.852C864.289 171.328 864.121 171.734 863.785 172.07C863.457 172.406 863.055 172.574 862.578 172.574C862.102 172.574 861.695 172.406 861.359 172.07C861.023 171.734 860.855 171.324 860.855 170.84ZM878.27 186.73C878.27 187.27 878.25 187.742 878.211 188.148C878.18 188.562 878.133 188.926 878.07 189.238C877.883 190.098 877.516 190.836 876.969 191.453C875.938 192.641 874.52 193.234 872.715 193.234C871.191 193.234 869.938 192.824 868.953 192.004C867.938 191.16 867.352 189.992 867.195 188.5H869.844C869.945 189.062 870.113 189.496 870.348 189.801C870.895 190.512 871.691 190.867 872.738 190.867C874.668 190.867 875.633 189.684 875.633 187.316V185.723C874.586 186.793 873.379 187.328 872.012 187.328C870.457 187.328 869.184 186.766 868.191 185.641C867.191 184.5 866.691 183.074 866.691 181.363C866.691 179.699 867.156 178.285 868.086 177.121C869.086 175.887 870.406 175.27 872.047 175.27C873.484 175.27 874.68 175.805 875.633 176.875V175.586H878.27V186.73ZM875.738 181.316C875.738 180.207 875.441 179.32 874.848 178.656C874.246 177.977 873.477 177.637 872.539 177.637C871.539 177.637 870.75 178.008 870.172 178.75C869.648 179.414 869.387 180.273 869.387 181.328C869.387 182.367 869.648 183.219 870.172 183.883C870.742 184.609 871.531 184.973 872.539 184.973C873.547 184.973 874.344 184.605 874.93 183.871C875.469 183.207 875.738 182.355 875.738 181.316ZM881.598 175.586H884.246V176.641C885.168 175.727 886.207 175.27 887.363 175.27C888.691 175.27 889.727 175.688 890.469 176.523C891.109 177.234 891.43 178.395 891.43 180.004V187H888.781V180.625C888.781 179.5 888.625 178.723 888.312 178.293C888.008 177.855 887.453 177.637 886.648 177.637C885.773 177.637 885.152 177.926 884.785 178.504C884.426 179.074 884.246 180.07 884.246 181.492V187H881.598V175.586ZM766.203 211.184L760.297 200.906H763.438L767.574 208.137L771.723 200.906H774.863L768.934 211.184V219H766.203V211.184ZM774.277 213.211C774.277 211.562 774.867 210.16 776.047 209.004C777.227 207.848 778.664 207.27 780.359 207.27C782.062 207.27 783.508 207.852 784.695 209.016C785.867 210.18 786.453 211.609 786.453 213.305C786.453 215.016 785.863 216.449 784.684 217.605C783.496 218.754 782.039 219.328 780.312 219.328C778.602 219.328 777.168 218.742 776.012 217.57C774.855 216.414 774.277 214.961 774.277 213.211ZM776.973 213.258C776.973 214.398 777.277 215.301 777.887 215.965C778.512 216.637 779.336 216.973 780.359 216.973C781.391 216.973 782.215 216.641 782.832 215.977C783.449 215.312 783.758 214.426 783.758 213.316C783.758 212.207 783.449 211.32 782.832 210.656C782.207 209.984 781.383 209.648 780.359 209.648C779.352 209.648 778.535 209.984 777.91 210.656C777.285 211.328 776.973 212.195 776.973 213.258ZM791.891 207.586V214.137C791.891 216.027 792.637 216.973 794.129 216.973C795.621 216.973 796.367 216.027 796.367 214.137V207.586H799.004V214.195C799.004 215.109 798.891 215.898 798.664 216.562C798.445 217.156 798.066 217.691 797.527 218.168C796.637 218.941 795.504 219.328 794.129 219.328C792.762 219.328 791.633 218.941 790.742 218.168C790.195 217.691 789.809 217.156 789.582 216.562C789.363 216.031 789.254 215.242 789.254 214.195V207.586H791.891ZM802.332 207.586H804.969V208.605C805.453 208.098 805.883 207.75 806.258 207.562C806.641 207.367 807.094 207.27 807.617 207.27C808.312 207.27 809.039 207.496 809.797 207.949L808.59 210.363C808.09 210.004 807.602 209.824 807.125 209.824C805.688 209.824 804.969 210.91 804.969 213.082V219H802.332V207.586ZM829.848 214.605H822.102L820.086 219H817.145L826.098 199.77L834.734 219H831.746L829.848 214.605ZM828.734 212.039L826.051 205.887L823.238 212.039H828.734ZM839.141 225.211H836.504V207.586H839.141V208.828C840.18 207.789 841.359 207.27 842.68 207.27C844.25 207.27 845.543 207.848 846.559 209.004C847.59 210.152 848.105 211.602 848.105 213.352C848.105 215.062 847.594 216.488 846.57 217.629C845.555 218.762 844.273 219.328 842.727 219.328C841.391 219.328 840.195 218.793 839.141 217.723V225.211ZM845.41 213.363C845.41 212.27 845.113 211.379 844.52 210.691C843.918 209.996 843.16 209.648 842.246 209.648C841.277 209.648 840.492 209.984 839.891 210.656C839.289 211.328 838.988 212.211 838.988 213.305C838.988 214.375 839.289 215.258 839.891 215.953C840.484 216.633 841.266 216.973 842.234 216.973C843.148 216.973 843.902 216.629 844.496 215.941C845.105 215.254 845.41 214.395 845.41 213.363ZM853.531 225.211H850.895V207.586H853.531V208.828C854.57 207.789 855.75 207.27 857.07 207.27C858.641 207.27 859.934 207.848 860.949 209.004C861.98 210.152 862.496 211.602 862.496 213.352C862.496 215.062 861.984 216.488 860.961 217.629C859.945 218.762 858.664 219.328 857.117 219.328C855.781 219.328 854.586 218.793 853.531 217.723V225.211ZM859.801 213.363C859.801 212.27 859.504 211.379 858.91 210.691C858.309 209.996 857.551 209.648 856.637 209.648C855.668 209.648 854.883 209.984 854.281 210.656C853.68 211.328 853.379 212.211 853.379 213.305C853.379 214.375 853.68 215.258 854.281 215.953C854.875 216.633 855.656 216.973 856.625 216.973C857.539 216.973 858.293 216.629 858.887 215.941C859.496 215.254 859.801 214.395 859.801 213.363Z" fill="#39374D"/>
</g>
</g>
<g id="Group 626628">
<g id="Frame 29368">
<g id="Frame 29293">
<path id="general concept_2" d="M44.1758 173.473H36.9219V177.82H43.9648V180.387H36.9219V186.434H44.1758V189H34.1914V170.906H44.1758V173.473ZM50.7969 182.824L46.6953 177.586H49.8359L52.3789 180.914L54.9688 177.586H58.2031L53.9844 182.824L58.8711 189H55.7305L52.3789 184.734L48.9453 189H45.7227L50.7969 182.824ZM63.3008 195.211H60.6641V177.586H63.3008V178.828C64.3398 177.789 65.5195 177.27 66.8398 177.27C68.4102 177.27 69.7031 177.848 70.7188 179.004C71.75 180.152 72.2656 181.602 72.2656 183.352C72.2656 185.062 71.7539 186.488 70.7305 187.629C69.7148 188.762 68.4336 189.328 66.8867 189.328C65.5508 189.328 64.3555 188.793 63.3008 187.723V195.211ZM69.5703 183.363C69.5703 182.27 69.2734 181.379 68.6797 180.691C68.0781 179.996 67.3203 179.648 66.4062 179.648C65.4375 179.648 64.6523 179.984 64.0508 180.656C63.4492 181.328 63.1484 182.211 63.1484 183.305C63.1484 184.375 63.4492 185.258 64.0508 185.953C64.6445 186.633 65.4258 186.973 66.3945 186.973C67.3086 186.973 68.0625 186.629 68.6562 185.941C69.2656 185.254 69.5703 184.395 69.5703 183.363ZM85.4492 183.914H77.2695C77.3398 184.852 77.6445 185.598 78.1836 186.152C78.7227 186.699 79.4141 186.973 80.2578 186.973C80.9141 186.973 81.457 186.816 81.8867 186.504C82.3086 186.191 82.7891 185.613 83.3281 184.77L85.5547 186.012C85.2109 186.598 84.8477 187.102 84.4648 187.523C84.082 187.938 83.6719 188.281 83.2344 188.555C82.7969 188.82 82.3242 189.016 81.8164 189.141C81.3086 189.266 80.7578 189.328 80.1641 189.328C78.4609 189.328 77.0938 188.781 76.0625 187.688C75.0312 186.586 74.5156 185.125 74.5156 183.305C74.5156 181.5 75.0156 180.039 76.0156 178.922C77.0234 177.82 78.3594 177.27 80.0234 177.27C81.7031 177.27 83.0312 177.805 84.0078 178.875C84.9766 179.938 85.4609 181.41 85.4609 183.293L85.4492 183.914ZM82.7422 181.758C82.375 180.352 81.4883 179.648 80.082 179.648C79.7617 179.648 79.4609 179.699 79.1797 179.801C78.8984 179.895 78.6406 180.035 78.4062 180.223C78.1797 180.402 77.9844 180.621 77.8203 180.879C77.6562 181.137 77.5312 181.43 77.4453 181.758H82.7422ZM88.3438 177.586H90.9805V178.605C91.4648 178.098 91.8945 177.75 92.2695 177.562C92.6523 177.367 93.1055 177.27 93.6289 177.27C94.3242 177.27 95.0508 177.496 95.8086 177.949L94.6016 180.363C94.1016 180.004 93.6133 179.824 93.1367 179.824C91.6992 179.824 90.9805 180.91 90.9805 183.082V189H88.3438V177.586ZM100.906 180.047V189H98.2695V180.047H97.1445V177.586H98.2695V173.402H100.906V177.586H102.957V180.047H100.906ZM123.289 184.605H115.543L113.527 189H110.586L119.539 169.77L128.176 189H125.188L123.289 184.605ZM122.176 182.039L119.492 175.887L116.68 182.039H122.176ZM136.578 179.531L134.398 180.691C134.055 179.988 133.629 179.637 133.121 179.637C132.879 179.637 132.672 179.719 132.5 179.883C132.328 180.039 132.242 180.242 132.242 180.492C132.242 180.93 132.75 181.363 133.766 181.793C135.164 182.395 136.105 182.949 136.59 183.457C137.074 183.965 137.316 184.648 137.316 185.508C137.316 186.609 136.91 187.531 136.098 188.273C135.309 188.977 134.355 189.328 133.238 189.328C131.324 189.328 129.969 188.395 129.172 186.527L131.422 185.484C131.734 186.031 131.973 186.379 132.137 186.527C132.457 186.824 132.84 186.973 133.285 186.973C134.176 186.973 134.621 186.566 134.621 185.754C134.621 185.285 134.277 184.848 133.59 184.441C133.324 184.309 133.059 184.18 132.793 184.055C132.527 183.93 132.258 183.801 131.984 183.668C131.219 183.293 130.68 182.918 130.367 182.543C129.969 182.066 129.77 181.453 129.77 180.703C129.77 179.711 130.109 178.891 130.789 178.242C131.484 177.594 132.328 177.27 133.32 177.27C134.781 177.27 135.867 178.023 136.578 179.531ZM146.328 179.531L144.148 180.691C143.805 179.988 143.379 179.637 142.871 179.637C142.629 179.637 142.422 179.719 142.25 179.883C142.078 180.039 141.992 180.242 141.992 180.492C141.992 180.93 142.5 181.363 143.516 181.793C144.914 182.395 145.855 182.949 146.34 183.457C146.824 183.965 147.066 184.648 147.066 185.508C147.066 186.609 146.66 187.531 145.848 188.273C145.059 188.977 144.105 189.328 142.988 189.328C141.074 189.328 139.719 188.395 138.922 186.527L141.172 185.484C141.484 186.031 141.723 186.379 141.887 186.527C142.207 186.824 142.59 186.973 143.035 186.973C143.926 186.973 144.371 186.566 144.371 185.754C144.371 185.285 144.027 184.848 143.34 184.441C143.074 184.309 142.809 184.18 142.543 184.055C142.277 183.93 142.008 183.801 141.734 183.668C140.969 183.293 140.43 182.918 140.117 182.543C139.719 182.066 139.52 181.453 139.52 180.703C139.52 179.711 139.859 178.891 140.539 178.242C141.234 177.594 142.078 177.27 143.07 177.27C144.531 177.27 145.617 178.023 146.328 179.531ZM152.082 177.586V189H149.445V177.586H152.082ZM149.047 172.84C149.047 172.379 149.215 171.98 149.551 171.645C149.887 171.309 150.289 171.141 150.758 171.141C151.234 171.141 151.641 171.309 151.977 171.645C152.312 171.973 152.48 172.375 152.48 172.852C152.48 173.328 152.312 173.734 151.977 174.07C151.648 174.406 151.246 174.574 150.77 174.574C150.293 174.574 149.887 174.406 149.551 174.07C149.215 173.734 149.047 173.324 149.047 172.84ZM166.461 188.73C166.461 189.27 166.441 189.742 166.402 190.148C166.371 190.562 166.324 190.926 166.262 191.238C166.074 192.098 165.707 192.836 165.16 193.453C164.129 194.641 162.711 195.234 160.906 195.234C159.383 195.234 158.129 194.824 157.145 194.004C156.129 193.16 155.543 191.992 155.387 190.5H158.035C158.137 191.062 158.305 191.496 158.539 191.801C159.086 192.512 159.883 192.867 160.93 192.867C162.859 192.867 163.824 191.684 163.824 189.316V187.723C162.777 188.793 161.57 189.328 160.203 189.328C158.648 189.328 157.375 188.766 156.383 187.641C155.383 186.5 154.883 185.074 154.883 183.363C154.883 181.699 155.348 180.285 156.277 179.121C157.277 177.887 158.598 177.27 160.238 177.27C161.676 177.27 162.871 177.805 163.824 178.875V177.586H166.461V188.73ZM163.93 183.316C163.93 182.207 163.633 181.32 163.039 180.656C162.438 179.977 161.668 179.637 160.73 179.637C159.73 179.637 158.941 180.008 158.363 180.75C157.84 181.414 157.578 182.273 157.578 183.328C157.578 184.367 157.84 185.219 158.363 185.883C158.934 186.609 159.723 186.973 160.73 186.973C161.738 186.973 162.535 186.605 163.121 185.871C163.66 185.207 163.93 184.355 163.93 183.316ZM169.789 177.586H172.438V178.641C173.359 177.727 174.398 177.27 175.555 177.27C176.883 177.27 177.918 177.688 178.66 178.523C179.301 179.234 179.621 180.395 179.621 182.004V189H176.973V182.625C176.973 181.5 176.816 180.723 176.504 180.293C176.199 179.855 175.645 179.637 174.84 179.637C173.965 179.637 173.344 179.926 172.977 180.504C172.617 181.074 172.438 182.07 172.438 183.492V189H169.789V177.586ZM193.355 183.914H185.176C185.246 184.852 185.551 185.598 186.09 186.152C186.629 186.699 187.32 186.973 188.164 186.973C188.82 186.973 189.363 186.816 189.793 186.504C190.215 186.191 190.695 185.613 191.234 184.77L193.461 186.012C193.117 186.598 192.754 187.102 192.371 187.523C191.988 187.938 191.578 188.281 191.141 188.555C190.703 188.82 190.23 189.016 189.723 189.141C189.215 189.266 188.664 189.328 188.07 189.328C186.367 189.328 185 188.781 183.969 187.688C182.938 186.586 182.422 185.125 182.422 183.305C182.422 181.5 182.922 180.039 183.922 178.922C184.93 177.82 186.266 177.27 187.93 177.27C189.609 177.27 190.938 177.805 191.914 178.875C192.883 179.938 193.367 181.41 193.367 183.293L193.355 183.914ZM190.648 181.758C190.281 180.352 189.395 179.648 187.988 179.648C187.668 179.648 187.367 179.699 187.086 179.801C186.805 179.895 186.547 180.035 186.312 180.223C186.086 180.402 185.891 180.621 185.727 180.879C185.562 181.137 185.438 181.43 185.352 181.758H190.648ZM204.664 169.207H207.312V189H204.664V187.805C203.625 188.82 202.449 189.328 201.137 189.328C199.574 189.328 198.277 188.758 197.246 187.617C196.223 186.453 195.711 185 195.711 183.258C195.711 181.555 196.223 180.133 197.246 178.992C198.262 177.844 199.539 177.27 201.078 177.27C202.414 177.27 203.609 177.816 204.664 178.91V169.207ZM198.406 183.258C198.406 184.352 198.699 185.242 199.285 185.93C199.887 186.625 200.645 186.973 201.559 186.973C202.535 186.973 203.324 186.637 203.926 185.965C204.527 185.27 204.828 184.387 204.828 183.316C204.828 182.246 204.527 181.363 203.926 180.668C203.324 179.988 202.543 179.648 201.582 179.648C200.676 179.648 199.918 179.992 199.309 180.68C198.707 181.375 198.406 182.234 198.406 183.258ZM91.3438 205.473V221H88.6133V205.473H84.4531V202.906H95.4922V205.473H91.3438ZM95.8086 215.211C95.8086 213.562 96.3984 212.16 97.5781 211.004C98.7578 209.848 100.195 209.27 101.891 209.27C103.594 209.27 105.039 209.852 106.227 211.016C107.398 212.18 107.984 213.609 107.984 215.305C107.984 217.016 107.395 218.449 106.215 219.605C105.027 220.754 103.57 221.328 101.844 221.328C100.133 221.328 98.6992 220.742 97.543 219.57C96.3867 218.414 95.8086 216.961 95.8086 215.211ZM98.5039 215.258C98.5039 216.398 98.8086 217.301 99.418 217.965C100.043 218.637 100.867 218.973 101.891 218.973C102.922 218.973 103.746 218.641 104.363 217.977C104.98 217.312 105.289 216.426 105.289 215.316C105.289 214.207 104.98 213.32 104.363 212.656C103.738 211.984 102.914 211.648 101.891 211.648C100.883 211.648 100.066 211.984 99.4414 212.656C98.8164 213.328 98.5039 214.195 98.5039 215.258ZM122.352 213.184L116.445 202.906H119.586L123.723 210.137L127.871 202.906H131.012L125.082 213.184V221H122.352V213.184ZM130.426 215.211C130.426 213.562 131.016 212.16 132.195 211.004C133.375 209.848 134.812 209.27 136.508 209.27C138.211 209.27 139.656 209.852 140.844 211.016C142.016 212.18 142.602 213.609 142.602 215.305C142.602 217.016 142.012 218.449 140.832 219.605C139.645 220.754 138.188 221.328 136.461 221.328C134.75 221.328 133.316 220.742 132.16 219.57C131.004 218.414 130.426 216.961 130.426 215.211ZM133.121 215.258C133.121 216.398 133.426 217.301 134.035 217.965C134.66 218.637 135.484 218.973 136.508 218.973C137.539 218.973 138.363 218.641 138.98 217.977C139.598 217.312 139.906 216.426 139.906 215.316C139.906 214.207 139.598 213.32 138.98 212.656C138.355 211.984 137.531 211.648 136.508 211.648C135.5 211.648 134.684 211.984 134.059 212.656C133.434 213.328 133.121 214.195 133.121 215.258ZM148.039 209.586V216.137C148.039 218.027 148.785 218.973 150.277 218.973C151.77 218.973 152.516 218.027 152.516 216.137V209.586H155.152V216.195C155.152 217.109 155.039 217.898 154.812 218.562C154.594 219.156 154.215 219.691 153.676 220.168C152.785 220.941 151.652 221.328 150.277 221.328C148.91 221.328 147.781 220.941 146.891 220.168C146.344 219.691 145.957 219.156 145.73 218.562C145.512 218.031 145.402 217.242 145.402 216.195V209.586H148.039Z" fill="#39374D"/>
</g>
</g>
</g>
</g>
</g>
<g id="Group 626626">
<g id="Group 626630">
<g id="Group 626632">
<g id="Frame 29371">
<g id="Group 29202">
<g id="Group 29154">
<circle id="Ellipse 9" cx="128" cy="480.5" r="56.5" fill="#CAF1E9"/>
<g id="noun_Rocket_3200892">
<g id="Group 29127">
<path id="Vector" d="M149.006 459.968C149.001 459.956 149.001 459.943 148.996 459.932C148.909 459.752 148.763 459.606 148.582 459.519C148.572 459.514 148.558 459.514 148.547 459.509C148.466 459.474 148.381 459.446 148.29 459.437C148.266 459.434 148.221 459.43 148.162 459.424C148.153 459.424 148.144 459.423 148.134 459.422C146.366 459.264 131.287 458.202 122.526 466.963C121.426 468.063 120.402 469.208 119.459 470.382C116.159 468.617 112.013 469.194 109.321 471.886C106.891 474.316 106.141 477.951 107.41 481.145C107.544 481.481 107.869 481.702 108.231 481.702C108.593 481.702 108.918 481.481 109.052 481.145C109.394 480.283 109.905 479.509 110.57 478.844C111.832 477.583 113.531 476.888 115.285 476.86C114.564 478.308 113.964 479.759 113.536 481.189C113.443 481.5 113.528 481.838 113.757 482.067L115.227 483.537C114.512 483.888 113.85 484.341 113.285 484.906C110.645 487.545 109.218 497.345 109.064 498.454C109.026 498.728 109.119 499.004 109.314 499.2C109.481 499.367 109.706 499.459 109.939 499.459C109.98 499.459 110.02 499.457 110.061 499.451C111.17 499.296 120.969 497.869 123.609 495.23C124.174 494.665 124.626 494.003 124.978 493.287L126.448 494.757C126.616 494.926 126.841 495.016 127.072 495.016C127.157 495.016 127.242 495.004 127.325 494.979C128.756 494.551 130.207 493.951 131.654 493.23C131.626 494.984 130.933 496.683 129.672 497.944C129.006 498.609 128.231 499.121 127.37 499.463C127.034 499.597 126.813 499.922 126.813 500.284C126.813 500.646 127.034 500.971 127.37 501.105C128.402 501.515 129.479 501.714 130.548 501.714C132.787 501.714 134.984 500.838 136.629 499.193C139.321 496.502 139.898 492.356 138.133 489.055C139.307 488.113 140.452 487.088 141.552 485.988C150.669 476.871 149.148 460.9 149.078 460.225C149.069 460.133 149.041 460.049 149.006 459.968ZM122.36 493.981C120.696 495.645 114.4 496.964 110.993 497.522C111.55 494.115 112.868 487.82 114.534 486.155C115.105 485.584 115.798 485.145 116.561 484.871L123.644 491.954C123.369 492.716 122.931 493.41 122.36 493.981ZM147.373 461.142C147.476 462.991 147.585 468.065 146.238 473.46L135.055 462.278C140.451 460.93 145.525 461.039 147.373 461.142ZM109.321 477.594C109.056 477.86 108.81 478.14 108.584 478.432C108.451 476.495 109.149 474.556 110.57 473.135C112.641 471.064 115.792 470.572 118.371 471.815C117.573 472.906 116.855 474.016 116.21 475.135C113.676 474.894 111.137 475.779 109.321 477.594ZM135.38 497.944C133.958 499.365 132.02 500.066 130.083 499.931C130.376 499.705 130.655 499.459 130.921 499.193C132.737 497.377 133.623 494.841 133.38 492.304C134.499 491.66 135.609 490.942 136.7 490.144C137.942 492.722 137.451 495.874 135.38 497.944ZM140.303 484.739C136.302 488.74 131.711 491.704 127.319 493.13L125.27 491.082L117.433 483.245L115.384 481.196C116.811 476.803 119.775 472.213 123.776 468.212C126.423 465.565 129.76 463.887 133.107 462.828L145.687 475.408C144.628 478.755 142.95 482.092 140.303 484.739Z" fill="black"/>
<path id="Vector_2" d="M119.871 479.189C119.526 478.844 118.967 478.844 118.622 479.189C118.277 479.535 118.277 480.093 118.622 480.439L119.31 481.126C119.482 481.299 119.708 481.385 119.934 481.385C120.16 481.385 120.386 481.299 120.559 481.126C120.904 480.781 120.904 480.222 120.559 479.877L119.871 479.189Z" fill="black"/>
<path id="Vector_3" d="M122.793 482.111C122.448 481.766 121.889 481.766 121.544 482.111C121.199 482.456 121.199 483.015 121.544 483.36L122.231 484.048C122.404 484.22 122.63 484.307 122.856 484.307C123.082 484.307 123.308 484.22 123.481 484.048C123.826 483.703 123.826 483.144 123.481 482.799L122.793 482.111Z" fill="black"/>
<path id="Vector_4" d="M125.715 485.034C125.37 484.689 124.811 484.689 124.466 485.034C124.121 485.379 124.121 485.938 124.466 486.283L125.153 486.971C125.326 487.143 125.552 487.23 125.778 487.23C126.004 487.23 126.23 487.143 126.402 486.971C126.747 486.626 126.747 486.067 126.402 485.722L125.715 485.034Z" fill="black"/>
<path id="Vector_5" d="M128.637 487.956C128.292 487.611 127.733 487.611 127.388 487.956C127.043 488.301 127.043 488.86 127.388 489.205L128.075 489.893C128.248 490.065 128.474 490.151 128.7 490.151C128.926 490.151 129.152 490.065 129.324 489.893C129.669 489.548 129.669 488.989 129.324 488.644L128.637 487.956Z" fill="black"/>
<path id="Vector_6" d="M131.856 469.569C129.962 469.569 128.182 470.307 126.843 471.646C124.078 474.41 124.078 478.908 126.843 481.672C128.225 483.054 130.041 483.746 131.856 483.746C133.672 483.746 135.487 483.054 136.869 481.672C138.208 480.333 138.946 478.553 138.946 476.659C138.946 474.765 138.208 472.985 136.869 471.646C135.53 470.307 133.75 469.569 131.856 469.569ZM135.62 480.423C133.545 482.498 130.167 482.498 128.092 480.423C126.017 478.347 126.017 474.971 128.092 472.895C129.097 471.89 130.434 471.336 131.856 471.336C133.278 471.336 134.615 471.89 135.62 472.895C136.625 473.901 137.179 475.237 137.179 476.659C137.179 478.081 136.625 479.418 135.62 480.423Z" fill="black"/>
</g>
</g>
</g>
<g id="Group 29157">
<circle id="Ellipse 21" cx="90" cy="418.5" r="11.5" fill="#173E62"/>
<path id="6" d="M93.4602 419.254C93.6842 419.674 93.7962 420.211 93.7962 420.864C93.7962 421.405 93.7076 421.891 93.5302 422.32C93.2876 422.871 92.9096 423.305 92.3962 423.622C91.8829 423.939 91.2762 424.098 90.5762 424.098C89.8576 424.098 89.2369 423.935 88.7142 423.608C88.1916 423.272 87.8136 422.81 87.5802 422.222C87.4122 421.811 87.3282 421.354 87.3282 420.85V416.636C87.3282 416.132 87.4589 415.689 87.7202 415.306C87.9909 414.914 88.3642 414.615 88.8402 414.41C89.3162 414.195 89.8622 414.088 90.4782 414.088C91.0849 414.088 91.6216 414.195 92.0882 414.41C92.5549 414.615 92.9142 414.909 93.1662 415.292C93.4276 415.665 93.5582 416.099 93.5582 416.594V416.986C93.5582 417.033 93.5396 417.075 93.5022 417.112C93.4742 417.14 93.4369 417.154 93.3902 417.154H91.7522C91.7056 417.154 91.6636 417.14 91.6262 417.112C91.5982 417.075 91.5842 417.033 91.5842 416.986V416.86C91.5842 416.552 91.4816 416.295 91.2762 416.09C91.0709 415.885 90.8049 415.782 90.4782 415.782C90.1329 415.782 89.8482 415.889 89.6242 416.104C89.4096 416.309 89.3022 416.575 89.3022 416.902V418.218C89.3022 418.246 89.3116 418.265 89.3302 418.274C89.3489 418.274 89.3676 418.265 89.3862 418.246C89.7689 417.919 90.2776 417.756 90.9122 417.756C91.4722 417.756 91.9716 417.887 92.4102 418.148C92.8582 418.4 93.2082 418.769 93.4602 419.254ZM91.6122 421.774C91.7522 421.531 91.8222 421.237 91.8222 420.892C91.8222 420.519 91.7476 420.211 91.5982 419.968C91.3649 419.595 91.0242 419.408 90.5762 419.408C90.0722 419.408 89.7222 419.599 89.5262 419.982C89.3862 420.225 89.3162 420.537 89.3162 420.92C89.3162 421.256 89.3769 421.541 89.4982 421.774C89.7036 422.185 90.0582 422.39 90.5622 422.39C91.0476 422.39 91.3976 422.185 91.6122 421.774Z" fill="#FAFAFA"/>
</g>
</g>
<g id="Frame 29295_2">
<path id="general concept_3" d="M65.4922 594V575.906H69.2891C71.1094 575.906 72.5469 576.086 73.6016 576.445C74.7344 576.797 75.7617 577.395 76.6836 578.238C78.5508 579.941 79.4844 582.18 79.4844 584.953C79.4844 587.734 78.5117 589.984 76.5664 591.703C75.5898 592.562 74.5664 593.16 73.4961 593.496C72.4961 593.832 71.0781 594 69.2422 594H65.4922ZM68.2227 591.434H69.4531C70.6797 591.434 71.6992 591.305 72.5117 591.047C73.3242 590.773 74.0586 590.34 74.7148 589.746C76.0586 588.52 76.7305 586.922 76.7305 584.953C76.7305 582.969 76.0664 581.359 74.7383 580.125C73.543 579.023 71.7812 578.473 69.4531 578.473H68.2227V591.434ZM92.8203 588.914H84.6406C84.7109 589.852 85.0156 590.598 85.5547 591.152C86.0938 591.699 86.7852 591.973 87.6289 591.973C88.2852 591.973 88.8281 591.816 89.2578 591.504C89.6797 591.191 90.1602 590.613 90.6992 589.77L92.9258 591.012C92.582 591.598 92.2188 592.102 91.8359 592.523C91.4531 592.938 91.043 593.281 90.6055 593.555C90.168 593.82 89.6953 594.016 89.1875 594.141C88.6797 594.266 88.1289 594.328 87.5352 594.328C85.832 594.328 84.4648 593.781 83.4336 592.688C82.4023 591.586 81.8867 590.125 81.8867 588.305C81.8867 586.5 82.3867 585.039 83.3867 583.922C84.3945 582.82 85.7305 582.27 87.3945 582.27C89.0742 582.27 90.4023 582.805 91.3789 583.875C92.3477 584.938 92.832 586.41 92.832 588.293L92.8203 588.914ZM90.1133 586.758C89.7461 585.352 88.8594 584.648 87.4531 584.648C87.1328 584.648 86.832 584.699 86.5508 584.801C86.2695 584.895 86.0117 585.035 85.7773 585.223C85.5508 585.402 85.3555 585.621 85.1914 585.879C85.0273 586.137 84.9023 586.43 84.8164 586.758H90.1133ZM98.3516 574.207V594H95.7148V574.207H98.3516ZM104.328 582.586V594H101.691V582.586H104.328ZM101.293 577.84C101.293 577.379 101.461 576.98 101.797 576.645C102.133 576.309 102.535 576.141 103.004 576.141C103.48 576.141 103.887 576.309 104.223 576.645C104.559 576.973 104.727 577.375 104.727 577.852C104.727 578.328 104.559 578.734 104.223 579.07C103.895 579.406 103.492 579.574 103.016 579.574C102.539 579.574 102.133 579.406 101.797 579.07C101.461 578.734 101.293 578.324 101.293 577.84ZM109.086 582.586L112.039 588.996L114.98 582.586H117.945L112.016 594.785L106.133 582.586H109.086ZM129.711 588.914H121.531C121.602 589.852 121.906 590.598 122.445 591.152C122.984 591.699 123.676 591.973 124.52 591.973C125.176 591.973 125.719 591.816 126.148 591.504C126.57 591.191 127.051 590.613 127.59 589.77L129.816 591.012C129.473 591.598 129.109 592.102 128.727 592.523C128.344 592.938 127.934 593.281 127.496 593.555C127.059 593.82 126.586 594.016 126.078 594.141C125.57 594.266 125.02 594.328 124.426 594.328C122.723 594.328 121.355 593.781 120.324 592.688C119.293 591.586 118.777 590.125 118.777 588.305C118.777 586.5 119.277 585.039 120.277 583.922C121.285 582.82 122.621 582.27 124.285 582.27C125.965 582.27 127.293 582.805 128.27 583.875C129.238 584.938 129.723 586.41 129.723 588.293L129.711 588.914ZM127.004 586.758C126.637 585.352 125.75 584.648 124.344 584.648C124.023 584.648 123.723 584.699 123.441 584.801C123.16 584.895 122.902 585.035 122.668 585.223C122.441 585.402 122.246 585.621 122.082 585.879C121.918 586.137 121.793 586.43 121.707 586.758H127.004ZM132.605 582.586H135.242V583.605C135.727 583.098 136.156 582.75 136.531 582.562C136.914 582.367 137.367 582.27 137.891 582.27C138.586 582.27 139.312 582.496 140.07 582.949L138.863 585.363C138.363 585.004 137.875 584.824 137.398 584.824C135.961 584.824 135.242 585.91 135.242 588.082V594H132.605V582.586ZM160.121 589.605H152.375L150.359 594H147.418L156.371 574.77L165.008 594H162.02L160.121 589.605ZM159.008 587.039L156.324 580.887L153.512 587.039H159.008ZM166.777 582.586H169.426V583.641C170.348 582.727 171.387 582.27 172.543 582.27C173.871 582.27 174.906 582.688 175.648 583.523C176.289 584.234 176.609 585.395 176.609 587.004V594H173.961V587.625C173.961 586.5 173.805 585.723 173.492 585.293C173.188 584.855 172.633 584.637 171.828 584.637C170.953 584.637 170.332 584.926 169.965 585.504C169.605 586.074 169.426 587.07 169.426 588.492V594H166.777V582.586ZM188.363 574.207H191.012V594H188.363V592.805C187.324 593.82 186.148 594.328 184.836 594.328C183.273 594.328 181.977 593.758 180.945 592.617C179.922 591.453 179.41 590 179.41 588.258C179.41 586.555 179.922 585.133 180.945 583.992C181.961 582.844 183.238 582.27 184.777 582.27C186.113 582.27 187.309 582.816 188.363 583.91V574.207ZM182.105 588.258C182.105 589.352 182.398 590.242 182.984 590.93C183.586 591.625 184.344 591.973 185.258 591.973C186.234 591.973 187.023 591.637 187.625 590.965C188.227 590.27 188.527 589.387 188.527 588.316C188.527 587.246 188.227 586.363 187.625 585.668C187.023 584.988 186.242 584.648 185.281 584.648C184.375 584.648 183.617 584.992 183.008 585.68C182.406 586.375 182.105 587.234 182.105 588.258ZM90.1719 616.578H97.6484V617.176C97.6484 618.535 97.4883 619.738 97.168 620.785C96.8555 621.754 96.3281 622.66 95.5859 623.504C93.9062 625.395 91.7695 626.34 89.1758 626.34C86.6445 626.34 84.4766 625.426 82.6719 623.598C80.8672 621.762 79.9648 619.559 79.9648 616.988C79.9648 614.363 80.8828 612.137 82.7188 610.309C84.5547 608.473 86.7891 607.555 89.4219 607.555C90.8359 607.555 92.1562 607.844 93.3828 608.422C94.5547 609 95.707 609.938 96.8398 611.234L94.8945 613.098C93.4102 611.121 91.6016 610.133 89.4688 610.133C87.5547 610.133 85.9492 610.793 84.6523 612.113C83.3555 613.41 82.707 615.035 82.707 616.988C82.707 619.004 83.4297 620.664 84.875 621.969C86.2266 623.18 87.6914 623.785 89.2695 623.785C90.6133 623.785 91.8203 623.332 92.8906 622.426C93.9609 621.512 94.5586 620.418 94.6836 619.145H90.1719V616.578ZM100.191 616.871C100.191 614.324 101.125 612.137 102.992 610.309C104.852 608.48 107.086 607.566 109.695 607.566C112.273 607.566 114.484 608.488 116.328 610.332C118.18 612.176 119.105 614.391 119.105 616.977C119.105 619.578 118.176 621.785 116.316 623.598C114.449 625.418 112.195 626.328 109.555 626.328C107.219 626.328 105.121 625.52 103.262 623.902C101.215 622.113 100.191 619.77 100.191 616.871ZM102.945 616.906C102.945 618.906 103.617 620.551 104.961 621.84C106.297 623.129 107.84 623.773 109.59 623.773C111.488 623.773 113.09 623.117 114.395 621.805C115.699 620.477 116.352 618.859 116.352 616.953C116.352 615.023 115.707 613.406 114.418 612.102C113.137 610.789 111.551 610.133 109.66 610.133C107.777 610.133 106.188 610.789 104.891 612.102C103.594 613.398 102.945 615 102.945 616.906ZM132.676 607.906V623.434H137.996V626H129.945V607.906H132.676ZM142.719 614.586V626H140.082V614.586H142.719ZM139.684 609.84C139.684 609.379 139.852 608.98 140.188 608.645C140.523 608.309 140.926 608.141 141.395 608.141C141.871 608.141 142.277 608.309 142.613 608.645C142.949 608.973 143.117 609.375 143.117 609.852C143.117 610.328 142.949 610.734 142.613 611.07C142.285 611.406 141.883 611.574 141.406 611.574C140.93 611.574 140.523 611.406 140.188 611.07C139.852 610.734 139.684 610.324 139.684 609.84ZM147.477 614.586L150.43 620.996L153.371 614.586H156.336L150.406 626.785L144.523 614.586H147.477ZM168.102 620.914H159.922C159.992 621.852 160.297 622.598 160.836 623.152C161.375 623.699 162.066 623.973 162.91 623.973C163.566 623.973 164.109 623.816 164.539 623.504C164.961 623.191 165.441 622.613 165.98 621.77L168.207 623.012C167.863 623.598 167.5 624.102 167.117 624.523C166.734 624.938 166.324 625.281 165.887 625.555C165.449 625.82 164.977 626.016 164.469 626.141C163.961 626.266 163.41 626.328 162.816 626.328C161.113 626.328 159.746 625.781 158.715 624.688C157.684 623.586 157.168 622.125 157.168 620.305C157.168 618.5 157.668 617.039 158.668 615.922C159.676 614.82 161.012 614.27 162.676 614.27C164.355 614.27 165.684 614.805 166.66 615.875C167.629 616.938 168.113 618.41 168.113 620.293L168.102 620.914ZM165.395 618.758C165.027 617.352 164.141 616.648 162.734 616.648C162.414 616.648 162.113 616.699 161.832 616.801C161.551 616.895 161.293 617.035 161.059 617.223C160.832 617.402 160.637 617.621 160.473 617.879C160.309 618.137 160.184 618.43 160.098 618.758H165.395ZM171.688 624.688C171.688 624.25 171.848 623.871 172.168 623.551C172.488 623.23 172.871 623.07 173.316 623.07C173.762 623.07 174.145 623.23 174.465 623.551C174.785 623.871 174.945 624.254 174.945 624.699C174.945 625.152 174.785 625.539 174.465 625.859C174.152 626.172 173.77 626.328 173.316 626.328C172.855 626.328 172.469 626.172 172.156 625.859C171.844 625.547 171.688 625.156 171.688 624.688ZM171.992 621.969V607.906H174.641V621.969H171.992Z" fill="#39374D"/>
</g>
</g>
<g id="Group 626614">
<g id="Group 29203">
<g id="Group 29153">
<circle id="Ellipse 8" cx="123.5" cy="96.5" r="56.5" fill="#CAF1E9"/>
</g>
<g id="Group 19502">
<circle id="Ellipse 21_2" cx="73" cy="40.5" r="11.5" fill="#173E62"/>
<path id="1" d="M72.6254 36.242C72.6721 36.214 72.7421 36.2 72.8354 36.2H74.5294C74.5761 36.2 74.6134 36.2187 74.6414 36.256C74.6787 36.284 74.6974 36.3213 74.6974 36.368V45.832C74.6974 45.8787 74.6787 45.9207 74.6414 45.958C74.6134 45.986 74.5761 46 74.5294 46H72.8914C72.8447 46 72.8027 45.986 72.7654 45.958C72.7374 45.9207 72.7234 45.8787 72.7234 45.832V38.16C72.7234 38.1413 72.7141 38.1227 72.6954 38.104C72.6767 38.0853 72.6581 38.0807 72.6394 38.09L71.2534 38.468L71.1974 38.482C71.1134 38.482 71.0714 38.4307 71.0714 38.328L71.0294 37.124C71.0294 37.0307 71.0714 36.9653 71.1554 36.928L72.6254 36.242Z" fill="#FAFAFA"/>
</g>
</g>
<g id="Group">
<path id="Vector_7" d="M118.826 83.8574L123.003 80.8254L127.181 83.8574L125.585 78.95L129.765 75.9137H124.599L123.003 71L121.408 75.9137H116.242L120.421 78.95L118.826 83.8574Z" fill="black"/>
<path id="Vector_8" d="M102.889 90.3175L107.066 87.2855L111.244 90.3131L109.648 85.4099L113.825 82.3737H108.662L107.066 77.46L105.468 82.3737H100.305L104.482 85.4099L102.889 90.3175Z" fill="black"/>
<path id="Vector_9" d="M134.753 90.3175L138.931 87.2855L143.109 90.3131L141.515 85.4099L145.693 82.3737H140.527L138.931 77.46L137.335 82.3737H132.172L136.349 85.4099L134.753 90.3175Z" fill="black"/>
<path id="Vector_10" d="M122.998 107.859C128.341 107.859 132.688 103.514 132.688 98.1693C132.688 92.8294 128.341 88.4795 122.998 88.4795C117.656 88.4795 113.309 92.8294 113.309 98.1693C113.309 103.514 117.656 107.859 122.998 107.859ZM122.998 90.6328C127.154 90.6328 130.535 94.0137 130.535 98.1693C130.535 102.325 127.154 105.706 122.998 105.706C118.843 105.706 115.462 102.325 115.462 98.1693C115.462 94.0137 118.843 90.6328 122.998 90.6328Z" fill="black"/>
<path id="Vector_11" d="M123.001 112.167C111.081 112.167 106.852 117.387 106.852 121.857V122.933H139.151V121.857C139.151 117.384 134.922 112.167 123.001 112.167ZM109.111 120.78C109.912 116.823 115.185 114.32 123.001 114.32C130.818 114.32 136.091 116.823 136.892 120.78H109.111Z" fill="black"/>
<path id="Vector_12" d="M105.343 100.386L109.521 97.3493H104.357L102.761 92.4355L101.164 97.3493H96L100.177 100.386L98.584 105.293L102.761 102.261L106.939 105.289L105.343 100.386Z" fill="black"/>
<path id="Vector_13" d="M149.997 96.7414H144.831L143.236 91.8271L141.64 96.7414H136.477L140.654 99.7771L139.058 104.685L143.236 101.657L147.413 104.685L145.82 99.7771L149.997 96.7414Z" fill="black"/>
</g>
</g>
<g id="Group 626627">
<g id="Frame 29367">
<g id="Frame 29294">
<path id="general concept_4" d="M394.609 224.602L392.395 225.914C391.98 225.195 391.586 224.727 391.211 224.508C390.82 224.258 390.316 224.133 389.699 224.133C388.941 224.133 388.312 224.348 387.812 224.777C387.312 225.199 387.062 225.73 387.062 226.371C387.062 227.254 387.719 227.965 389.031 228.504L390.836 229.242C392.305 229.836 393.379 230.562 394.059 231.422C394.738 232.273 395.078 233.32 395.078 234.562C395.078 236.227 394.523 237.602 393.414 238.688C392.297 239.781 390.91 240.328 389.254 240.328C387.684 240.328 386.387 239.863 385.363 238.934C384.355 238.004 383.727 236.695 383.477 235.008L386.242 234.398C386.367 235.461 386.586 236.195 386.898 236.602C387.461 237.383 388.281 237.773 389.359 237.773C390.211 237.773 390.918 237.488 391.48 236.918C392.043 236.348 392.324 235.625 392.324 234.75C392.324 234.398 392.273 234.078 392.172 233.789C392.078 233.492 391.926 233.223 391.715 232.98C391.512 232.73 391.246 232.5 390.918 232.289C390.59 232.07 390.199 231.863 389.746 231.668L388 230.941C385.523 229.895 384.285 228.363 384.285 226.348C384.285 224.988 384.805 223.852 385.844 222.938C386.883 222.016 388.176 221.555 389.723 221.555C391.809 221.555 393.438 222.57 394.609 224.602ZM397.867 220.207H400.504V229.535C401.441 228.691 402.477 228.27 403.609 228.27C404.898 228.27 405.93 228.688 406.703 229.523C407.359 230.25 407.688 231.41 407.688 233.004V240H405.051V233.25C405.051 232.336 404.887 231.676 404.559 231.27C404.238 230.855 403.719 230.648 403 230.648C402.078 230.648 401.43 230.934 401.055 231.504C400.688 232.082 400.504 233.074 400.504 234.48V240H397.867V220.207ZM419.453 228.586H422.102V240H419.453V238.805C418.367 239.82 417.199 240.328 415.949 240.328C414.371 240.328 413.066 239.758 412.035 238.617C411.012 237.453 410.5 236 410.5 234.258C410.5 232.547 411.012 231.121 412.035 229.98C413.059 228.84 414.34 228.27 415.879 228.27C417.207 228.27 418.398 228.816 419.453 229.91V228.586ZM413.195 234.258C413.195 235.352 413.488 236.242 414.074 236.93C414.676 237.625 415.434 237.973 416.348 237.973C417.324 237.973 418.113 237.637 418.715 236.965C419.316 236.27 419.617 235.387 419.617 234.316C419.617 233.246 419.316 232.363 418.715 231.668C418.113 230.988 417.332 230.648 416.371 230.648C415.465 230.648 414.707 230.992 414.098 231.68C413.496 232.375 413.195 233.234 413.195 234.258ZM425.43 228.586H428.066V229.605C428.551 229.098 428.98 228.75 429.355 228.562C429.738 228.367 430.191 228.27 430.715 228.27C431.41 228.27 432.137 228.496 432.895 228.949L431.688 231.363C431.188 231.004 430.699 230.824 430.223 230.824C428.785 230.824 428.066 231.91 428.066 234.082V240H425.43V228.586ZM444.637 234.914H436.457C436.527 235.852 436.832 236.598 437.371 237.152C437.91 237.699 438.602 237.973 439.445 237.973C440.102 237.973 440.645 237.816 441.074 237.504C441.496 237.191 441.977 236.613 442.516 235.77L444.742 237.012C444.398 237.598 444.035 238.102 443.652 238.523C443.27 238.938 442.859 239.281 442.422 239.555C441.984 239.82 441.512 240.016 441.004 240.141C440.496 240.266 439.945 240.328 439.352 240.328C437.648 240.328 436.281 239.781 435.25 238.688C434.219 237.586 433.703 236.125 433.703 234.305C433.703 232.5 434.203 231.039 435.203 229.922C436.211 228.82 437.547 228.27 439.211 228.27C440.891 228.27 442.219 228.805 443.195 229.875C444.164 230.938 444.648 232.41 444.648 234.293L444.637 234.914ZM441.93 232.758C441.562 231.352 440.676 230.648 439.27 230.648C438.949 230.648 438.648 230.699 438.367 230.801C438.086 230.895 437.828 231.035 437.594 231.223C437.367 231.402 437.172 231.621 437.008 231.879C436.844 232.137 436.719 232.43 436.633 232.758H441.93ZM459.098 232.184L453.191 221.906H456.332L460.469 229.137L464.617 221.906H467.758L461.828 232.184V240H459.098V232.184ZM467.172 234.211C467.172 232.562 467.762 231.16 468.941 230.004C470.121 228.848 471.559 228.27 473.254 228.27C474.957 228.27 476.402 228.852 477.59 230.016C478.762 231.18 479.348 232.609 479.348 234.305C479.348 236.016 478.758 237.449 477.578 238.605C476.391 239.754 474.934 240.328 473.207 240.328C471.496 240.328 470.062 239.742 468.906 238.57C467.75 237.414 467.172 235.961 467.172 234.211ZM469.867 234.258C469.867 235.398 470.172 236.301 470.781 236.965C471.406 237.637 472.23 237.973 473.254 237.973C474.285 237.973 475.109 237.641 475.727 236.977C476.344 236.312 476.652 235.426 476.652 234.316C476.652 233.207 476.344 232.32 475.727 231.656C475.102 230.984 474.277 230.648 473.254 230.648C472.246 230.648 471.43 230.984 470.805 231.656C470.18 232.328 469.867 233.195 469.867 234.258ZM484.785 228.586V235.137C484.785 237.027 485.531 237.973 487.023 237.973C488.516 237.973 489.262 237.027 489.262 235.137V228.586H491.898V235.195C491.898 236.109 491.785 236.898 491.559 237.562C491.34 238.156 490.961 238.691 490.422 239.168C489.531 239.941 488.398 240.328 487.023 240.328C485.656 240.328 484.527 239.941 483.637 239.168C483.09 238.691 482.703 238.156 482.477 237.562C482.258 237.031 482.148 236.242 482.148 235.195V228.586H484.785ZM495.227 228.586H497.863V229.605C498.348 229.098 498.777 228.75 499.152 228.562C499.535 228.367 499.988 228.27 500.512 228.27C501.207 228.27 501.934 228.496 502.691 228.949L501.484 231.363C500.984 231.004 500.496 230.824 500.02 230.824C498.582 230.824 497.863 231.91 497.863 234.082V240H495.227V228.586ZM514.844 232.652V240H512.113V221.906H515.207C516.723 221.906 517.867 222.012 518.641 222.223C519.422 222.434 520.109 222.832 520.703 223.418C521.742 224.434 522.262 225.715 522.262 227.262C522.262 228.918 521.707 230.23 520.598 231.199C519.488 232.168 517.992 232.652 516.109 232.652H514.844ZM514.844 230.121H515.863C518.371 230.121 519.625 229.156 519.625 227.227C519.625 225.359 518.332 224.426 515.746 224.426H514.844V230.121ZM532.328 228.586H534.977V240H532.328V238.805C531.242 239.82 530.074 240.328 528.824 240.328C527.246 240.328 525.941 239.758 524.91 238.617C523.887 237.453 523.375 236 523.375 234.258C523.375 232.547 523.887 231.121 524.91 229.98C525.934 228.84 527.215 228.27 528.754 228.27C530.082 228.27 531.273 228.816 532.328 229.91V228.586ZM526.07 234.258C526.07 235.352 526.363 236.242 526.949 236.93C527.551 237.625 528.309 237.973 529.223 237.973C530.199 237.973 530.988 237.637 531.59 236.965C532.191 236.27 532.492 235.387 532.492 234.316C532.492 233.246 532.191 232.363 531.59 231.668C530.988 230.988 530.207 230.648 529.246 230.648C528.34 230.648 527.582 230.992 526.973 231.68C526.371 232.375 526.07 233.234 526.07 234.258ZM540.941 228.586V240H538.305V228.586H540.941ZM537.906 223.84C537.906 223.379 538.074 222.98 538.41 222.645C538.746 222.309 539.148 222.141 539.617 222.141C540.094 222.141 540.5 222.309 540.836 222.645C541.172 222.973 541.34 223.375 541.34 223.852C541.34 224.328 541.172 224.734 540.836 225.07C540.508 225.406 540.105 225.574 539.629 225.574C539.152 225.574 538.746 225.406 538.41 225.07C538.074 224.734 537.906 224.324 537.906 223.84ZM544.281 228.586H546.93V229.641C547.852 228.727 548.891 228.27 550.047 228.27C551.375 228.27 552.41 228.688 553.152 229.523C553.793 230.234 554.113 231.395 554.113 233.004V240H551.465V233.625C551.465 232.5 551.309 231.723 550.996 231.293C550.691 230.855 550.137 230.637 549.332 230.637C548.457 230.637 547.836 230.926 547.469 231.504C547.109 232.074 546.93 233.07 546.93 234.492V240H544.281V228.586ZM391 264.652V272H388.27V253.906H391.363C392.879 253.906 394.023 254.012 394.797 254.223C395.578 254.434 396.266 254.832 396.859 255.418C397.898 256.434 398.418 257.715 398.418 259.262C398.418 260.918 397.863 262.23 396.754 263.199C395.645 264.168 394.148 264.652 392.266 264.652H391ZM391 262.121H392.02C394.527 262.121 395.781 261.156 395.781 259.227C395.781 257.359 394.488 256.426 391.902 256.426H391V262.121ZM399.484 266.211C399.484 264.562 400.074 263.16 401.254 262.004C402.434 260.848 403.871 260.27 405.566 260.27C407.27 260.27 408.715 260.852 409.902 262.016C411.074 263.18 411.66 264.609 411.66 266.305C411.66 268.016 411.07 269.449 409.891 270.605C408.703 271.754 407.246 272.328 405.52 272.328C403.809 272.328 402.375 271.742 401.219 270.57C400.062 269.414 399.484 267.961 399.484 266.211ZM402.18 266.258C402.18 267.398 402.484 268.301 403.094 268.965C403.719 269.637 404.543 269.973 405.566 269.973C406.598 269.973 407.422 269.641 408.039 268.977C408.656 268.312 408.965 267.426 408.965 266.316C408.965 265.207 408.656 264.32 408.039 263.656C407.414 262.984 406.59 262.648 405.566 262.648C404.559 262.648 403.742 262.984 403.117 263.656C402.492 264.328 402.18 265.195 402.18 266.258ZM417.098 260.586V272H414.461V260.586H417.098ZM414.062 255.84C414.062 255.379 414.23 254.98 414.566 254.645C414.902 254.309 415.305 254.141 415.773 254.141C416.25 254.141 416.656 254.309 416.992 254.645C417.328 254.973 417.496 255.375 417.496 255.852C417.496 256.328 417.328 256.734 416.992 257.07C416.664 257.406 416.262 257.574 415.785 257.574C415.309 257.574 414.902 257.406 414.566 257.07C414.23 256.734 414.062 256.324 414.062 255.84ZM420.438 260.586H423.086V261.641C424.008 260.727 425.047 260.27 426.203 260.27C427.531 260.27 428.566 260.688 429.309 261.523C429.949 262.234 430.27 263.395 430.27 265.004V272H427.621V265.625C427.621 264.5 427.465 263.723 427.152 263.293C426.848 262.855 426.293 262.637 425.488 262.637C424.613 262.637 423.992 262.926 423.625 263.504C423.266 264.074 423.086 265.07 423.086 266.492V272H420.438V260.586ZM436.328 263.047V272H433.691V263.047H432.566V260.586H433.691V256.402H436.328V260.586H438.379V263.047H436.328ZM446.805 262.531L444.625 263.691C444.281 262.988 443.855 262.637 443.348 262.637C443.105 262.637 442.898 262.719 442.727 262.883C442.555 263.039 442.469 263.242 442.469 263.492C442.469 263.93 442.977 264.363 443.992 264.793C445.391 265.395 446.332 265.949 446.816 266.457C447.301 266.965 447.543 267.648 447.543 268.508C447.543 269.609 447.137 270.531 446.324 271.273C445.535 271.977 444.582 272.328 443.465 272.328C441.551 272.328 440.195 271.395 439.398 269.527L441.648 268.484C441.961 269.031 442.199 269.379 442.363 269.527C442.684 269.824 443.066 269.973 443.512 269.973C444.402 269.973 444.848 269.566 444.848 268.754C444.848 268.285 444.504 267.848 443.816 267.441C443.551 267.309 443.285 267.18 443.02 267.055C442.754 266.93 442.484 266.801 442.211 266.668C441.445 266.293 440.906 265.918 440.594 265.543C440.195 265.066 439.996 264.453 439.996 263.703C439.996 262.711 440.336 261.891 441.016 261.242C441.711 260.594 442.555 260.27 443.547 260.27C445.008 260.27 446.094 261.023 446.805 262.531ZM464.945 261.934L468.203 265.871L468.309 265.754C468.66 265.371 468.992 264.996 469.305 264.629C469.617 264.262 469.918 263.891 470.207 263.516L471.988 265.344C471.77 265.656 471.48 266.02 471.121 266.434C470.77 266.848 470.348 267.324 469.855 267.863L473.207 272H469.809L468.004 269.785C466.348 271.496 464.625 272.352 462.836 272.352C461.234 272.352 459.875 271.84 458.758 270.816C457.664 269.785 457.117 268.512 457.117 266.996C457.117 265.191 457.984 263.691 459.719 262.496L460.902 261.688C460.918 261.68 460.945 261.66 460.984 261.629C461.023 261.598 461.078 261.555 461.148 261.5C459.953 260.227 459.355 258.973 459.355 257.738C459.355 256.52 459.754 255.527 460.551 254.762C461.363 253.996 462.41 253.613 463.691 253.613C464.934 253.613 465.961 253.984 466.773 254.727C467.586 255.469 467.992 256.406 467.992 257.539C467.992 258.32 467.77 259.027 467.324 259.66C466.887 260.293 466.094 261.051 464.945 261.934ZM462.777 263.469L462.625 263.574C461.508 264.348 460.746 264.969 460.34 265.438C459.941 265.906 459.742 266.402 459.742 266.926C459.742 267.676 460.043 268.363 460.645 268.988C461.27 269.59 461.957 269.891 462.707 269.891C463.762 269.891 464.977 269.199 466.352 267.816L462.777 263.469ZM463.363 260.012L463.586 259.848C463.969 259.559 464.285 259.309 464.535 259.098C464.785 258.879 464.965 258.695 465.074 258.547C465.309 258.258 465.426 257.902 465.426 257.48C465.426 257.004 465.266 256.617 464.945 256.32C464.625 256.023 464.195 255.875 463.656 255.875C463.164 255.875 462.75 256.027 462.414 256.332C462.078 256.621 461.91 256.992 461.91 257.445C461.91 257.977 462.121 258.5 462.543 259.016L463.223 259.836C463.246 259.875 463.293 259.934 463.363 260.012ZM482.793 272V252.676L495.988 266.48V253.906H498.719V273.102L485.523 259.332V272H482.793ZM513.238 266.914H505.059C505.129 267.852 505.434 268.598 505.973 269.152C506.512 269.699 507.203 269.973 508.047 269.973C508.703 269.973 509.246 269.816 509.676 269.504C510.098 269.191 510.578 268.613 511.117 267.77L513.344 269.012C513 269.598 512.637 270.102 512.254 270.523C511.871 270.938 511.461 271.281 511.023 271.555C510.586 271.82 510.113 272.016 509.605 272.141C509.098 272.266 508.547 272.328 507.953 272.328C506.25 272.328 504.883 271.781 503.852 270.688C502.82 269.586 502.305 268.125 502.305 266.305C502.305 264.5 502.805 263.039 503.805 261.922C504.812 260.82 506.148 260.27 507.812 260.27C509.492 260.27 510.82 260.805 511.797 261.875C512.766 262.938 513.25 264.41 513.25 266.293L513.238 266.914ZM510.531 264.758C510.164 263.352 509.277 262.648 507.871 262.648C507.551 262.648 507.25 262.699 506.969 262.801C506.688 262.895 506.43 263.035 506.195 263.223C505.969 263.402 505.773 263.621 505.609 263.879C505.445 264.137 505.32 264.43 505.234 264.758H510.531ZM526.527 266.914H518.348C518.418 267.852 518.723 268.598 519.262 269.152C519.801 269.699 520.492 269.973 521.336 269.973C521.992 269.973 522.535 269.816 522.965 269.504C523.387 269.191 523.867 268.613 524.406 267.77L526.633 269.012C526.289 269.598 525.926 270.102 525.543 270.523C525.16 270.938 524.75 271.281 524.312 271.555C523.875 271.82 523.402 272.016 522.895 272.141C522.387 272.266 521.836 272.328 521.242 272.328C519.539 272.328 518.172 271.781 517.141 270.688C516.109 269.586 515.594 268.125 515.594 266.305C515.594 264.5 516.094 263.039 517.094 261.922C518.102 260.82 519.438 260.27 521.102 260.27C522.781 260.27 524.109 260.805 525.086 261.875C526.055 262.938 526.539 264.41 526.539 266.293L526.527 266.914ZM523.82 264.758C523.453 263.352 522.566 262.648 521.16 262.648C520.84 262.648 520.539 262.699 520.258 262.801C519.977 262.895 519.719 263.035 519.484 263.223C519.258 263.402 519.062 263.621 518.898 263.879C518.734 264.137 518.609 264.43 518.523 264.758H523.82ZM537.836 252.207H540.484V272H537.836V270.805C536.797 271.82 535.621 272.328 534.309 272.328C532.746 272.328 531.449 271.758 530.418 270.617C529.395 269.453 528.883 268 528.883 266.258C528.883 264.555 529.395 263.133 530.418 261.992C531.434 260.844 532.711 260.27 534.25 260.27C535.586 260.27 536.781 260.816 537.836 261.91V252.207ZM531.578 266.258C531.578 267.352 531.871 268.242 532.457 268.93C533.059 269.625 533.816 269.973 534.73 269.973C535.707 269.973 536.496 269.637 537.098 268.965C537.699 268.27 538 267.387 538 266.316C538 265.246 537.699 264.363 537.098 263.668C536.496 262.988 535.715 262.648 534.754 262.648C533.848 262.648 533.09 262.992 532.48 263.68C531.879 264.375 531.578 265.234 531.578 266.258ZM550.445 262.531L548.266 263.691C547.922 262.988 547.496 262.637 546.988 262.637C546.746 262.637 546.539 262.719 546.367 262.883C546.195 263.039 546.109 263.242 546.109 263.492C546.109 263.93 546.617 264.363 547.633 264.793C549.031 265.395 549.973 265.949 550.457 266.457C550.941 266.965 551.184 267.648 551.184 268.508C551.184 269.609 550.777 270.531 549.965 271.273C549.176 271.977 548.223 272.328 547.105 272.328C545.191 272.328 543.836 271.395 543.039 269.527L545.289 268.484C545.602 269.031 545.84 269.379 546.004 269.527C546.324 269.824 546.707 269.973 547.152 269.973C548.043 269.973 548.488 269.566 548.488 268.754C548.488 268.285 548.145 267.848 547.457 267.441C547.191 267.309 546.926 267.18 546.66 267.055C546.395 266.93 546.125 266.801 545.852 266.668C545.086 266.293 544.547 265.918 544.234 265.543C543.836 265.066 543.637 264.453 543.637 263.703C543.637 262.711 543.977 261.891 544.656 261.242C545.352 260.594 546.195 260.27 547.188 260.27C548.648 260.27 549.734 261.023 550.445 262.531Z" fill="#39374D"/>
</g>
<g id="Group 626613">
<g id="Group 29200">
<g id="Group 29155">
<circle id="Ellipse 8_2" cx="475" cy="126.5" r="56.5" fill="#CAF1E9"/>
</g>
<g id="Group 29156">
<circle id="Ellipse 21_3" cx="418" cy="79.5" r="11.5" fill="#173E62"/>
<path id="2" d="M417.845 83.222C417.826 83.2407 417.822 83.2593 417.831 83.278C417.84 83.2967 417.859 83.306 417.887 83.306H421.681C421.728 83.306 421.765 83.3247 421.793 83.362C421.83 83.39 421.849 83.4273 421.849 83.474V84.832C421.849 84.8787 421.83 84.9207 421.793 84.958C421.765 84.986 421.728 85 421.681 85H415.381C415.334 85 415.292 84.986 415.255 84.958C415.227 84.9207 415.213 84.8787 415.213 84.832V83.544C415.213 83.46 415.241 83.39 415.297 83.334C415.754 82.886 416.221 82.4007 416.697 81.878C417.173 81.346 417.472 81.0147 417.593 80.884C417.854 80.576 418.12 80.282 418.391 80.002C419.24 79.0593 419.665 78.3593 419.665 77.902C419.665 77.5753 419.548 77.3093 419.315 77.104C419.082 76.8893 418.778 76.782 418.405 76.782C418.032 76.782 417.728 76.8893 417.495 77.104C417.262 77.3093 417.145 77.5847 417.145 77.93V78.28C417.145 78.3267 417.126 78.3687 417.089 78.406C417.061 78.434 417.024 78.448 416.977 78.448H415.325C415.278 78.448 415.236 78.434 415.199 78.406C415.171 78.3687 415.157 78.3267 415.157 78.28V77.622C415.185 77.118 415.344 76.6747 415.633 76.292C415.922 75.9 416.305 75.6013 416.781 75.396C417.266 75.1907 417.808 75.088 418.405 75.088C419.068 75.088 419.642 75.214 420.127 75.466C420.622 75.7087 421 76.04 421.261 76.46C421.532 76.88 421.667 77.3467 421.667 77.86C421.667 78.252 421.569 78.6533 421.373 79.064C421.177 79.4747 420.883 79.918 420.491 80.394C420.202 80.758 419.889 81.1173 419.553 81.472C419.217 81.8267 418.718 82.34 418.055 83.012L417.845 83.222Z" fill="#FAFAFA"/>
</g>
</g>
<g id="Group_2">
<path id="Vector_14" d="M485.394 150.572V147.471C485.398 146.005 484.996 144.566 484.233 143.319C483.47 142.071 482.376 141.065 481.076 140.414L473.635 136.655C473.197 136.437 472.921 135.984 472.925 135.49V133.101C473.064 132.926 473.202 132.733 473.346 132.518V132.518C474.31 131.142 475.086 129.64 475.652 128.054C476.246 127.711 476.74 127.216 477.084 126.619C477.428 126.021 477.611 125.342 477.612 124.651V121.515C477.608 120.674 477.335 119.857 476.834 119.185V117.18C476.99 115.109 476.336 113.058 475.012 111.469C473.283 109.446 470.464 108.421 466.706 108.421C462.947 108.421 460.157 109.446 458.399 111.469C457.071 113.046 456.416 115.091 456.578 117.156V119.173C456.077 119.845 455.804 120.662 455.799 121.504V124.657C455.789 125.763 456.244 126.822 457.05 127.571C457.593 129.549 458.481 131.414 459.673 133.077V135.408C459.684 135.893 459.426 136.343 459.005 136.574L452.07 140.391C450.838 141.069 449.809 142.071 449.093 143.29C448.377 144.51 448 145.901 448 147.32V150.572C448 151.054 448.387 151.446 448.865 151.446H484.529C485.007 151.446 485.394 151.054 485.394 150.572L485.394 150.572ZM483.665 149.698L449.73 149.697V147.32C449.729 146.217 450.023 145.134 450.58 144.185C451.136 143.236 451.936 142.457 452.894 141.929L459.846 138.095C460.319 137.831 460.713 137.444 460.987 136.973C461.261 136.502 461.404 135.966 461.403 135.42V132.786C461.404 132.592 461.34 132.404 461.224 132.25C460.025 130.635 459.147 128.8 458.642 126.848C458.594 126.66 458.486 126.494 458.336 126.376C457.812 125.965 457.506 125.332 457.506 124.662V121.515C457.513 120.976 457.718 120.459 458.082 120.065C458.224 119.904 458.302 119.697 458.301 119.482V117.11C458.303 117.077 458.303 117.044 458.301 117.011C458.173 115.423 458.665 113.847 459.673 112.623C461.085 110.997 463.443 110.17 466.677 110.17C469.911 110.17 472.268 110.997 473.681 112.623C474.707 113.85 475.211 115.438 475.082 117.04C475.08 117.073 475.08 117.106 475.082 117.139V119.47C475.081 119.685 475.159 119.892 475.301 120.053C475.665 120.447 475.87 120.964 475.877 121.504V124.657C475.876 125.077 475.755 125.489 475.528 125.841C475.301 126.194 474.977 126.472 474.597 126.644C474.377 126.743 474.208 126.931 474.13 127.162C473.612 128.724 472.872 130.202 471.934 131.55C471.749 131.813 471.565 132.057 471.398 132.267C471.265 132.431 471.195 132.638 471.202 132.85V135.542C471.201 136.108 471.356 136.663 471.65 137.143C471.945 137.624 472.367 138.013 472.868 138.264L480.304 141.982C481.316 142.489 482.167 143.273 482.761 144.244C483.355 145.215 483.668 146.335 483.665 147.477L483.665 149.698Z" fill="black"/>
<path id="Vector_15" d="M497.573 117.564C498.872 117.563 500.117 117.04 501.035 116.112C501.954 115.183 502.471 113.924 502.473 112.611V104.953C502.471 103.64 501.954 102.381 501.035 101.452C500.117 100.524 498.872 100.002 497.573 100H484.689C483.39 100.002 482.145 100.524 481.226 101.452C480.307 102.381 479.791 103.64 479.789 104.953V121.27C479.789 121.62 479.995 121.935 480.312 122.073C480.629 122.211 480.997 122.145 481.247 121.906L485.819 117.564L497.573 117.564ZM484.891 116.055L481.518 119.249V104.953C481.52 104.104 481.855 103.29 482.449 102.689C483.043 102.088 483.849 101.75 484.689 101.749H497.572C498.413 101.75 499.218 102.088 499.813 102.689C500.407 103.29 500.741 104.104 500.743 104.953V112.611C500.741 113.461 500.407 114.275 499.813 114.876C499.218 115.476 498.413 115.815 497.572 115.816H485.467C485.25 115.819 485.043 115.904 484.885 116.055L484.891 116.055Z" fill="black"/>
<path id="Vector_16" d="M485.611 107.162H489.456C489.934 107.162 490.32 106.771 490.32 106.288C490.32 105.806 489.934 105.414 489.456 105.414H485.611C485.133 105.414 484.746 105.806 484.746 106.288C484.746 106.771 485.133 107.162 485.611 107.162Z" fill="black"/>
<path id="Vector_17" d="M495.209 110.075H485.611C485.133 110.075 484.746 110.467 484.746 110.949C484.746 111.432 485.133 111.824 485.611 111.824H495.209C495.686 111.824 496.073 111.432 496.073 110.949C496.073 110.467 495.686 110.075 495.209 110.075Z" fill="black"/>
</g>
</g>
</g>
</g>
<g id="Group 626615">
<g id="Group 29202_2">
<g id="Group 29154_2">
<circle id="Ellipse 9_2" cx="812" cy="73.5" r="56.5" fill="#CAF1E9"/>
</g>
<g id="Group 29157_2">
<circle id="Ellipse 21_4" cx="774" cy="11.5" r="11.5" fill="#173E62"/>
<path id="3" d="M777.398 12.324C777.584 12.7533 777.678 13.248 777.678 13.808C777.678 14.312 777.594 14.7787 777.426 15.208C777.202 15.8053 776.824 16.272 776.292 16.608C775.769 16.944 775.148 17.112 774.43 17.112C773.72 17.112 773.095 16.9347 772.554 16.58C772.022 16.2253 771.639 15.7447 771.406 15.138C771.275 14.774 771.2 14.382 771.182 13.962C771.182 13.85 771.238 13.794 771.35 13.794H773.002C773.114 13.794 773.17 13.85 773.17 13.962C773.207 14.27 773.258 14.4987 773.324 14.648C773.408 14.8907 773.543 15.082 773.73 15.222C773.926 15.3527 774.154 15.418 774.416 15.418C774.938 15.418 775.298 15.1893 775.494 14.732C775.624 14.452 775.69 14.1253 775.69 13.752C775.69 13.3133 775.62 12.954 775.48 12.674C775.265 12.2353 774.906 12.016 774.402 12.016C774.299 12.016 774.192 12.0487 774.08 12.114C773.968 12.17 773.832 12.254 773.674 12.366C773.636 12.394 773.599 12.408 773.562 12.408C773.506 12.408 773.464 12.38 773.436 12.324L772.61 11.162C772.591 11.134 772.582 11.1013 772.582 11.064C772.582 11.008 772.6 10.9613 772.638 10.924L774.864 8.978C774.882 8.95933 774.887 8.94067 774.878 8.922C774.878 8.90333 774.864 8.894 774.836 8.894H771.546C771.499 8.894 771.457 8.88 771.42 8.852C771.392 8.81467 771.378 8.77267 771.378 8.726V7.368C771.378 7.32133 771.392 7.284 771.42 7.256C771.457 7.21867 771.499 7.2 771.546 7.2H777.384C777.43 7.2 777.468 7.21867 777.496 7.256C777.533 7.284 777.552 7.32133 777.552 7.368V8.908C777.552 8.98267 777.519 9.05267 777.454 9.118L775.62 10.798C775.601 10.8167 775.592 10.8353 775.592 10.854C775.601 10.8727 775.624 10.882 775.662 10.882C776.474 11.0407 777.052 11.5213 777.398 12.324Z" fill="#FAFAFA"/>
</g>
</g>
<path id="Vector_18" d="M811.497 47C809.644 47 808.089 48.2993 807.67 50.0286H792.521V48.0994C792.519 47.5948 792.108 47.1872 791.604 47.1893H785.91C785.881 47.188 785.852 47.188 785.823 47.1893C785.355 47.2362 785 47.6298 785 48.0994V53.7927C785.002 54.2949 785.408 54.7012 785.91 54.7032H791.604C792.109 54.7049 792.519 54.2973 792.521 53.7927V51.8562H803.472C797.252 54.8399 792.972 61.1806 792.972 68.551V70.0751C791.241 70.4945 789.936 72.0536 789.936 73.9069C789.936 76.0772 791.719 77.853 793.89 77.853C796.06 77.853 797.836 76.0772 797.836 73.9069C797.836 72.0511 796.533 70.4899 794.8 70.073V68.5506C794.8 60.7951 800.015 54.3298 807.138 52.4239L807.138 52.4243C807.38 52.3615 807.586 52.202 807.707 51.9833C808.168 53.651 809.687 54.8923 811.496 54.8923C813.307 54.8923 814.832 53.6485 815.293 51.978C815.411 52.1966 815.613 52.3578 815.853 52.4243C822.976 54.3306 828.199 60.7961 828.199 68.551V70.0734C826.466 70.4903 825.163 72.0515 825.163 73.9073C825.163 76.0775 826.938 77.8533 829.109 77.8533C831.279 77.8533 833.062 76.0775 833.062 73.9073C833.062 72.054 831.757 70.4948 830.026 70.0755V68.5514C830.026 61.1815 825.742 54.8402 819.521 51.8566H830.477V53.7931L830.477 53.7927C830.479 54.2973 830.89 54.7048 831.394 54.7032H837.083C837.587 54.7048 837.998 54.2973 838 53.7927V48.0993C837.998 47.5947 837.587 47.1872 837.083 47.1892H831.394C831.363 47.1876 831.332 47.1876 831.301 47.1892H831.3C830.832 47.2361 830.477 47.6298 830.477 48.0993V50.0286L815.328 50.029C814.908 48.2993 813.349 47.0004 811.496 47.0004L811.497 47ZM811.497 48.8207C812.68 48.8207 813.621 49.7639 813.621 50.9465C813.621 52.1291 812.679 53.0649 811.497 53.0649C810.314 53.0649 809.379 52.1291 809.379 50.9465C809.379 49.7638 810.314 48.8207 811.497 48.8207ZM786.828 49.0169H790.694V50.8625C790.69 50.9135 790.69 50.9649 790.694 51.0159V52.8757H786.828V49.0169ZM832.308 49.0169H836.172V52.8757H832.308V51.0068C832.31 50.9689 832.31 50.9305 832.308 50.8926V49.0169ZM811.512 58.396C811.48 58.3952 811.448 58.3965 811.417 58.3993H811.415C811.099 58.4287 810.82 58.6208 810.68 58.906L799.887 80.4977H799.888C799.743 80.7862 799.762 81.1296 799.936 81.4009L804.596 88.5987H803.382C803.137 88.5934 802.899 88.6873 802.723 88.8594C802.547 89.0312 802.448 89.2665 802.448 89.5125C802.448 89.7585 802.547 89.9943 802.723 90.1661C802.899 90.3382 803.137 90.432 803.382 90.4263H805.332V99.0809C805.33 99.3248 805.426 99.559 805.598 99.7316C805.771 99.9041 806.005 100.001 806.249 100H816.752C816.996 100.001 817.23 99.9041 817.402 99.7316C817.575 99.559 817.671 99.3248 817.669 99.0809V90.4267H819.618L819.618 90.4263C819.864 90.4321 820.102 90.3382 820.278 90.1661C820.453 89.9943 820.553 89.7585 820.553 89.5125C820.553 89.2665 820.453 89.0312 820.278 88.8594C820.102 88.6873 819.864 88.5934 819.618 88.5987H818.406L823.066 81.4009C823.24 81.1292 823.258 80.7858 823.113 80.4977L812.321 58.906C812.168 58.5972 811.856 58.4001 811.512 58.3957L811.512 58.396ZM810.587 63.1792V75.4262C810.598 75.9231 811.004 76.32 811.501 76.32C811.998 76.32 812.404 75.9231 812.415 75.4262V63.1939L821.244 80.8432L816.232 88.5999H806.768L801.749 80.8432L810.587 63.1792ZM793.89 71.7837C795.073 71.7837 796.009 72.7252 796.009 73.9074C796.009 75.0901 795.073 76.0259 793.89 76.0259C792.707 76.0259 791.766 75.0901 791.766 73.9074C791.766 72.7248 792.708 71.7837 793.89 71.7837ZM829.109 71.7837C830.291 71.7837 831.235 72.7252 831.235 73.9074C831.235 75.0901 830.291 76.0259 829.109 76.0259C827.926 76.0259 826.99 75.0901 826.99 73.9074C826.99 72.7248 827.926 71.7837 829.109 71.7837ZM807.16 90.4272H815.841V98.1712H807.16V90.4272Z" fill="black"/>
</g>
</g>
<g id="Group 626625">
<g id="Group 626619">
<g id="Group 29202_3">
<g id="Frame 29295_3">
<path id="general concept_5" d="M516.855 568.906V579.805C516.855 581.359 517.109 582.496 517.617 583.215C518.375 584.254 519.441 584.773 520.816 584.773C522.199 584.773 523.27 584.254 524.027 583.215C524.535 582.52 524.789 581.383 524.789 579.805V568.906H527.52V580.555C527.52 582.461 526.926 584.031 525.738 585.266C524.402 586.641 522.762 587.328 520.816 587.328C518.871 587.328 517.234 586.641 515.906 585.266C514.719 584.031 514.125 582.461 514.125 580.555V568.906H516.855ZM541.723 582.605H533.977L531.961 587H529.02L537.973 567.77L546.609 587H543.621L541.723 582.605ZM540.609 580.039L537.926 573.887L535.113 580.039H540.609ZM552.867 571.473V587H550.137V571.473H545.977V568.906H557.016V571.473H552.867ZM577.488 582.605H569.742L567.727 587H564.785L573.738 567.77L582.375 587H579.387L577.488 582.605ZM576.375 580.039L573.691 573.887L570.879 580.039H576.375ZM584.145 575.586H586.793V576.641C587.715 575.727 588.754 575.27 589.91 575.27C591.238 575.27 592.273 575.688 593.016 576.523C593.656 577.234 593.977 578.395 593.977 580.004V587H591.328V580.625C591.328 579.5 591.172 578.723 590.859 578.293C590.555 577.855 590 577.637 589.195 577.637C588.32 577.637 587.699 577.926 587.332 578.504C586.973 579.074 586.793 580.07 586.793 581.492V587H584.145V575.586ZM605.73 567.207H608.379V587H605.73V585.805C604.691 586.82 603.516 587.328 602.203 587.328C600.641 587.328 599.344 586.758 598.312 585.617C597.289 584.453 596.777 583 596.777 581.258C596.777 579.555 597.289 578.133 598.312 576.992C599.328 575.844 600.605 575.27 602.145 575.27C603.48 575.27 604.676 575.816 605.73 576.91V567.207ZM599.473 581.258C599.473 582.352 599.766 583.242 600.352 583.93C600.953 584.625 601.711 584.973 602.625 584.973C603.602 584.973 604.391 584.637 604.992 583.965C605.594 583.27 605.895 582.387 605.895 581.316C605.895 580.246 605.594 579.363 604.992 578.668C604.391 577.988 603.609 577.648 602.648 577.648C601.742 577.648 600.984 577.992 600.375 578.68C599.773 579.375 599.473 580.234 599.473 581.258ZM524.848 603.473V619H522.117V603.473H517.957V600.906H528.996V603.473H524.848ZM530.109 607.586H532.746V608.605C533.23 608.098 533.66 607.75 534.035 607.562C534.418 607.367 534.871 607.27 535.395 607.27C536.09 607.27 536.816 607.496 537.574 607.949L536.367 610.363C535.867 610.004 535.379 609.824 534.902 609.824C533.465 609.824 532.746 610.91 532.746 613.082V619H530.109V607.586ZM547.336 607.586H549.984V619H547.336V617.805C546.25 618.82 545.082 619.328 543.832 619.328C542.254 619.328 540.949 618.758 539.918 617.617C538.895 616.453 538.383 615 538.383 613.258C538.383 611.547 538.895 610.121 539.918 608.98C540.941 607.84 542.223 607.27 543.762 607.27C545.09 607.27 546.281 607.816 547.336 608.91V607.586ZM541.078 613.258C541.078 614.352 541.371 615.242 541.957 615.93C542.559 616.625 543.316 616.973 544.23 616.973C545.207 616.973 545.996 616.637 546.598 615.965C547.199 615.27 547.5 614.387 547.5 613.316C547.5 612.246 547.199 611.363 546.598 610.668C545.996 609.988 545.215 609.648 544.254 609.648C543.348 609.648 542.59 609.992 541.98 610.68C541.379 611.375 541.078 612.234 541.078 613.258ZM555.949 607.586V619H553.312V607.586H555.949ZM552.914 602.84C552.914 602.379 553.082 601.98 553.418 601.645C553.754 601.309 554.156 601.141 554.625 601.141C555.102 601.141 555.508 601.309 555.844 601.645C556.18 601.973 556.348 602.375 556.348 602.852C556.348 603.328 556.18 603.734 555.844 604.07C555.516 604.406 555.113 604.574 554.637 604.574C554.16 604.574 553.754 604.406 553.418 604.07C553.082 603.734 552.914 603.324 552.914 602.84ZM559.289 607.586H561.938V608.641C562.859 607.727 563.898 607.27 565.055 607.27C566.383 607.27 567.418 607.688 568.16 608.523C568.801 609.234 569.121 610.395 569.121 612.004V619H566.473V612.625C566.473 611.5 566.316 610.723 566.004 610.293C565.699 609.855 565.145 609.637 564.34 609.637C563.465 609.637 562.844 609.926 562.477 610.504C562.117 611.074 561.938 612.07 561.938 613.492V619H559.289V607.586ZM575.098 607.586V619H572.461V607.586H575.098ZM572.062 602.84C572.062 602.379 572.23 601.98 572.566 601.645C572.902 601.309 573.305 601.141 573.773 601.141C574.25 601.141 574.656 601.309 574.992 601.645C575.328 601.973 575.496 602.375 575.496 602.852C575.496 603.328 575.328 603.734 574.992 604.07C574.664 604.406 574.262 604.574 573.785 604.574C573.309 604.574 572.902 604.406 572.566 604.07C572.23 603.734 572.062 603.324 572.062 602.84ZM578.438 607.586H581.086V608.641C582.008 607.727 583.047 607.27 584.203 607.27C585.531 607.27 586.566 607.688 587.309 608.523C587.949 609.234 588.27 610.395 588.27 612.004V619H585.621V612.625C585.621 611.5 585.465 610.723 585.152 610.293C584.848 609.855 584.293 609.637 583.488 609.637C582.613 609.637 581.992 609.926 581.625 610.504C581.266 611.074 581.086 612.07 581.086 613.492V619H578.438V607.586ZM602.648 618.73C602.648 619.27 602.629 619.742 602.59 620.148C602.559 620.562 602.512 620.926 602.449 621.238C602.262 622.098 601.895 622.836 601.348 623.453C600.316 624.641 598.898 625.234 597.094 625.234C595.57 625.234 594.316 624.824 593.332 624.004C592.316 623.16 591.73 621.992 591.574 620.5H594.223C594.324 621.062 594.492 621.496 594.727 621.801C595.273 622.512 596.07 622.867 597.117 622.867C599.047 622.867 600.012 621.684 600.012 619.316V617.723C598.965 618.793 597.758 619.328 596.391 619.328C594.836 619.328 593.562 618.766 592.57 617.641C591.57 616.5 591.07 615.074 591.07 613.363C591.07 611.699 591.535 610.285 592.465 609.121C593.465 607.887 594.785 607.27 596.426 607.27C597.863 607.27 599.059 607.805 600.012 608.875V607.586H602.648V618.73ZM600.117 613.316C600.117 612.207 599.82 611.32 599.227 610.656C598.625 609.977 597.855 609.637 596.918 609.637C595.918 609.637 595.129 610.008 594.551 610.75C594.027 611.414 593.766 612.273 593.766 613.328C593.766 614.367 594.027 615.219 594.551 615.883C595.121 616.609 595.91 616.973 596.918 616.973C597.926 616.973 598.723 616.605 599.309 615.871C599.848 615.207 600.117 614.355 600.117 613.316Z" fill="#39374D"/>
</g>
</g>
<g id="Group 626611">
<g id="Group 626610">
<g id="Group 626616">
<g id="Group 29157_3">
<circle id="Ellipse 21_5" cx="519.5" cy="411.5" r="11.5" fill="#173E62"/>
<path id="5" d="M522.101 412.534C522.241 412.991 522.311 413.435 522.311 413.864C522.311 414.34 522.236 414.769 522.087 415.152C521.872 415.749 521.494 416.225 520.953 416.58C520.411 416.925 519.777 417.098 519.049 417.098C518.339 417.098 517.714 416.93 517.173 416.594C516.641 416.249 516.263 415.782 516.039 415.194C515.945 414.951 515.875 414.695 515.829 414.424V414.396C515.829 414.293 515.885 414.242 515.997 414.242H517.691C517.784 414.242 517.845 414.293 517.873 414.396C517.882 414.452 517.896 414.499 517.915 414.536C517.933 414.573 517.947 414.606 517.957 414.634C518.05 414.877 518.19 415.063 518.377 415.194C518.563 415.325 518.783 415.39 519.035 415.39C519.296 415.39 519.525 415.32 519.721 415.18C519.917 415.04 520.061 414.844 520.155 414.592C520.248 414.405 520.295 414.163 520.295 413.864C520.295 413.593 520.253 413.351 520.169 413.136C520.103 412.893 519.973 412.707 519.777 412.576C519.581 412.445 519.352 412.38 519.091 412.38C518.829 412.38 518.587 412.441 518.363 412.562C518.139 412.683 517.989 412.842 517.915 413.038C517.887 413.131 517.826 413.178 517.733 413.178H516.011C515.964 413.178 515.922 413.164 515.885 413.136C515.857 413.099 515.843 413.057 515.843 413.01V407.368C515.843 407.321 515.857 407.284 515.885 407.256C515.922 407.219 515.964 407.2 516.011 407.2H521.793C521.839 407.2 521.877 407.219 521.905 407.256C521.942 407.284 521.961 407.321 521.961 407.368V408.726C521.961 408.773 521.942 408.815 521.905 408.852C521.877 408.88 521.839 408.894 521.793 408.894H517.887C517.84 408.894 517.817 408.917 517.817 408.964L517.803 411.036C517.803 411.101 517.831 411.115 517.887 411.078C518.307 410.807 518.792 410.672 519.343 410.672C519.996 410.672 520.565 410.84 521.051 411.176C521.545 411.503 521.895 411.955 522.101 412.534Z" fill="#FAFAFA"/>
</g>
<circle id="Ellipse 9_3" cx="557.5" cy="473.5" r="56.5" fill="#CAF1E9"/>
<g id="Group_3">
<path id="Vector_19" d="M535.734 492.517H544.541C544.735 492.517 544.922 492.44 545.06 492.302C545.197 492.164 545.274 491.978 545.274 491.783V486.646C545.271 485.766 544.951 484.915 544.373 484.251C543.795 483.587 542.998 483.153 542.126 483.028C542.868 482.468 543.34 481.622 543.426 480.697C543.511 479.772 543.204 478.854 542.578 478.167C541.952 477.48 541.066 477.089 540.137 477.089C539.208 477.089 538.322 477.48 537.696 478.167C537.071 478.854 536.763 479.772 536.849 480.697C536.935 481.622 537.407 482.468 538.149 483.028C537.277 483.153 536.479 483.587 535.901 484.251C535.323 484.915 535.003 485.766 535 486.646V491.783C535 491.978 535.077 492.164 535.215 492.302C535.353 492.44 535.539 492.517 535.734 492.517V492.517ZM540.137 478.573C540.624 478.573 541.091 478.766 541.435 479.11C541.779 479.454 541.972 479.921 541.972 480.408C541.972 480.894 541.779 481.361 541.435 481.705C541.091 482.049 540.624 482.243 540.137 482.243C539.651 482.243 539.184 482.049 538.84 481.705C538.496 481.361 538.302 480.894 538.302 480.408C538.302 479.921 538.496 479.454 538.84 479.11C539.184 478.766 539.651 478.573 540.137 478.573ZM536.468 486.646C536.468 486.062 536.7 485.502 537.113 485.089C537.525 484.676 538.086 484.444 538.669 484.444H541.605C542.189 484.444 542.749 484.676 543.162 485.089C543.575 485.502 543.807 486.062 543.807 486.646V491.049H536.468L536.468 486.646Z" fill="black"/>
<path id="Vector_20" d="M549.68 469.033H551.147V470.501H549.68V469.033Z" fill="black"/>
<path id="Vector_21" d="M564.355 469.033H565.823V470.501H564.355V469.033Z" fill="black"/>
<path id="Vector_22" d="M557.016 461.694H558.483V463.162H557.016V461.694Z" fill="black"/>
<path id="Vector_23" d="M551.52 464.579L552.557 463.541L553.595 464.579L552.557 465.617L551.52 464.579Z" fill="black"/>
<path id="Vector_24" d="M561.902 474.956L562.94 473.918L563.978 474.956L562.94 475.994L561.902 474.956Z" fill="black"/>
<path id="Vector_25" d="M551.52 474.954L552.557 473.916L553.595 474.954L552.557 475.992L551.52 474.954Z" fill="black"/>
<path id="Vector_26" d="M561.902 464.579L562.94 463.541L563.978 464.579L562.94 465.617L561.902 464.579Z" fill="black"/>
<path id="Vector_27" d="M552.737 468.607C552.489 469.68 552.593 470.804 553.033 471.814C553.473 472.823 554.226 473.665 555.181 474.214V476.005C555.181 476.922 555.67 477.77 556.465 478.229C557.26 478.688 558.239 478.688 559.034 478.229C559.828 477.77 560.318 476.922 560.318 476.005V474.214C561.814 473.346 562.774 471.783 562.87 470.056C562.966 468.328 562.186 466.669 560.796 465.64C559.404 464.611 557.589 464.351 555.966 464.949C554.342 465.547 553.128 466.922 552.737 468.607L552.737 468.607ZM558.85 476.005C558.85 476.613 558.357 477.106 557.749 477.106C557.141 477.106 556.648 476.613 556.648 476.005V475.638H558.85V476.005ZM557.749 466.098C558.873 466.099 559.934 466.614 560.628 467.497C561.324 468.38 561.576 469.532 561.313 470.624C561.051 471.717 560.303 472.628 559.283 473.099C559.023 473.219 558.857 473.48 558.857 473.767V474.171H556.656V473.767C556.657 473.48 556.49 473.219 556.23 473.099C555.295 472.668 554.584 471.864 554.27 470.883C553.957 469.902 554.071 468.834 554.583 467.941C555.095 467.048 555.959 466.411 556.964 466.186C557.222 466.129 557.485 466.099 557.749 466.098L557.749 466.098Z" fill="black"/>
<path id="Vector_28" d="M577.353 452.939C578.094 452.379 578.566 451.533 578.652 450.608C578.738 449.683 578.43 448.765 577.805 448.078C577.179 447.391 576.293 447 575.364 447C574.435 447 573.549 447.391 572.923 448.078C572.297 448.765 571.989 449.683 572.075 450.608C572.162 451.533 572.633 452.379 573.375 452.939C572.503 453.064 571.706 453.498 571.128 454.162C570.55 454.826 570.23 455.677 570.227 456.557V461.694C570.227 461.889 570.304 462.076 570.441 462.213C570.579 462.351 570.766 462.428 570.96 462.428H579.767C579.962 462.428 580.148 462.351 580.286 462.213C580.424 462.076 580.501 461.889 580.501 461.694V456.557C580.498 455.677 580.178 454.826 579.6 454.162C579.022 453.498 578.224 453.064 577.353 452.939ZM575.364 448.484C575.85 448.484 576.317 448.678 576.661 449.022C577.005 449.366 577.199 449.832 577.199 450.319C577.199 450.806 577.005 451.272 576.661 451.616C576.317 451.96 575.85 452.154 575.364 452.154C574.877 452.154 574.41 451.96 574.066 451.616C573.722 451.272 573.529 450.806 573.529 450.319C573.529 449.832 573.722 449.366 574.066 449.022C574.41 448.677 574.877 448.484 575.364 448.484ZM579.033 460.96H571.694V456.557C571.694 455.973 571.926 455.413 572.339 455C572.752 454.587 573.312 454.355 573.896 454.355H576.832C577.415 454.355 577.976 454.587 578.388 455C578.801 455.413 579.033 455.973 579.033 456.557L579.033 460.96Z" fill="black"/>
<path id="Vector_29" d="M576.099 477.473C576.097 479.322 575.362 481.094 574.055 482.401C572.748 483.708 570.976 484.443 569.127 484.445H548.211V485.913H569.127C572.142 485.913 574.929 484.304 576.436 481.693C577.944 479.082 577.944 475.865 576.436 473.254C574.929 470.643 572.142 469.034 569.127 469.034H568.76V470.502H569.127C570.976 470.504 572.748 471.239 574.055 472.546C575.362 473.853 576.097 475.625 576.099 477.474V477.473Z" fill="black"/>
<path id="Vector_30" d="M546.377 470.501H546.744V469.033H546.377C543.886 469.033 541.585 467.704 540.339 465.547C539.094 463.39 539.094 460.732 540.339 458.575C541.585 456.418 543.886 455.089 546.377 455.089H564.233L562.472 456.322L563.308 457.526L566.978 454.957C567.174 454.82 567.292 454.595 567.292 454.355C567.292 454.115 567.174 453.89 566.978 453.753L563.308 451.185L562.472 452.388L564.233 453.621H546.377C543.362 453.621 540.576 455.23 539.068 457.841C537.561 460.452 537.561 463.67 539.068 466.28C540.576 468.892 543.362 470.5 546.377 470.5V470.501Z" fill="black"/>
</g>
</g>
</g>
</g>
</g>
</g>
<g id="Group 626631">
<g id="line">
<path id="Vector 24" d="M149 89.2132C170.123 118.671 258.878 174.003 444.911 159.672C513.975 125.836 673.044 61.2685 756.802 73.6884C832.296 61.9453 1001.03 60.5521 1072 148.924" stroke="#1F1D59" stroke-width="2" stroke-dasharray="14 14"/>
<path id="Vector 25" d="M159 478.35C167.124 489.945 201.261 511.725 272.812 506.084C299.375 492.765 360.555 467.35 392.77 472.239C421.806 467.617 486.702 467.068 514 501.853" stroke="#1F1D59" stroke-width="2" stroke-dasharray="14 14"/>
<path id="Vector 21" d="M1078.32 162.007C1113 355 810.501 613.5 613 498.5" stroke="#1F1D59" stroke-width="2" stroke-dasharray="12 12"/>
</g>
<g id="Group 626618">
<g id="Frame 29295_4">
<path id="general concept_6" d="M945.105 532V513.906H948.902C950.723 513.906 952.16 514.086 953.215 514.445C954.348 514.797 955.375 515.395 956.297 516.238C958.164 517.941 959.098 520.18 959.098 522.953C959.098 525.734 958.125 527.984 956.18 529.703C955.203 530.562 954.18 531.16 953.109 531.496C952.109 531.832 950.691 532 948.855 532H945.105ZM947.836 529.434H949.066C950.293 529.434 951.312 529.305 952.125 529.047C952.938 528.773 953.672 528.34 954.328 527.746C955.672 526.52 956.344 524.922 956.344 522.953C956.344 520.969 955.68 519.359 954.352 518.125C953.156 517.023 951.395 516.473 949.066 516.473H947.836V529.434ZM972.434 526.914H964.254C964.324 527.852 964.629 528.598 965.168 529.152C965.707 529.699 966.398 529.973 967.242 529.973C967.898 529.973 968.441 529.816 968.871 529.504C969.293 529.191 969.773 528.613 970.312 527.77L972.539 529.012C972.195 529.598 971.832 530.102 971.449 530.523C971.066 530.938 970.656 531.281 970.219 531.555C969.781 531.82 969.309 532.016 968.801 532.141C968.293 532.266 967.742 532.328 967.148 532.328C965.445 532.328 964.078 531.781 963.047 530.688C962.016 529.586 961.5 528.125 961.5 526.305C961.5 524.5 962 523.039 963 521.922C964.008 520.82 965.344 520.27 967.008 520.27C968.688 520.27 970.016 520.805 970.992 521.875C971.961 522.938 972.445 524.41 972.445 526.293L972.434 526.914ZM969.727 524.758C969.359 523.352 968.473 522.648 967.066 522.648C966.746 522.648 966.445 522.699 966.164 522.801C965.883 522.895 965.625 523.035 965.391 523.223C965.164 523.402 964.969 523.621 964.805 523.879C964.641 524.137 964.516 524.43 964.43 524.758H969.727ZM975.328 520.586H977.965V521.641C978.473 521.109 978.906 520.75 979.266 520.562C979.648 520.367 980.129 520.27 980.707 520.27C981.996 520.27 983.016 520.832 983.766 521.957C984.594 520.832 985.715 520.27 987.129 520.27C989.699 520.27 990.984 521.828 990.984 524.945V532H988.336V525.66C988.336 524.566 988.203 523.793 987.938 523.34C987.664 522.879 987.215 522.648 986.59 522.648C985.863 522.648 985.332 522.922 984.996 523.469C984.668 524.016 984.504 524.895 984.504 526.105V532H981.855V525.695C981.855 523.664 981.27 522.648 980.098 522.648C979.355 522.648 978.812 522.926 978.469 523.48C978.133 524.035 977.965 524.91 977.965 526.105V532H975.328V520.586ZM993.773 526.211C993.773 524.562 994.363 523.16 995.543 522.004C996.723 520.848 998.16 520.27 999.855 520.27C1001.56 520.27 1003 520.852 1004.19 522.016C1005.36 523.18 1005.95 524.609 1005.95 526.305C1005.95 528.016 1005.36 529.449 1004.18 530.605C1002.99 531.754 1001.54 532.328 999.809 532.328C998.098 532.328 996.664 531.742 995.508 530.57C994.352 529.414 993.773 527.961 993.773 526.211ZM996.469 526.258C996.469 527.398 996.773 528.301 997.383 528.965C998.008 529.637 998.832 529.973 999.855 529.973C1000.89 529.973 1001.71 529.641 1002.33 528.977C1002.95 528.312 1003.25 527.426 1003.25 526.316C1003.25 525.207 1002.95 524.32 1002.33 523.656C1001.7 522.984 1000.88 522.648 999.855 522.648C998.848 522.648 998.031 522.984 997.406 523.656C996.781 524.328 996.469 525.195 996.469 526.258ZM1015.76 522.871C1015.76 520.324 1016.69 518.137 1018.56 516.309C1020.42 514.48 1022.65 513.566 1025.26 513.566C1027.84 513.566 1030.05 514.488 1031.89 516.332C1033.75 518.176 1034.67 520.391 1034.67 522.977C1034.67 525.578 1033.74 527.785 1031.88 529.598C1030.02 531.418 1027.76 532.328 1025.12 532.328C1022.79 532.328 1020.69 531.52 1018.83 529.902C1016.78 528.113 1015.76 525.77 1015.76 522.871ZM1018.51 522.906C1018.51 524.906 1019.18 526.551 1020.53 527.84C1021.86 529.129 1023.41 529.773 1025.16 529.773C1027.05 529.773 1028.66 529.117 1029.96 527.805C1031.27 526.477 1031.92 524.859 1031.92 522.953C1031.92 521.023 1031.27 519.406 1029.98 518.102C1028.7 516.789 1027.12 516.133 1025.23 516.133C1023.34 516.133 1021.75 516.789 1020.46 518.102C1019.16 519.398 1018.51 521 1018.51 522.906ZM1040.33 523.047V532H1037.68V523.047H1036.75V520.586H1037.68V516.18C1037.68 514.742 1037.93 513.727 1038.43 513.133C1039.12 512.305 1040.12 511.891 1041.43 511.891C1041.9 511.891 1042.49 512.027 1043.2 512.301V514.996L1042.93 514.855C1042.36 514.566 1041.89 514.422 1041.53 514.422C1041.06 514.422 1040.74 514.59 1040.58 514.926C1040.41 515.254 1040.33 515.887 1040.33 516.824V520.586H1043.2V523.047H1040.33ZM947.203 556.184L941.297 545.906H944.438L948.574 553.137L952.723 545.906H955.863L949.934 556.184V564H947.203V556.184ZM955.277 558.211C955.277 556.562 955.867 555.16 957.047 554.004C958.227 552.848 959.664 552.27 961.359 552.27C963.062 552.27 964.508 552.852 965.695 554.016C966.867 555.18 967.453 556.609 967.453 558.305C967.453 560.016 966.863 561.449 965.684 562.605C964.496 563.754 963.039 564.328 961.312 564.328C959.602 564.328 958.168 563.742 957.012 562.57C955.855 561.414 955.277 559.961 955.277 558.211ZM957.973 558.258C957.973 559.398 958.277 560.301 958.887 560.965C959.512 561.637 960.336 561.973 961.359 561.973C962.391 561.973 963.215 561.641 963.832 560.977C964.449 560.312 964.758 559.426 964.758 558.316C964.758 557.207 964.449 556.32 963.832 555.656C963.207 554.984 962.383 554.648 961.359 554.648C960.352 554.648 959.535 554.984 958.91 555.656C958.285 556.328 957.973 557.195 957.973 558.258ZM972.891 552.586V559.137C972.891 561.027 973.637 561.973 975.129 561.973C976.621 561.973 977.367 561.027 977.367 559.137V552.586H980.004V559.195C980.004 560.109 979.891 560.898 979.664 561.562C979.445 562.156 979.066 562.691 978.527 563.168C977.637 563.941 976.504 564.328 975.129 564.328C973.762 564.328 972.633 563.941 971.742 563.168C971.195 562.691 970.809 562.156 970.582 561.562C970.363 561.031 970.254 560.242 970.254 559.195V552.586H972.891ZM983.332 552.586H985.969V553.605C986.453 553.098 986.883 552.75 987.258 552.562C987.641 552.367 988.094 552.27 988.617 552.27C989.312 552.27 990.039 552.496 990.797 552.949L989.59 555.363C989.09 555.004 988.602 554.824 988.125 554.824C986.688 554.824 985.969 555.91 985.969 558.082V564H983.332V552.586ZM1010.85 559.605H1003.1L1001.09 564H998.145L1007.1 544.77L1015.73 564H1012.75L1010.85 559.605ZM1009.73 557.039L1007.05 550.887L1004.24 557.039H1009.73ZM1020.14 570.211H1017.5V552.586H1020.14V553.828C1021.18 552.789 1022.36 552.27 1023.68 552.27C1025.25 552.27 1026.54 552.848 1027.56 554.004C1028.59 555.152 1029.11 556.602 1029.11 558.352C1029.11 560.062 1028.59 561.488 1027.57 562.629C1026.55 563.762 1025.27 564.328 1023.73 564.328C1022.39 564.328 1021.2 563.793 1020.14 562.723V570.211ZM1026.41 558.363C1026.41 557.27 1026.11 556.379 1025.52 555.691C1024.92 554.996 1024.16 554.648 1023.25 554.648C1022.28 554.648 1021.49 554.984 1020.89 555.656C1020.29 556.328 1019.99 557.211 1019.99 558.305C1019.99 559.375 1020.29 560.258 1020.89 560.953C1021.48 561.633 1022.27 561.973 1023.23 561.973C1024.15 561.973 1024.9 561.629 1025.5 560.941C1026.11 560.254 1026.41 559.395 1026.41 558.363ZM1034.53 570.211H1031.89V552.586H1034.53V553.828C1035.57 552.789 1036.75 552.27 1038.07 552.27C1039.64 552.27 1040.93 552.848 1041.95 554.004C1042.98 555.152 1043.5 556.602 1043.5 558.352C1043.5 560.062 1042.98 561.488 1041.96 562.629C1040.95 563.762 1039.66 564.328 1038.12 564.328C1036.78 564.328 1035.59 563.793 1034.53 562.723V570.211ZM1040.8 558.363C1040.8 557.27 1040.5 556.379 1039.91 555.691C1039.31 554.996 1038.55 554.648 1037.64 554.648C1036.67 554.648 1035.88 554.984 1035.28 555.656C1034.68 556.328 1034.38 557.211 1034.38 558.305C1034.38 559.375 1034.68 560.258 1035.28 560.953C1035.88 561.633 1036.66 561.973 1037.62 561.973C1038.54 561.973 1039.29 561.629 1039.89 560.941C1040.5 560.254 1040.8 559.395 1040.8 558.363Z" fill="#39374D"/>
</g>
<g id="Group 626612">
<g id="Group 626617">
<g id="Group 29157_4">
<circle id="Ellipse 21_6" cx="951.5" cy="356.5" r="11.5" fill="#173E62"/>
<path id="4" d="M954.906 357.73C954.952 357.73 954.99 357.749 955.018 357.786C955.055 357.814 955.074 357.851 955.074 357.898V359.312C955.074 359.359 955.055 359.401 955.018 359.438C954.99 359.466 954.952 359.48 954.906 359.48H954.304C954.257 359.48 954.234 359.503 954.234 359.55V361.832C954.234 361.879 954.215 361.921 954.178 361.958C954.15 361.986 954.112 362 954.066 362H952.428C952.381 362 952.339 361.986 952.302 361.958C952.274 361.921 952.26 361.879 952.26 361.832V359.55C952.26 359.503 952.236 359.48 952.19 359.48H947.892C947.845 359.48 947.803 359.466 947.766 359.438C947.738 359.401 947.724 359.359 947.724 359.312V358.192C947.724 358.136 947.738 358.066 947.766 357.982L950.286 352.326C950.323 352.242 950.388 352.2 950.482 352.2H952.232C952.297 352.2 952.339 352.219 952.358 352.256C952.386 352.284 952.386 352.331 952.358 352.396L950.02 357.646C950.01 357.665 950.01 357.683 950.02 357.702C950.029 357.721 950.043 357.73 950.062 357.73H952.19C952.236 357.73 952.26 357.707 952.26 357.66V355.924C952.26 355.877 952.274 355.84 952.302 355.812C952.339 355.775 952.381 355.756 952.428 355.756H954.066C954.112 355.756 954.15 355.775 954.178 355.812C954.215 355.84 954.234 355.877 954.234 355.924V357.66C954.234 357.707 954.257 357.73 954.304 357.73H954.906Z" fill="#FAFAFA"/>
</g>
<g id="Group 29154_3">
<circle id="Ellipse 9_4" cx="989.5" cy="418.5" r="56.5" fill="#CAF1E9"/>
</g>
<g id="Group_4">
<path id="Vector_31" d="M995.584 421.786C994.696 421.786 993.768 422.158 993.034 423.005L989.379 427.711C988.956 427.014 985.768 421.194 983.804 419.641C982.933 418.952 981.816 418.4 980.624 417.979C980.127 418.509 979.56 418.97 978.938 419.353C980.349 419.737 981.724 420.306 982.68 421.062C983.34 421.584 989.193 430.905 989.193 430.905L990.81 428.823L994.431 424.161C994.85 423.696 995.288 423.598 995.585 423.598C995.918 423.598 996.24 423.721 996.47 423.936C996.918 424.355 997.135 425.462 996.355 426.368L996.32 426.409L996.287 426.452L989.924 434.807C989.57 435.253 989.097 435.509 988.627 435.509C988.336 435.509 988.061 435.41 987.821 435.222L982.531 426.27V440.264C982.531 441.393 981.624 442.312 980.508 442.312H968.762C968.206 442.312 967.692 442.103 967.316 441.721C966.968 441.369 966.779 440.905 966.785 440.399L966.829 425.755L961.806 437.748C961.384 438.672 960.602 439.094 960.051 439.094C959.901 439.094 959.759 439.064 959.627 439.006C958.88 438.675 958.59 437.467 959.006 436.421L960.382 432.957C961.783 429.432 963.36 425.463 963.577 424.919C965.049 421.969 967.265 420.1 970.289 419.264C969.691 418.879 969.15 418.418 968.672 417.896C965.972 418.912 963.566 420.84 961.921 424.179C961.915 424.193 959.102 431.273 957.323 435.751C956.535 437.73 957.239 439.93 958.894 440.663C959.266 440.828 959.658 440.906 960.052 440.906C961.41 440.906 962.793 439.978 963.469 438.471L964.989 434.839L964.973 440.394C964.948 442.454 966.644 444.125 968.763 444.125L980.509 444.125C982.627 444.125 984.344 442.396 984.344 440.264V432.9L986.4 436.382C987.034 437.013 987.827 437.322 988.627 437.322C989.622 437.322 990.628 436.844 991.356 435.917L997.729 427.55C999.116 425.939 998.9 423.728 997.709 422.613C997.145 422.085 996.38 421.785 995.584 421.785L995.584 421.786Z" fill="black"/>
<path id="Vector_32" d="M1011.38 391.562H974.219C972.225 391.562 970.594 393.194 970.594 395.188V405.362C971.159 405.033 971.765 404.768 972.406 404.581V395.188C972.406 394.187 973.219 393.375 974.219 393.375H1011.38C1012.38 393.375 1013.19 394.187 1013.19 395.188V422.375C1013.19 423.375 1012.38 424.188 1011.38 424.188H1000.43C1000.52 424.782 1000.51 425.395 1000.4 426H1011.38C1013.37 426 1015 424.369 1015 422.375V395.188C1015 393.194 1013.37 391.563 1011.38 391.563L1011.38 391.562Z" fill="black"/>
<path id="Vector_33" d="M974.684 418.75C978.188 418.75 981.027 415.91 981.027 412.405C981.027 408.902 978.188 406.062 974.684 406.062C971.181 406.062 968.34 408.901 968.34 412.405C968.34 415.91 971.181 418.75 974.684 418.75ZM974.684 407.875C977.182 407.875 979.215 409.907 979.215 412.405C979.215 414.904 977.182 416.938 974.684 416.938C972.185 416.938 970.152 414.904 970.152 412.405C970.152 409.907 972.185 407.875 974.684 407.875Z" fill="black"/>
</g>
</g>
</g>
</g>
</g>
</g>
</g>
</g>
</svg>
