<svg width="555" height="363" viewBox="0 0 555 363" fill="none" xmlns="http://www.w3.org/2000/svg">
<g id="our-process-mob">
<g id="line">
<path id="Vector 24" d="M98.043 50.9309C107.973 66.7567 149.699 96.4836 237.155 88.7845C269.624 70.6062 344.404 35.9177 383.78 42.5902C419.271 36.2813 498.594 35.5328 531.96 83.0103" stroke="#1F1D59" stroke-width="2" stroke-dasharray="14 14"/>
<path id="Vector 25" d="M102.742 259.992C106.562 266.221 122.61 277.922 156.247 274.892C168.735 267.736 197.496 254.082 212.641 256.709C226.291 254.225 256.8 253.931 269.633 272.619" stroke="#1F1D59" stroke-width="2" stroke-dasharray="14 14"/>
<path id="Vector 21" d="M534.927 90.0389C551.232 193.723 409.022 332.601 316.174 270.818" stroke="#1F1D59" stroke-width="2" stroke-dasharray="12 12"/>
</g>
<g id="uat">
<g id="icon">
<g id="Group 29157">
<ellipse id="Ellipse 21" cx="271.097" cy="226.757" rx="8.09672" ry="8.75732" fill="#173E62"/>
<path id="5" d="M274.158 227.172C274.278 227.564 274.338 227.944 274.338 228.312C274.338 228.72 274.274 229.088 274.146 229.416C273.962 229.928 273.638 230.336 273.174 230.64C272.71 230.936 272.166 231.084 271.542 231.084C270.934 231.084 270.398 230.94 269.934 230.652C269.478 230.356 269.154 229.956 268.962 229.452C268.882 229.244 268.822 229.024 268.782 228.792V228.768C268.782 228.68 268.83 228.636 268.926 228.636H270.378C270.458 228.636 270.51 228.68 270.534 228.768C270.542 228.816 270.554 228.856 270.57 228.888C270.586 228.92 270.598 228.948 270.606 228.972C270.686 229.18 270.806 229.34 270.966 229.452C271.126 229.564 271.314 229.62 271.53 229.62C271.754 229.62 271.95 229.56 272.118 229.44C272.286 229.32 272.41 229.152 272.49 228.936C272.57 228.776 272.61 228.568 272.61 228.312C272.61 228.08 272.574 227.872 272.502 227.688C272.446 227.48 272.334 227.32 272.166 227.208C271.998 227.096 271.802 227.04 271.578 227.04C271.354 227.04 271.146 227.092 270.954 227.196C270.762 227.3 270.634 227.436 270.57 227.604C270.546 227.684 270.494 227.724 270.414 227.724H268.938C268.898 227.724 268.862 227.712 268.83 227.688C268.806 227.656 268.794 227.62 268.794 227.58V222.744C268.794 222.704 268.806 222.672 268.83 222.648C268.862 222.616 268.898 222.6 268.938 222.6H273.894C273.934 222.6 273.966 222.616 273.99 222.648C274.022 222.672 274.038 222.704 274.038 222.744V223.908C274.038 223.948 274.022 223.984 273.99 224.016C273.966 224.04 273.934 224.052 273.894 224.052H270.546C270.506 224.052 270.486 224.072 270.486 224.112L270.474 225.888C270.474 225.944 270.498 225.956 270.546 225.924C270.906 225.692 271.322 225.576 271.794 225.576C272.354 225.576 272.842 225.72 273.258 226.008C273.682 226.288 273.982 226.676 274.158 227.172Z" fill="#FAFAFA"/>
</g>
<circle id="Ellipse 9" cx="286.18" cy="260.627" r="25" fill="#CAF1E9"/>
<g id="Group">
<path id="Vector" d="M277.509 276.199H281.649C281.741 276.199 281.829 276.157 281.893 276.083C281.958 276.009 281.994 275.909 281.994 275.805V273.045C281.993 272.572 281.842 272.115 281.571 271.758C281.299 271.401 280.924 271.168 280.514 271.101C280.863 270.8 281.085 270.346 281.125 269.849C281.165 269.352 281.021 268.858 280.727 268.489C280.432 268.12 280.016 267.91 279.579 267.91C279.142 267.91 278.726 268.12 278.432 268.489C278.137 268.858 277.993 269.352 278.033 269.849C278.074 270.346 278.296 270.8 278.644 271.101C278.234 271.168 277.859 271.401 277.588 271.758C277.316 272.115 277.166 272.572 277.164 273.045V275.805C277.164 275.909 277.2 276.009 277.265 276.083C277.33 276.157 277.418 276.199 277.509 276.199V276.199ZM279.579 268.708C279.808 268.708 280.027 268.811 280.189 268.996C280.351 269.181 280.442 269.432 280.442 269.693C280.442 269.955 280.351 270.205 280.189 270.39C280.027 270.575 279.808 270.679 279.579 270.679C279.35 270.679 279.131 270.575 278.969 270.39C278.807 270.205 278.717 269.955 278.717 269.693C278.717 269.432 278.807 269.181 278.969 268.996C279.131 268.811 279.35 268.708 279.579 268.708ZM277.854 273.045C277.854 272.731 277.963 272.43 278.157 272.208C278.351 271.986 278.615 271.862 278.889 271.862H280.269C280.544 271.862 280.807 271.986 281.001 272.208C281.195 272.43 281.304 272.731 281.304 273.045V275.41H277.854L277.854 273.045Z" fill="black"/>
<path id="Vector_2" d="M284.066 263.582H284.756V264.371H284.066V263.582Z" fill="black"/>
<path id="Vector_3" d="M290.965 263.582H291.655V264.371H290.965V263.582Z" fill="black"/>
<path id="Vector_4" d="M287.516 259.64H288.206V260.428H287.516V259.64Z" fill="black"/>
<path id="Vector_5" d="M284.93 261.189L285.418 260.632L285.906 261.189L285.418 261.747L284.93 261.189Z" fill="black"/>
<path id="Vector_6" d="M289.812 266.765L290.3 266.207L290.788 266.765L290.3 267.322L289.812 266.765Z" fill="black"/>
<path id="Vector_7" d="M284.93 266.763L285.418 266.205L285.906 266.763L285.418 267.32L284.93 266.763Z" fill="black"/>
<path id="Vector_8" d="M289.812 261.189L290.3 260.632L290.788 261.189L290.3 261.747L289.812 261.189Z" fill="black"/>
<path id="Vector_9" d="M285.503 263.353C285.387 263.929 285.436 264.533 285.643 265.076C285.849 265.618 286.203 266.07 286.652 266.365V267.327C286.652 267.82 286.882 268.276 287.256 268.522C287.629 268.769 288.09 268.769 288.463 268.522C288.837 268.276 289.067 267.82 289.067 267.327V266.365C289.771 265.899 290.222 265.059 290.267 264.131C290.312 263.203 289.945 262.312 289.292 261.759C288.638 261.206 287.784 261.067 287.021 261.388C286.258 261.709 285.687 262.448 285.503 263.353L285.503 263.353ZM288.377 267.327C288.377 267.654 288.145 267.919 287.86 267.919C287.574 267.919 287.342 267.654 287.342 267.327V267.13H288.377V267.327ZM287.86 262.005C288.388 262.005 288.886 262.282 289.213 262.757C289.54 263.231 289.659 263.85 289.535 264.437C289.412 265.023 289.06 265.513 288.581 265.766C288.458 265.831 288.38 265.971 288.38 266.125V266.342H287.345V266.125C287.346 265.971 287.268 265.831 287.145 265.766C286.706 265.535 286.371 265.103 286.224 264.576C286.077 264.049 286.13 263.475 286.371 262.995C286.612 262.515 287.018 262.173 287.49 262.052C287.612 262.021 287.735 262.005 287.86 262.005L287.86 262.005Z" fill="black"/>
<path id="Vector_10" d="M297.077 254.936C297.425 254.635 297.647 254.181 297.688 253.684C297.728 253.187 297.583 252.693 297.289 252.324C296.995 251.955 296.579 251.745 296.142 251.745C295.705 251.745 295.288 251.955 294.994 252.324C294.7 252.693 294.555 253.187 294.596 253.684C294.636 254.181 294.858 254.635 295.207 254.936C294.797 255.003 294.422 255.236 294.15 255.593C293.879 255.95 293.728 256.407 293.727 256.88V259.64C293.727 259.744 293.763 259.844 293.828 259.918C293.892 259.992 293.98 260.034 294.072 260.034H298.212C298.303 260.034 298.391 259.992 298.456 259.918C298.52 259.844 298.557 259.744 298.557 259.64V256.88C298.555 256.407 298.405 255.95 298.133 255.593C297.861 255.236 297.486 255.003 297.077 254.936ZM296.142 252.543C296.37 252.543 296.59 252.646 296.752 252.831C296.913 253.016 297.004 253.267 297.004 253.528C297.004 253.79 296.913 254.04 296.752 254.225C296.59 254.41 296.37 254.514 296.142 254.514C295.913 254.514 295.693 254.41 295.532 254.225C295.37 254.04 295.279 253.79 295.279 253.528C295.279 253.267 295.37 253.016 295.532 252.831C295.693 252.646 295.913 252.543 296.142 252.543ZM297.867 259.245H294.417V256.88C294.417 256.566 294.526 256.265 294.72 256.043C294.914 255.821 295.177 255.697 295.452 255.697H296.832C297.106 255.697 297.37 255.821 297.564 256.043C297.758 256.265 297.867 256.566 297.867 256.88L297.867 259.245Z" fill="black"/>
<path id="Vector_11" d="M296.486 268.117C296.485 269.11 296.139 270.062 295.525 270.764C294.91 271.467 294.077 271.862 293.208 271.863H283.375V272.651H293.208C294.626 272.651 295.935 271.787 296.644 270.384C297.353 268.981 297.353 267.253 296.644 265.85C295.935 264.447 294.626 263.583 293.208 263.583H293.036V264.372H293.208C294.077 264.373 294.91 264.768 295.525 265.47C296.139 266.172 296.485 267.124 296.486 268.117V268.117Z" fill="black"/>
<path id="Vector_12" d="M282.515 264.371H282.687V263.582H282.515C281.343 263.582 280.261 262.868 279.676 261.709C279.091 260.55 279.091 259.122 279.676 257.964C280.261 256.805 281.343 256.091 282.515 256.091H290.909L290.081 256.753L290.474 257.4L292.199 256.02C292.292 255.946 292.347 255.825 292.347 255.696C292.347 255.568 292.292 255.447 292.199 255.373L290.474 253.993L290.081 254.64L290.909 255.302H282.515C281.097 255.302 279.787 256.166 279.078 257.569C278.37 258.972 278.37 260.701 279.078 262.103C279.787 263.506 281.097 264.37 282.515 264.37V264.371Z" fill="black"/>
</g>
</g>
<g id="text">
<path id="general concept" d="M259.956 318.466V325.731C259.956 326.768 260.125 327.526 260.464 328.005C260.969 328.698 261.68 329.044 262.597 329.044C263.519 329.044 264.232 328.698 264.737 328.005C265.076 327.541 265.245 326.784 265.245 325.731V318.466H267.065V326.231C267.065 327.502 266.67 328.549 265.878 329.372C264.987 330.289 263.894 330.747 262.597 330.747C261.3 330.747 260.209 330.289 259.323 329.372C258.532 328.549 258.136 327.502 258.136 326.231V318.466H259.956ZM276.534 327.599H271.37L270.026 330.528H268.065L274.034 317.708L279.792 330.528H277.8L276.534 327.599ZM275.792 325.888L274.003 321.786L272.128 325.888H275.792ZM283.964 320.177V330.528H282.144V320.177H279.37V318.466H286.73V320.177H283.964ZM300.378 327.599H295.214L293.87 330.528H291.909L297.878 317.708L303.636 330.528H301.644L300.378 327.599ZM299.636 325.888L297.847 321.786L295.972 325.888H299.636ZM304.815 322.919H306.581V323.622C307.196 323.013 307.888 322.708 308.659 322.708C309.545 322.708 310.235 322.987 310.73 323.544C311.157 324.018 311.37 324.791 311.37 325.864V330.528H309.605V326.278C309.605 325.528 309.5 325.01 309.292 324.724C309.089 324.432 308.719 324.286 308.183 324.286C307.599 324.286 307.185 324.479 306.94 324.864C306.701 325.244 306.581 325.909 306.581 326.856V330.528H304.815V322.919ZM319.206 317.333H320.972V330.528H319.206V329.731C318.513 330.409 317.73 330.747 316.855 330.747C315.813 330.747 314.948 330.367 314.261 329.606C313.578 328.83 313.237 327.862 313.237 326.7C313.237 325.565 313.578 324.617 314.261 323.856C314.938 323.091 315.789 322.708 316.815 322.708C317.706 322.708 318.503 323.073 319.206 323.802V317.333ZM315.034 326.7C315.034 327.429 315.23 328.023 315.62 328.481C316.021 328.945 316.526 329.177 317.136 329.177C317.787 329.177 318.313 328.953 318.714 328.505C319.115 328.041 319.315 327.453 319.315 326.739C319.315 326.026 319.115 325.437 318.714 324.974C318.313 324.521 317.792 324.294 317.151 324.294C316.547 324.294 316.042 324.523 315.636 324.981C315.235 325.445 315.034 326.018 315.034 326.7ZM265.284 341.177V351.528H263.464V341.177H260.69V339.466H268.05V341.177H265.284ZM268.792 343.919H270.55V344.599C270.873 344.26 271.159 344.028 271.409 343.903C271.664 343.773 271.966 343.708 272.315 343.708C272.779 343.708 273.263 343.859 273.769 344.161L272.964 345.771C272.631 345.531 272.305 345.411 271.987 345.411C271.029 345.411 270.55 346.135 270.55 347.583V351.528H268.792V343.919ZM280.276 343.919H282.042V351.528H280.276V350.731C279.552 351.409 278.774 351.747 277.94 351.747C276.888 351.747 276.019 351.367 275.331 350.606C274.649 349.83 274.308 348.862 274.308 347.7C274.308 346.56 274.649 345.609 275.331 344.849C276.013 344.088 276.868 343.708 277.894 343.708C278.779 343.708 279.573 344.073 280.276 344.802V343.919ZM276.105 347.7C276.105 348.429 276.3 349.023 276.69 349.481C277.091 349.945 277.597 350.177 278.206 350.177C278.857 350.177 279.383 349.953 279.784 349.505C280.185 349.041 280.386 348.453 280.386 347.739C280.386 347.026 280.185 346.437 279.784 345.974C279.383 345.521 278.862 345.294 278.222 345.294C277.618 345.294 277.112 345.523 276.706 345.981C276.305 346.445 276.105 347.018 276.105 347.7ZM286.019 343.919V351.528H284.261V343.919H286.019ZM283.995 340.755C283.995 340.448 284.107 340.182 284.331 339.958C284.555 339.734 284.823 339.622 285.136 339.622C285.453 339.622 285.724 339.734 285.948 339.958C286.172 340.177 286.284 340.445 286.284 340.763C286.284 341.08 286.172 341.351 285.948 341.575C285.73 341.799 285.461 341.911 285.144 341.911C284.826 341.911 284.555 341.799 284.331 341.575C284.107 341.351 283.995 341.078 283.995 340.755ZM288.245 343.919H290.011V344.622C290.625 344.013 291.318 343.708 292.089 343.708C292.974 343.708 293.664 343.987 294.159 344.544C294.586 345.018 294.8 345.791 294.8 346.864V351.528H293.034V347.278C293.034 346.528 292.93 346.01 292.722 345.724C292.519 345.432 292.149 345.286 291.612 345.286C291.029 345.286 290.615 345.479 290.37 345.864C290.131 346.244 290.011 346.909 290.011 347.856V351.528H288.245V343.919ZM298.784 343.919V351.528H297.026V343.919H298.784ZM296.761 340.755C296.761 340.448 296.873 340.182 297.097 339.958C297.321 339.734 297.589 339.622 297.901 339.622C298.219 339.622 298.49 339.734 298.714 339.958C298.938 340.177 299.05 340.445 299.05 340.763C299.05 341.08 298.938 341.351 298.714 341.575C298.495 341.799 298.227 341.911 297.909 341.911C297.591 341.911 297.321 341.799 297.097 341.575C296.873 341.351 296.761 341.078 296.761 340.755ZM301.011 343.919H302.776V344.622C303.391 344.013 304.084 343.708 304.855 343.708C305.74 343.708 306.43 343.987 306.925 344.544C307.352 345.018 307.565 345.791 307.565 346.864V351.528H305.8V347.278C305.8 346.528 305.696 346.01 305.487 345.724C305.284 345.432 304.914 345.286 304.378 345.286C303.795 345.286 303.381 345.479 303.136 345.864C302.896 346.244 302.776 346.909 302.776 347.856V351.528H301.011V343.919ZM317.151 351.349C317.151 351.708 317.138 352.023 317.112 352.294C317.091 352.57 317.06 352.812 317.019 353.021C316.894 353.593 316.649 354.086 316.284 354.497C315.597 355.289 314.651 355.685 313.448 355.685C312.433 355.685 311.597 355.411 310.94 354.864C310.263 354.302 309.873 353.523 309.769 352.528H311.534C311.602 352.903 311.714 353.192 311.87 353.396C312.235 353.869 312.766 354.106 313.464 354.106C314.75 354.106 315.394 353.317 315.394 351.739V350.677C314.696 351.39 313.891 351.747 312.98 351.747C311.943 351.747 311.094 351.372 310.433 350.622C309.766 349.862 309.433 348.911 309.433 347.771C309.433 346.661 309.743 345.718 310.362 344.942C311.029 344.119 311.909 343.708 313.003 343.708C313.961 343.708 314.758 344.065 315.394 344.778V343.919H317.151V351.349ZM315.464 347.739C315.464 347 315.266 346.409 314.87 345.966C314.469 345.513 313.956 345.286 313.331 345.286C312.664 345.286 312.138 345.534 311.753 346.028C311.404 346.471 311.23 347.044 311.23 347.747C311.23 348.44 311.404 349.007 311.753 349.45C312.133 349.935 312.659 350.177 313.331 350.177C314.003 350.177 314.534 349.932 314.925 349.442C315.284 349 315.464 348.432 315.464 347.739Z" fill="#39374D"/>
</g>
</g>
<g id="deliver">
<g id="icon_2">
<g id="Group 29154">
<circle id="Ellipse 9_2" cx="88.1758" cy="263.659" r="25" fill="#CAF1E9"/>
<g id="noun_Rocket_3200892">
<g id="Group 29127">
<path id="Vector_13" d="M97.4677 254.574C97.4656 254.569 97.4656 254.563 97.4633 254.558C97.4249 254.478 97.3603 254.414 97.2804 254.375C97.2757 254.373 97.2697 254.373 97.2648 254.371C97.229 254.355 97.1914 254.343 97.1509 254.339C97.1406 254.338 97.1205 254.336 97.0945 254.333C97.0903 254.333 97.0865 254.333 97.0818 254.332C96.2998 254.262 89.6278 253.792 85.7512 257.669C85.2645 258.156 84.8111 258.662 84.3942 259.182C82.9337 258.401 81.0994 258.656 79.9083 259.847C78.8328 260.923 78.5009 262.531 79.0626 263.944C79.1218 264.093 79.2657 264.191 79.4258 264.191C79.5859 264.191 79.7298 264.093 79.789 263.944C79.9405 263.563 80.1667 263.22 80.4609 262.926C81.0191 262.368 81.771 262.061 82.5471 262.048C82.2278 262.689 81.9624 263.331 81.773 263.964C81.7318 264.102 81.7694 264.251 81.8711 264.352L82.5215 265.003C82.205 265.158 81.9119 265.358 81.6619 265.609C80.4942 266.776 79.8626 271.113 79.7943 271.603C79.7775 271.725 79.8186 271.847 79.9052 271.933C79.9791 272.007 80.0787 272.048 80.1815 272.048C80.1995 272.048 80.2174 272.047 80.2354 272.044C80.726 271.976 85.0623 271.344 86.2303 270.177C86.4802 269.927 86.6804 269.634 86.8358 269.317L87.4862 269.967C87.5607 270.042 87.6605 270.082 87.7626 270.082C87.8 270.082 87.8378 270.077 87.8746 270.066C88.5076 269.876 89.1495 269.611 89.79 269.292C89.7776 270.068 89.4708 270.82 88.9128 271.377C88.6181 271.672 88.2756 271.898 87.8945 272.05C87.7456 272.109 87.6479 272.253 87.6479 272.413C87.6479 272.573 87.7456 272.717 87.8945 272.776C88.351 272.957 88.8277 273.046 89.3004 273.046C90.2911 273.046 91.2633 272.658 91.9914 271.93C93.1825 270.739 93.4377 268.905 92.6568 267.444C93.1763 267.028 93.6829 266.574 94.1697 266.087C98.2038 262.053 97.5305 254.987 97.4998 254.688C97.4956 254.647 97.4831 254.61 97.4677 254.574ZM85.6776 269.624C84.9411 270.36 82.1557 270.944 80.648 271.191C80.8946 269.683 81.4778 266.898 82.2146 266.161C82.4673 265.909 82.7742 265.714 83.1114 265.593L86.2457 268.727C86.1242 269.064 85.9301 269.371 85.6776 269.624ZM96.7452 255.093C96.7907 255.912 96.8391 258.157 96.2429 260.544L91.295 255.596C93.6823 255 95.9276 255.048 96.7452 255.093ZM79.9083 262.373C79.7907 262.491 79.6819 262.615 79.5819 262.744C79.5233 261.887 79.8321 261.029 80.4609 260.4C81.3771 259.484 82.7716 259.266 83.9124 259.816C83.5595 260.299 83.2417 260.79 82.9565 261.285C81.835 261.178 80.7116 261.57 79.9083 262.373ZM91.4387 271.378C90.8096 272.007 89.9518 272.316 89.0947 272.257C89.2243 272.157 89.3479 272.048 89.4655 271.93C90.269 271.127 90.661 270.005 90.5536 268.882C91.0487 268.597 91.5399 268.279 92.0228 267.926C92.5724 269.067 92.355 270.461 91.4387 271.378ZM93.617 265.535C91.8465 267.305 89.8151 268.616 87.8717 269.248L86.9652 268.341L83.4975 264.873L82.591 263.967C83.2223 262.023 84.5338 259.992 86.3039 258.222C87.4753 257.051 88.9519 256.308 90.4329 255.839L95.9994 261.406C95.5306 262.887 94.7882 264.363 93.617 265.535Z" fill="black"/>
<path id="Vector_14" d="M84.5774 263.079C84.4247 262.927 84.1773 262.927 84.0247 263.079C83.872 263.232 83.872 263.479 84.0247 263.632L84.3289 263.936C84.4052 264.013 84.5052 264.051 84.6052 264.051C84.7052 264.051 84.8052 264.013 84.8816 263.936C85.0342 263.784 85.0342 263.536 84.8816 263.384L84.5774 263.079Z" fill="black"/>
<path id="Vector_15" d="M85.8703 264.372C85.7176 264.22 85.4703 264.22 85.3176 264.372C85.165 264.525 85.165 264.772 85.3176 264.925L85.6218 265.229C85.6982 265.306 85.7982 265.344 85.8982 265.344C85.9982 265.344 86.0982 265.306 86.1745 265.229C86.3272 265.077 86.3272 264.829 86.1745 264.677L85.8703 264.372Z" fill="black"/>
<path id="Vector_16" d="M87.1633 265.665C87.0106 265.513 86.7633 265.513 86.6106 265.665C86.4579 265.818 86.4579 266.065 86.6106 266.218L86.9148 266.522C86.9912 266.599 87.0912 266.637 87.1912 266.637C87.2912 266.637 87.3912 266.599 87.4675 266.522C87.6202 266.37 87.6202 266.122 87.4675 265.97L87.1633 265.665Z" fill="black"/>
<path id="Vector_17" d="M88.4563 266.958C88.3036 266.806 88.0562 266.806 87.9036 266.958C87.7509 267.111 87.7509 267.358 87.9036 267.511L88.2078 267.815C88.2841 267.892 88.3841 267.93 88.4841 267.93C88.5841 267.93 88.6841 267.892 88.7605 267.815C88.9132 267.662 88.9132 267.415 88.7605 267.262L88.4563 266.958Z" fill="black"/>
<path id="Vector_18" d="M89.8778 258.822C89.0399 258.822 88.2521 259.149 87.6595 259.741C86.4364 260.964 86.4364 262.954 87.6595 264.178C88.2712 264.789 89.0745 265.095 89.8778 265.095C90.6812 265.095 91.4845 264.789 92.096 264.178C92.6886 263.585 93.0149 262.797 93.0149 261.959C93.0149 261.121 92.6886 260.334 92.096 259.741C91.5036 259.149 90.7158 258.822 89.8778 258.822ZM91.5433 263.625C90.6249 264.543 89.1306 264.543 88.2122 263.625C87.2941 262.706 87.2941 261.212 88.2122 260.294C88.6571 259.849 89.2487 259.604 89.8778 259.604C90.507 259.604 91.0984 259.849 91.5433 260.294C91.9882 260.739 92.2332 261.33 92.2332 261.959C92.2332 262.588 91.9882 263.18 91.5433 263.625Z" fill="black"/>
</g>
</g>
</g>
<g id="Group 29157_2">
<circle id="Ellipse 21_2" cx="79.6758" cy="231.159" r="9.5" fill="#173E62"/>
<path id="6" d="M82.0373 231.932C82.2293 232.292 82.3253 232.752 82.3253 233.312C82.3253 233.776 82.2493 234.192 82.0973 234.56C81.8893 235.032 81.5653 235.404 81.1253 235.676C80.6853 235.948 80.1653 236.084 79.5653 236.084C78.9493 236.084 78.4173 235.944 77.9693 235.664C77.5213 235.376 77.1973 234.98 76.9973 234.476C76.8533 234.124 76.7813 233.732 76.7813 233.3V229.688C76.7813 229.256 76.8933 228.876 77.1173 228.548C77.3493 228.212 77.6693 227.956 78.0773 227.78C78.4853 227.596 78.9533 227.504 79.4813 227.504C80.0013 227.504 80.4613 227.596 80.8613 227.78C81.2613 227.956 81.5693 228.208 81.7853 228.536C82.0093 228.856 82.1213 229.228 82.1213 229.652V229.988C82.1213 230.028 82.1053 230.064 82.0733 230.096C82.0493 230.12 82.0173 230.132 81.9773 230.132H80.5733C80.5333 230.132 80.4973 230.12 80.4653 230.096C80.4413 230.064 80.4293 230.028 80.4293 229.988V229.88C80.4293 229.616 80.3413 229.396 80.1653 229.22C79.9893 229.044 79.7613 228.956 79.4813 228.956C79.1853 228.956 78.9413 229.048 78.7493 229.232C78.5653 229.408 78.4733 229.636 78.4733 229.916V231.044C78.4733 231.068 78.4813 231.084 78.4973 231.092C78.5133 231.092 78.5293 231.084 78.5453 231.068C78.8733 230.788 79.3093 230.648 79.8533 230.648C80.3333 230.648 80.7613 230.76 81.1373 230.984C81.5213 231.2 81.8213 231.516 82.0373 231.932ZM80.4533 234.092C80.5733 233.884 80.6333 233.632 80.6333 233.336C80.6333 233.016 80.5693 232.752 80.4413 232.544C80.2413 232.224 79.9493 232.064 79.5653 232.064C79.1333 232.064 78.8333 232.228 78.6653 232.556C78.5453 232.764 78.4853 233.032 78.4853 233.36C78.4853 233.648 78.5373 233.892 78.6413 234.092C78.8173 234.444 79.1213 234.62 79.5533 234.62C79.9693 234.62 80.2693 234.444 80.4533 234.092Z" fill="#FAFAFA"/>
</g>
</g>
<g id="text_2">
<path id="general concept_2" d="M46.5039 337.659V325.597H49.0352C50.2487 325.597 51.207 325.716 51.9102 325.956C52.6654 326.19 53.3503 326.589 53.9648 327.151C55.2096 328.287 55.832 329.779 55.832 331.628C55.832 333.482 55.1836 334.982 53.8867 336.128C53.2357 336.701 52.5534 337.099 51.8398 337.323C51.1732 337.547 50.2279 337.659 49.0039 337.659H46.5039ZM48.3242 335.948H49.1445C49.9622 335.948 50.6419 335.862 51.1836 335.69C51.7253 335.508 52.2148 335.219 52.6523 334.823C53.5482 334.006 53.9961 332.94 53.9961 331.628C53.9961 330.305 53.5534 329.232 52.668 328.409C51.8711 327.675 50.6966 327.308 49.1445 327.308H48.3242V335.948ZM64.7227 334.269H59.2695C59.3164 334.894 59.5195 335.391 59.8789 335.761C60.2383 336.125 60.6992 336.308 61.2617 336.308C61.6992 336.308 62.0612 336.203 62.3477 335.995C62.6289 335.787 62.9492 335.401 63.3086 334.839L64.793 335.667C64.5638 336.058 64.3216 336.394 64.0664 336.675C63.8112 336.951 63.5378 337.18 63.2461 337.362C62.9544 337.539 62.6393 337.67 62.3008 337.753C61.9622 337.836 61.5951 337.878 61.1992 337.878C60.0638 337.878 59.1523 337.513 58.4648 336.784C57.7773 336.05 57.4336 335.076 57.4336 333.862C57.4336 332.659 57.7669 331.685 58.4336 330.94C59.1055 330.206 59.9961 329.839 61.1055 329.839C62.2253 329.839 63.1107 330.196 63.7617 330.909C64.4076 331.618 64.7305 332.599 64.7305 333.854L64.7227 334.269ZM62.918 332.831C62.6732 331.894 62.082 331.425 61.1445 331.425C60.931 331.425 60.7305 331.459 60.543 331.526C60.3555 331.589 60.1836 331.683 60.0273 331.808C59.8763 331.927 59.7461 332.073 59.6367 332.245C59.5273 332.417 59.444 332.612 59.3867 332.831H62.918ZM68.4102 324.464V337.659H66.6523V324.464H68.4102ZM72.3945 330.05V337.659H70.6367V330.05H72.3945ZM70.3711 326.886C70.3711 326.578 70.4831 326.313 70.707 326.089C70.931 325.865 71.1992 325.753 71.5117 325.753C71.8294 325.753 72.1003 325.865 72.3242 326.089C72.5482 326.308 72.6602 326.576 72.6602 326.894C72.6602 327.211 72.5482 327.482 72.3242 327.706C72.1055 327.93 71.8372 328.042 71.5195 328.042C71.2018 328.042 70.931 327.93 70.707 327.706C70.4831 327.482 70.3711 327.209 70.3711 326.886ZM75.5664 330.05L77.5352 334.323L79.4961 330.05H81.4727L77.5195 338.183L73.5977 330.05H75.5664ZM89.3164 334.269H83.8633C83.9102 334.894 84.1133 335.391 84.4727 335.761C84.832 336.125 85.293 336.308 85.8555 336.308C86.293 336.308 86.6549 336.203 86.9414 335.995C87.2227 335.787 87.543 335.401 87.9023 334.839L89.3867 335.667C89.1576 336.058 88.9154 336.394 88.6602 336.675C88.4049 336.951 88.1315 337.18 87.8398 337.362C87.5482 337.539 87.2331 337.67 86.8945 337.753C86.556 337.836 86.1888 337.878 85.793 337.878C84.6576 337.878 83.7461 337.513 83.0586 336.784C82.3711 336.05 82.0273 335.076 82.0273 333.862C82.0273 332.659 82.3607 331.685 83.0273 330.94C83.6992 330.206 84.5898 329.839 85.6992 329.839C86.819 329.839 87.7044 330.196 88.3555 330.909C89.0013 331.618 89.3242 332.599 89.3242 333.854L89.3164 334.269ZM87.5117 332.831C87.2669 331.894 86.6758 331.425 85.7383 331.425C85.5247 331.425 85.3242 331.459 85.1367 331.526C84.9492 331.589 84.7773 331.683 84.6211 331.808C84.4701 331.927 84.3398 332.073 84.2305 332.245C84.1211 332.417 84.0378 332.612 83.9805 332.831H87.5117ZM91.2461 330.05H93.0039V330.729C93.3268 330.391 93.6133 330.159 93.8633 330.034C94.1185 329.904 94.4206 329.839 94.7695 329.839C95.2331 329.839 95.7174 329.99 96.2227 330.292L95.418 331.901C95.0846 331.662 94.7591 331.542 94.4414 331.542C93.4831 331.542 93.0039 332.266 93.0039 333.714V337.659H91.2461V330.05ZM109.59 334.729H104.426L103.082 337.659H101.121L107.09 324.839L112.848 337.659H110.855L109.59 334.729ZM108.848 333.019L107.059 328.917L105.184 333.019H108.848ZM114.027 330.05H115.793V330.753C116.408 330.144 117.1 329.839 117.871 329.839C118.757 329.839 119.447 330.118 119.941 330.675C120.368 331.149 120.582 331.922 120.582 332.995V337.659H118.816V333.409C118.816 332.659 118.712 332.141 118.504 331.854C118.301 331.563 117.931 331.417 117.395 331.417C116.811 331.417 116.397 331.61 116.152 331.995C115.913 332.375 115.793 333.039 115.793 333.987V337.659H114.027V330.05ZM128.418 324.464H130.184V337.659H128.418V336.862C127.725 337.539 126.941 337.878 126.066 337.878C125.025 337.878 124.16 337.498 123.473 336.737C122.79 335.961 122.449 334.993 122.449 333.831C122.449 332.696 122.79 331.748 123.473 330.987C124.15 330.222 125.001 329.839 126.027 329.839C126.918 329.839 127.715 330.203 128.418 330.933V324.464ZM124.246 333.831C124.246 334.56 124.441 335.154 124.832 335.612C125.233 336.076 125.738 336.308 126.348 336.308C126.999 336.308 127.525 336.084 127.926 335.636C128.327 335.172 128.527 334.584 128.527 333.87C128.527 333.157 128.327 332.568 127.926 332.104C127.525 331.651 127.004 331.425 126.363 331.425C125.759 331.425 125.254 331.654 124.848 332.112C124.447 332.576 124.246 333.149 124.246 333.831ZM62.957 352.378H67.9414V352.776C67.9414 353.683 67.8346 354.485 67.6211 355.183C67.4128 355.828 67.0612 356.433 66.5664 356.995C65.4466 358.256 64.0221 358.886 62.293 358.886C60.6055 358.886 59.1602 358.276 57.957 357.058C56.7539 355.834 56.1523 354.365 56.1523 352.651C56.1523 350.901 56.7643 349.417 57.9883 348.198C59.2122 346.974 60.7018 346.362 62.457 346.362C63.3997 346.362 64.2799 346.555 65.0977 346.94C65.8789 347.326 66.6471 347.951 67.4023 348.815L66.1055 350.058C65.1159 348.74 63.9102 348.081 62.4883 348.081C61.2122 348.081 60.1419 348.521 59.2773 349.401C58.4128 350.266 57.9805 351.349 57.9805 352.651C57.9805 353.995 58.4622 355.102 59.4258 355.972C60.3268 356.779 61.3034 357.183 62.3555 357.183C63.2513 357.183 64.056 356.881 64.7695 356.276C65.4831 355.667 65.8815 354.938 65.9648 354.089H62.957V352.378ZM69.6367 352.573C69.6367 350.875 70.2591 349.417 71.5039 348.198C72.7435 346.979 74.2331 346.37 75.9727 346.37C77.6914 346.37 79.1654 346.985 80.3945 348.214C81.6289 349.443 82.2461 350.92 82.2461 352.644C82.2461 354.378 81.6263 355.849 80.3867 357.058C79.1419 358.271 77.6393 358.878 75.8789 358.878C74.3216 358.878 72.9232 358.339 71.6836 357.261C70.319 356.068 69.6367 354.506 69.6367 352.573ZM71.4727 352.597C71.4727 353.93 71.9206 355.026 72.8164 355.886C73.707 356.745 74.7357 357.175 75.9023 357.175C77.168 357.175 78.2357 356.737 79.1055 355.862C79.9753 354.977 80.4102 353.899 80.4102 352.628C80.4102 351.341 79.9805 350.263 79.1211 349.394C78.2669 348.519 77.2096 348.081 75.9492 348.081C74.694 348.081 73.6341 348.519 72.7695 349.394C71.9049 350.258 71.4727 351.326 71.4727 352.597ZM91.293 346.597V356.948H94.8398V358.659H89.4727V346.597H91.293ZM97.9883 351.05V358.659H96.2305V351.05H97.9883ZM95.9648 347.886C95.9648 347.578 96.0768 347.313 96.3008 347.089C96.5247 346.865 96.793 346.753 97.1055 346.753C97.4232 346.753 97.694 346.865 97.918 347.089C98.1419 347.308 98.2539 347.576 98.2539 347.894C98.2539 348.211 98.1419 348.482 97.918 348.706C97.6992 348.93 97.431 349.042 97.1133 349.042C96.7956 349.042 96.5247 348.93 96.3008 348.706C96.0768 348.482 95.9648 348.209 95.9648 347.886ZM101.16 351.05L103.129 355.323L105.09 351.05H107.066L103.113 359.183L99.1914 351.05H101.16ZM114.91 355.269H109.457C109.504 355.894 109.707 356.391 110.066 356.761C110.426 357.125 110.887 357.308 111.449 357.308C111.887 357.308 112.249 357.203 112.535 356.995C112.816 356.787 113.137 356.401 113.496 355.839L114.98 356.667C114.751 357.058 114.509 357.394 114.254 357.675C113.999 357.951 113.725 358.18 113.434 358.362C113.142 358.539 112.827 358.67 112.488 358.753C112.15 358.836 111.783 358.878 111.387 358.878C110.251 358.878 109.34 358.513 108.652 357.784C107.965 357.05 107.621 356.076 107.621 354.862C107.621 353.659 107.954 352.685 108.621 351.94C109.293 351.206 110.184 350.839 111.293 350.839C112.413 350.839 113.298 351.196 113.949 351.909C114.595 352.618 114.918 353.599 114.918 354.854L114.91 355.269ZM113.105 353.831C112.861 352.894 112.27 352.425 111.332 352.425C111.118 352.425 110.918 352.459 110.73 352.526C110.543 352.589 110.371 352.683 110.215 352.808C110.064 352.927 109.934 353.073 109.824 353.245C109.715 353.417 109.632 353.612 109.574 353.831H113.105ZM117.301 357.784C117.301 357.493 117.408 357.24 117.621 357.026C117.835 356.813 118.09 356.706 118.387 356.706C118.684 356.706 118.939 356.813 119.152 357.026C119.366 357.24 119.473 357.495 119.473 357.792C119.473 358.094 119.366 358.352 119.152 358.565C118.944 358.774 118.689 358.878 118.387 358.878C118.079 358.878 117.822 358.774 117.613 358.565C117.405 358.357 117.301 358.097 117.301 357.784ZM117.504 355.972V346.597H119.27V355.972H117.504Z" fill="#39374D"/>
</g>
</g>
<g id="share">
<g id="text_3">
<path id="general concept_3" d="M233.598 113.201L232.121 114.076C231.845 113.597 231.582 113.285 231.332 113.139C231.072 112.972 230.736 112.889 230.324 112.889C229.819 112.889 229.4 113.032 229.066 113.318C228.733 113.6 228.566 113.954 228.566 114.381C228.566 114.969 229.004 115.443 229.879 115.803L231.082 116.295C232.061 116.691 232.777 117.175 233.23 117.748C233.684 118.316 233.91 119.014 233.91 119.842C233.91 120.951 233.54 121.868 232.801 122.592C232.056 123.321 231.132 123.686 230.027 123.686C228.98 123.686 228.116 123.376 227.434 122.756C226.762 122.136 226.342 121.264 226.176 120.139L228.02 119.732C228.103 120.441 228.249 120.93 228.457 121.201C228.832 121.722 229.379 121.982 230.098 121.982C230.665 121.982 231.137 121.792 231.512 121.412C231.887 121.032 232.074 120.55 232.074 119.967C232.074 119.732 232.04 119.519 231.973 119.326C231.91 119.128 231.809 118.949 231.668 118.787C231.533 118.62 231.355 118.467 231.137 118.326C230.918 118.18 230.658 118.042 230.355 117.912L229.191 117.428C227.54 116.73 226.715 115.709 226.715 114.365C226.715 113.459 227.061 112.701 227.754 112.092C228.447 111.477 229.309 111.17 230.34 111.17C231.73 111.17 232.816 111.847 233.598 113.201ZM235.77 110.271H237.527V116.49C238.152 115.928 238.842 115.646 239.598 115.646C240.457 115.646 241.145 115.925 241.66 116.482C242.098 116.967 242.316 117.74 242.316 118.803V123.467H240.559V118.967C240.559 118.357 240.449 117.917 240.23 117.646C240.017 117.37 239.671 117.232 239.191 117.232C238.577 117.232 238.145 117.423 237.895 117.803C237.65 118.188 237.527 118.85 237.527 119.787V123.467H235.77V110.271ZM250.16 115.857H251.926V123.467H250.16V122.67C249.436 123.347 248.658 123.686 247.824 123.686C246.772 123.686 245.902 123.305 245.215 122.545C244.533 121.769 244.191 120.8 244.191 119.639C244.191 118.498 244.533 117.548 245.215 116.787C245.897 116.027 246.751 115.646 247.777 115.646C248.663 115.646 249.457 116.011 250.16 116.74V115.857ZM245.988 119.639C245.988 120.368 246.184 120.962 246.574 121.42C246.975 121.883 247.48 122.115 248.09 122.115C248.741 122.115 249.267 121.891 249.668 121.443C250.069 120.98 250.27 120.391 250.27 119.678C250.27 118.964 250.069 118.376 249.668 117.912C249.267 117.459 248.746 117.232 248.105 117.232C247.501 117.232 246.996 117.462 246.59 117.92C246.189 118.383 245.988 118.956 245.988 119.639ZM254.145 115.857H255.902V116.537C256.225 116.199 256.512 115.967 256.762 115.842C257.017 115.712 257.319 115.646 257.668 115.646C258.132 115.646 258.616 115.798 259.121 116.1L258.316 117.709C257.983 117.469 257.658 117.35 257.34 117.35C256.382 117.35 255.902 118.074 255.902 119.521V123.467H254.145V115.857ZM266.949 120.076H261.496C261.543 120.701 261.746 121.199 262.105 121.568C262.465 121.933 262.926 122.115 263.488 122.115C263.926 122.115 264.288 122.011 264.574 121.803C264.855 121.594 265.176 121.209 265.535 120.646L267.02 121.475C266.79 121.865 266.548 122.201 266.293 122.482C266.038 122.758 265.764 122.988 265.473 123.17C265.181 123.347 264.866 123.477 264.527 123.561C264.189 123.644 263.822 123.686 263.426 123.686C262.29 123.686 261.379 123.321 260.691 122.592C260.004 121.857 259.66 120.883 259.66 119.67C259.66 118.467 259.993 117.493 260.66 116.748C261.332 116.014 262.223 115.646 263.332 115.646C264.452 115.646 265.337 116.003 265.988 116.717C266.634 117.425 266.957 118.407 266.957 119.662L266.949 120.076ZM265.145 118.639C264.9 117.701 264.309 117.232 263.371 117.232C263.158 117.232 262.957 117.266 262.77 117.334C262.582 117.396 262.41 117.49 262.254 117.615C262.103 117.735 261.973 117.881 261.863 118.053C261.754 118.225 261.671 118.42 261.613 118.639H265.145ZM276.59 118.256L272.652 111.404H274.746L277.504 116.225L280.27 111.404H282.363L278.41 118.256V123.467H276.59V118.256ZM281.973 119.607C281.973 118.508 282.366 117.574 283.152 116.803C283.939 116.032 284.897 115.646 286.027 115.646C287.163 115.646 288.126 116.035 288.918 116.811C289.699 117.587 290.09 118.54 290.09 119.67C290.09 120.811 289.697 121.766 288.91 122.537C288.118 123.303 287.147 123.686 285.996 123.686C284.855 123.686 283.9 123.295 283.129 122.514C282.358 121.743 281.973 120.774 281.973 119.607ZM283.77 119.639C283.77 120.399 283.973 121.001 284.379 121.443C284.796 121.891 285.345 122.115 286.027 122.115C286.715 122.115 287.264 121.894 287.676 121.451C288.087 121.008 288.293 120.417 288.293 119.678C288.293 118.938 288.087 118.347 287.676 117.904C287.259 117.456 286.71 117.232 286.027 117.232C285.355 117.232 284.811 117.456 284.395 117.904C283.978 118.352 283.77 118.93 283.77 119.639ZM293.715 115.857V120.225C293.715 121.485 294.212 122.115 295.207 122.115C296.202 122.115 296.699 121.485 296.699 120.225V115.857H298.457V120.264C298.457 120.873 298.382 121.399 298.23 121.842C298.085 122.238 297.832 122.594 297.473 122.912C296.879 123.428 296.124 123.686 295.207 123.686C294.296 123.686 293.543 123.428 292.949 122.912C292.585 122.594 292.327 122.238 292.176 121.842C292.03 121.488 291.957 120.962 291.957 120.264V115.857H293.715ZM300.676 115.857H302.434V116.537C302.757 116.199 303.043 115.967 303.293 115.842C303.548 115.712 303.85 115.646 304.199 115.646C304.663 115.646 305.147 115.798 305.652 116.1L304.848 117.709C304.514 117.469 304.189 117.35 303.871 117.35C302.913 117.35 302.434 118.074 302.434 119.521V123.467H300.676V115.857ZM313.754 118.568V123.467H311.934V111.404H313.996C315.007 111.404 315.77 111.475 316.285 111.615C316.806 111.756 317.264 112.021 317.66 112.412C318.353 113.089 318.699 113.943 318.699 114.975C318.699 116.079 318.329 116.954 317.59 117.6C316.85 118.245 315.853 118.568 314.598 118.568H313.754ZM313.754 116.881H314.434C316.105 116.881 316.941 116.238 316.941 114.951C316.941 113.706 316.079 113.084 314.355 113.084H313.754V116.881ZM325.41 115.857H327.176V123.467H325.41V122.67C324.686 123.347 323.908 123.686 323.074 123.686C322.022 123.686 321.152 123.305 320.465 122.545C319.783 121.769 319.441 120.8 319.441 119.639C319.441 118.498 319.783 117.548 320.465 116.787C321.147 116.027 322.001 115.646 323.027 115.646C323.913 115.646 324.707 116.011 325.41 116.74V115.857ZM321.238 119.639C321.238 120.368 321.434 120.962 321.824 121.42C322.225 121.883 322.73 122.115 323.34 122.115C323.991 122.115 324.517 121.891 324.918 121.443C325.319 120.98 325.52 120.391 325.52 119.678C325.52 118.964 325.319 118.376 324.918 117.912C324.517 117.459 323.996 117.232 323.355 117.232C322.751 117.232 322.246 117.462 321.84 117.92C321.439 118.383 321.238 118.956 321.238 119.639ZM331.152 115.857V123.467H329.395V115.857H331.152ZM329.129 112.693C329.129 112.386 329.241 112.12 329.465 111.896C329.689 111.673 329.957 111.561 330.27 111.561C330.587 111.561 330.858 111.673 331.082 111.896C331.306 112.115 331.418 112.383 331.418 112.701C331.418 113.019 331.306 113.29 331.082 113.514C330.863 113.738 330.595 113.85 330.277 113.85C329.96 113.85 329.689 113.738 329.465 113.514C329.241 113.29 329.129 113.016 329.129 112.693ZM333.379 115.857H335.145V116.561C335.759 115.951 336.452 115.646 337.223 115.646C338.108 115.646 338.798 115.925 339.293 116.482C339.72 116.956 339.934 117.73 339.934 118.803V123.467H338.168V119.217C338.168 118.467 338.064 117.949 337.855 117.662C337.652 117.37 337.283 117.225 336.746 117.225C336.163 117.225 335.749 117.417 335.504 117.803C335.264 118.183 335.145 118.847 335.145 119.795V123.467H333.379V115.857ZM231.191 139.568V144.467H229.371V132.404H231.434C232.444 132.404 233.207 132.475 233.723 132.615C234.243 132.756 234.702 133.021 235.098 133.412C235.79 134.089 236.137 134.943 236.137 135.975C236.137 137.079 235.767 137.954 235.027 138.6C234.288 139.245 233.29 139.568 232.035 139.568H231.191ZM231.191 137.881H231.871C233.543 137.881 234.379 137.238 234.379 135.951C234.379 134.706 233.517 134.084 231.793 134.084H231.191V137.881ZM236.848 140.607C236.848 139.508 237.241 138.574 238.027 137.803C238.814 137.032 239.772 136.646 240.902 136.646C242.038 136.646 243.001 137.035 243.793 137.811C244.574 138.587 244.965 139.54 244.965 140.67C244.965 141.811 244.572 142.766 243.785 143.537C242.993 144.303 242.022 144.686 240.871 144.686C239.73 144.686 238.775 144.295 238.004 143.514C237.233 142.743 236.848 141.774 236.848 140.607ZM238.645 140.639C238.645 141.399 238.848 142.001 239.254 142.443C239.671 142.891 240.22 143.115 240.902 143.115C241.59 143.115 242.139 142.894 242.551 142.451C242.962 142.008 243.168 141.417 243.168 140.678C243.168 139.938 242.962 139.347 242.551 138.904C242.134 138.456 241.585 138.232 240.902 138.232C240.23 138.232 239.686 138.456 239.27 138.904C238.853 139.352 238.645 139.93 238.645 140.639ZM248.59 136.857V144.467H246.832V136.857H248.59ZM246.566 133.693C246.566 133.386 246.678 133.12 246.902 132.896C247.126 132.673 247.395 132.561 247.707 132.561C248.025 132.561 248.296 132.673 248.52 132.896C248.743 133.115 248.855 133.383 248.855 133.701C248.855 134.019 248.743 134.29 248.52 134.514C248.301 134.738 248.033 134.85 247.715 134.85C247.397 134.85 247.126 134.738 246.902 134.514C246.678 134.29 246.566 134.016 246.566 133.693ZM250.816 136.857H252.582V137.561C253.197 136.951 253.889 136.646 254.66 136.646C255.546 136.646 256.236 136.925 256.73 137.482C257.158 137.956 257.371 138.73 257.371 139.803V144.467H255.605V140.217C255.605 139.467 255.501 138.949 255.293 138.662C255.09 138.37 254.72 138.225 254.184 138.225C253.6 138.225 253.186 138.417 252.941 138.803C252.702 139.183 252.582 139.847 252.582 140.795V144.467H250.816V136.857ZM261.41 138.498V144.467H259.652V138.498H258.902V136.857H259.652V134.068H261.41V136.857H262.777V138.498H261.41ZM268.395 138.154L266.941 138.928C266.712 138.459 266.428 138.225 266.09 138.225C265.928 138.225 265.79 138.279 265.676 138.389C265.561 138.493 265.504 138.628 265.504 138.795C265.504 139.087 265.842 139.376 266.52 139.662C267.452 140.063 268.079 140.433 268.402 140.771C268.725 141.11 268.887 141.566 268.887 142.139C268.887 142.873 268.616 143.488 268.074 143.982C267.548 144.451 266.913 144.686 266.168 144.686C264.892 144.686 263.988 144.063 263.457 142.818L264.957 142.123C265.165 142.488 265.324 142.719 265.434 142.818C265.647 143.016 265.902 143.115 266.199 143.115C266.793 143.115 267.09 142.844 267.09 142.303C267.09 141.99 266.861 141.699 266.402 141.428C266.225 141.339 266.048 141.253 265.871 141.17C265.694 141.087 265.514 141.001 265.332 140.912C264.822 140.662 264.462 140.412 264.254 140.162C263.988 139.844 263.855 139.436 263.855 138.936C263.855 138.274 264.082 137.727 264.535 137.295C264.999 136.863 265.561 136.646 266.223 136.646C267.197 136.646 267.921 137.149 268.395 138.154ZM280.488 137.756L282.66 140.381L282.73 140.303C282.965 140.048 283.186 139.798 283.395 139.553C283.603 139.308 283.803 139.061 283.996 138.811L285.184 140.029C285.038 140.238 284.845 140.48 284.605 140.756C284.371 141.032 284.09 141.35 283.762 141.709L285.996 144.467H283.73L282.527 142.99C281.423 144.131 280.275 144.701 279.082 144.701C278.014 144.701 277.108 144.36 276.363 143.678C275.634 142.99 275.27 142.141 275.27 141.131C275.27 139.928 275.848 138.928 277.004 138.131L277.793 137.592C277.803 137.587 277.822 137.574 277.848 137.553C277.874 137.532 277.91 137.503 277.957 137.467C277.16 136.618 276.762 135.782 276.762 134.959C276.762 134.146 277.027 133.485 277.559 132.975C278.1 132.464 278.798 132.209 279.652 132.209C280.48 132.209 281.165 132.456 281.707 132.951C282.249 133.446 282.52 134.071 282.52 134.826C282.52 135.347 282.371 135.818 282.074 136.24C281.783 136.662 281.254 137.167 280.488 137.756ZM279.043 138.779L278.941 138.85C278.197 139.365 277.689 139.779 277.418 140.092C277.152 140.404 277.02 140.735 277.02 141.084C277.02 141.584 277.22 142.042 277.621 142.459C278.038 142.86 278.496 143.061 278.996 143.061C279.699 143.061 280.509 142.6 281.426 141.678L279.043 138.779ZM279.434 136.475L279.582 136.365C279.837 136.173 280.048 136.006 280.215 135.865C280.382 135.719 280.501 135.597 280.574 135.498C280.73 135.305 280.809 135.068 280.809 134.787C280.809 134.469 280.702 134.212 280.488 134.014C280.275 133.816 279.988 133.717 279.629 133.717C279.301 133.717 279.025 133.818 278.801 134.021C278.577 134.214 278.465 134.462 278.465 134.764C278.465 135.118 278.605 135.467 278.887 135.811L279.34 136.357C279.355 136.383 279.387 136.423 279.434 136.475ZM292.387 144.467V131.584L301.184 140.787V132.404H303.004V145.201L294.207 136.021V144.467H292.387ZM312.684 141.076H307.23C307.277 141.701 307.48 142.199 307.84 142.568C308.199 142.933 308.66 143.115 309.223 143.115C309.66 143.115 310.022 143.011 310.309 142.803C310.59 142.594 310.91 142.209 311.27 141.646L312.754 142.475C312.525 142.865 312.283 143.201 312.027 143.482C311.772 143.758 311.499 143.988 311.207 144.17C310.915 144.347 310.6 144.477 310.262 144.561C309.923 144.644 309.556 144.686 309.16 144.686C308.025 144.686 307.113 144.321 306.426 143.592C305.738 142.857 305.395 141.883 305.395 140.67C305.395 139.467 305.728 138.493 306.395 137.748C307.066 137.014 307.957 136.646 309.066 136.646C310.186 136.646 311.072 137.003 311.723 137.717C312.368 138.425 312.691 139.407 312.691 140.662L312.684 141.076ZM310.879 139.639C310.634 138.701 310.043 138.232 309.105 138.232C308.892 138.232 308.691 138.266 308.504 138.334C308.316 138.396 308.145 138.49 307.988 138.615C307.837 138.735 307.707 138.881 307.598 139.053C307.488 139.225 307.405 139.42 307.348 139.639H310.879ZM321.543 141.076H316.09C316.137 141.701 316.34 142.199 316.699 142.568C317.059 142.933 317.52 143.115 318.082 143.115C318.52 143.115 318.882 143.011 319.168 142.803C319.449 142.594 319.77 142.209 320.129 141.646L321.613 142.475C321.384 142.865 321.142 143.201 320.887 143.482C320.632 143.758 320.358 143.988 320.066 144.17C319.775 144.347 319.46 144.477 319.121 144.561C318.783 144.644 318.415 144.686 318.02 144.686C316.884 144.686 315.973 144.321 315.285 143.592C314.598 142.857 314.254 141.883 314.254 140.67C314.254 139.467 314.587 138.493 315.254 137.748C315.926 137.014 316.816 136.646 317.926 136.646C319.046 136.646 319.931 137.003 320.582 137.717C321.228 138.425 321.551 139.407 321.551 140.662L321.543 141.076ZM319.738 139.639C319.493 138.701 318.902 138.232 317.965 138.232C317.751 138.232 317.551 138.266 317.363 138.334C317.176 138.396 317.004 138.49 316.848 138.615C316.697 138.735 316.566 138.881 316.457 139.053C316.348 139.225 316.264 139.42 316.207 139.639H319.738ZM329.082 131.271H330.848V144.467H329.082V143.67C328.389 144.347 327.605 144.686 326.73 144.686C325.689 144.686 324.824 144.305 324.137 143.545C323.454 142.769 323.113 141.8 323.113 140.639C323.113 139.503 323.454 138.555 324.137 137.795C324.814 137.029 325.665 136.646 326.691 136.646C327.582 136.646 328.379 137.011 329.082 137.74V131.271ZM324.91 140.639C324.91 141.368 325.105 141.962 325.496 142.42C325.897 142.883 326.402 143.115 327.012 143.115C327.663 143.115 328.189 142.891 328.59 142.443C328.991 141.98 329.191 141.391 329.191 140.678C329.191 139.964 328.991 139.376 328.59 138.912C328.189 138.459 327.668 138.232 327.027 138.232C326.423 138.232 325.918 138.462 325.512 138.92C325.111 139.383 324.91 139.956 324.91 140.639ZM337.488 138.154L336.035 138.928C335.806 138.459 335.522 138.225 335.184 138.225C335.022 138.225 334.884 138.279 334.77 138.389C334.655 138.493 334.598 138.628 334.598 138.795C334.598 139.087 334.936 139.376 335.613 139.662C336.546 140.063 337.173 140.433 337.496 140.771C337.819 141.11 337.98 141.566 337.98 142.139C337.98 142.873 337.71 143.488 337.168 143.982C336.642 144.451 336.007 144.686 335.262 144.686C333.986 144.686 333.082 144.063 332.551 142.818L334.051 142.123C334.259 142.488 334.418 142.719 334.527 142.818C334.741 143.016 334.996 143.115 335.293 143.115C335.887 143.115 336.184 142.844 336.184 142.303C336.184 141.99 335.954 141.699 335.496 141.428C335.319 141.339 335.142 141.253 334.965 141.17C334.788 141.087 334.608 141.001 334.426 140.912C333.915 140.662 333.556 140.412 333.348 140.162C333.082 139.844 332.949 139.436 332.949 138.936C332.949 138.274 333.176 137.727 333.629 137.295C334.092 136.863 334.655 136.646 335.316 136.646C336.29 136.646 337.014 137.149 337.488 138.154Z" fill="#39374D"/>
</g>
<g id="icon_3">
<g id="Group 29200">
<g id="Group 29155">
<circle id="Ellipse 8" cx="267.691" cy="68.3223" r="25" fill="#CAF1E9"/>
</g>
<g id="Group 29156">
<circle id="Ellipse 21_3" cx="240.5" cy="49.5" r="11.5" fill="#173E62"/>
<path id="2" d="M239.939 53.476C239.923 53.492 239.919 53.508 239.927 53.524C239.935 53.54 239.951 53.548 239.975 53.548H243.227C243.267 53.548 243.299 53.564 243.323 53.596C243.355 53.62 243.371 53.652 243.371 53.692V54.856C243.371 54.896 243.355 54.932 243.323 54.964C243.299 54.988 243.267 55 243.227 55H237.827C237.787 55 237.751 54.988 237.719 54.964C237.695 54.932 237.683 54.896 237.683 54.856V53.752C237.683 53.68 237.707 53.62 237.755 53.572C238.147 53.188 238.547 52.772 238.955 52.324C239.363 51.868 239.619 51.584 239.723 51.472C239.947 51.208 240.175 50.956 240.407 50.716C241.135 49.908 241.499 49.308 241.499 48.916C241.499 48.636 241.399 48.408 241.199 48.232C240.999 48.048 240.739 47.956 240.419 47.956C240.099 47.956 239.839 48.048 239.639 48.232C239.439 48.408 239.339 48.644 239.339 48.94V49.24C239.339 49.28 239.323 49.316 239.291 49.348C239.267 49.372 239.235 49.384 239.195 49.384H237.779C237.739 49.384 237.703 49.372 237.671 49.348C237.647 49.316 237.635 49.28 237.635 49.24V48.676C237.659 48.244 237.795 47.864 238.043 47.536C238.291 47.2 238.619 46.944 239.027 46.768C239.443 46.592 239.907 46.504 240.419 46.504C240.987 46.504 241.479 46.612 241.895 46.828C242.319 47.036 242.643 47.32 242.867 47.68C243.099 48.04 243.215 48.44 243.215 48.88C243.215 49.216 243.131 49.56 242.963 49.912C242.795 50.264 242.543 50.644 242.207 51.052C241.959 51.364 241.691 51.672 241.403 51.976C241.115 52.28 240.687 52.72 240.119 53.296L239.939 53.476Z" fill="#FAFAFA"/>
</g>
</g>
<g id="Group_2">
<path id="Vector_19" d="M271.857 80.4524V78.9207C271.859 78.1961 271.685 77.4853 271.356 76.8692C271.026 76.2529 270.553 75.7558 269.991 75.4341L266.774 73.577C266.584 73.469 266.465 73.2453 266.467 73.0013V71.8208C266.527 71.7344 266.587 71.6395 266.649 71.5328V71.533C267.066 70.853 267.401 70.1112 267.646 69.3275C267.903 69.1582 268.116 68.9136 268.265 68.6184C268.414 68.3232 268.493 67.9878 268.493 67.6462V66.0972C268.491 65.6815 268.373 65.2777 268.157 64.9457V63.9552C268.224 62.932 267.941 61.9188 267.369 61.1337C266.622 60.1346 265.403 59.6279 263.778 59.6279C262.153 59.6279 260.947 60.1346 260.187 61.1337C259.613 61.9131 259.33 62.9235 259.4 63.9437V64.9398C259.183 65.2718 259.065 65.6758 259.063 66.0916V67.6492C259.059 68.1959 259.255 68.719 259.604 69.0887C259.839 70.0664 260.223 70.9878 260.738 71.8094V72.9609C260.742 73.2003 260.631 73.4226 260.449 73.5369L257.451 75.4226C256.918 75.7576 256.474 76.2525 256.164 76.8549C255.854 77.4574 255.691 78.1451 255.691 78.8458V80.4524C255.691 80.6908 255.859 80.8842 256.065 80.8842H271.484C271.69 80.8842 271.857 80.6908 271.857 80.4524L271.857 80.4524ZM271.11 80.0206L256.439 80.0204V78.8457C256.439 78.3009 256.566 77.7659 256.807 77.2972C257.047 76.8284 257.393 76.4435 257.807 76.1825L260.813 74.2881C261.017 74.158 261.187 73.9666 261.306 73.734C261.424 73.5015 261.486 73.2364 261.486 72.9667V71.6653C261.486 71.5695 261.459 71.4765 261.408 71.4004C260.89 70.6029 260.511 69.6964 260.292 68.7316C260.271 68.639 260.225 68.5571 260.16 68.4985C259.933 68.2954 259.801 67.983 259.801 67.652V66.0972C259.804 65.8309 259.893 65.5752 260.05 65.3804C260.111 65.3011 260.145 65.1987 260.145 65.0924V63.9206C260.146 63.9043 260.146 63.8881 260.145 63.8718C260.089 63.0871 260.302 62.3088 260.738 61.7039C261.348 60.9005 262.368 60.4919 263.766 60.4919C265.164 60.4919 266.183 60.9007 266.794 61.7039C267.237 62.3102 267.455 63.0948 267.399 63.886C267.398 63.9025 267.398 63.9188 267.399 63.935V65.0866C267.399 65.1928 267.433 65.2952 267.494 65.3746C267.651 65.5694 267.74 65.825 267.743 66.0915V67.6491C267.743 67.857 267.69 68.0602 267.592 68.2344C267.494 68.4087 267.354 68.5462 267.19 68.6308C267.095 68.68 267.021 68.7728 266.988 68.887C266.764 69.6588 266.444 70.3891 266.038 71.055C265.959 71.1845 265.879 71.3054 265.807 71.409C265.749 71.49 265.719 71.5924 265.722 71.697V73.0271C265.722 73.3067 265.789 73.5806 265.916 73.8182C266.043 74.0558 266.225 74.2476 266.442 74.3717L269.657 76.2085C270.094 76.4591 270.462 76.8463 270.719 77.3263C270.976 77.8061 271.111 78.3594 271.11 78.9235L271.11 80.0206Z" fill="black"/>
<path id="Vector_20" d="M277.122 64.1444C277.683 64.1436 278.222 63.8856 278.619 63.4267C279.016 62.968 279.239 62.346 279.24 61.6971V57.9139C279.239 57.2652 279.016 56.6433 278.619 56.1844C278.222 55.7257 277.683 55.4676 277.122 55.4668H271.552C270.99 55.4676 270.452 55.7257 270.055 56.1844C269.658 56.6432 269.434 57.2652 269.434 57.9139V65.9753C269.434 66.1478 269.523 66.3037 269.66 66.372C269.797 66.44 269.956 66.4075 270.064 66.2892L272.04 64.1444L277.122 64.1444ZM271.639 63.3988L270.181 64.9765V57.914C270.182 57.4943 270.327 57.092 270.583 56.7952C270.84 56.4984 271.189 56.3313 271.552 56.3307H277.122C277.485 56.3313 277.833 56.4984 278.09 56.7952C278.347 57.092 278.492 57.4943 278.492 57.914V61.6972C278.492 62.117 278.347 62.5192 278.09 62.8161C277.833 63.1129 277.485 63.28 277.122 63.2808H271.888C271.795 63.2822 271.705 63.3244 271.637 63.3989L271.639 63.3988Z" fill="black"/>
<path id="Vector_21" d="M271.952 59.0054H273.614C273.821 59.0054 273.988 58.812 273.988 58.5734C273.988 58.335 273.821 58.1416 273.614 58.1416H271.952C271.746 58.1416 271.578 58.335 271.578 58.5734C271.578 58.812 271.746 59.0054 271.952 59.0054Z" fill="black"/>
<path id="Vector_22" d="M276.101 60.4443H271.952C271.746 60.4443 271.578 60.6377 271.578 60.8761C271.578 61.1147 271.746 61.3081 271.952 61.3081H276.101C276.308 61.3081 276.475 61.1147 276.475 60.8761C276.475 60.6377 276.308 60.4443 276.101 60.4443Z" fill="black"/>
</g>
</g>
</g>
<g id="demo">
<g id="text_4">
<path id="general concept_4" d="M462.895 292.383V280.32H465.426C466.639 280.32 467.598 280.44 468.301 280.68C469.056 280.914 469.741 281.312 470.355 281.875C471.6 283.01 472.223 284.503 472.223 286.352C472.223 288.206 471.574 289.706 470.277 290.852C469.626 291.424 468.944 291.823 468.23 292.047C467.564 292.271 466.618 292.383 465.395 292.383H462.895ZM464.715 290.672H465.535C466.353 290.672 467.033 290.586 467.574 290.414C468.116 290.232 468.605 289.943 469.043 289.547C469.939 288.729 470.387 287.664 470.387 286.352C470.387 285.029 469.944 283.956 469.059 283.133C468.262 282.398 467.087 282.031 465.535 282.031H464.715V290.672ZM481.113 288.992H475.66C475.707 289.617 475.91 290.115 476.27 290.484C476.629 290.849 477.09 291.031 477.652 291.031C478.09 291.031 478.452 290.927 478.738 290.719C479.02 290.51 479.34 290.125 479.699 289.562L481.184 290.391C480.954 290.781 480.712 291.117 480.457 291.398C480.202 291.674 479.928 291.904 479.637 292.086C479.345 292.263 479.03 292.393 478.691 292.477C478.353 292.56 477.986 292.602 477.59 292.602C476.454 292.602 475.543 292.237 474.855 291.508C474.168 290.773 473.824 289.799 473.824 288.586C473.824 287.383 474.158 286.409 474.824 285.664C475.496 284.93 476.387 284.562 477.496 284.562C478.616 284.562 479.501 284.919 480.152 285.633C480.798 286.341 481.121 287.323 481.121 288.578L481.113 288.992ZM479.309 287.555C479.064 286.617 478.473 286.148 477.535 286.148C477.322 286.148 477.121 286.182 476.934 286.25C476.746 286.312 476.574 286.406 476.418 286.531C476.267 286.651 476.137 286.797 476.027 286.969C475.918 287.141 475.835 287.336 475.777 287.555H479.309ZM483.043 284.773H484.801V285.477C485.139 285.122 485.428 284.883 485.668 284.758C485.923 284.628 486.243 284.562 486.629 284.562C487.488 284.562 488.168 284.938 488.668 285.688C489.22 284.938 489.967 284.562 490.91 284.562C492.624 284.562 493.48 285.602 493.48 287.68V292.383H491.715V288.156C491.715 287.427 491.626 286.911 491.449 286.609C491.267 286.302 490.967 286.148 490.551 286.148C490.066 286.148 489.712 286.331 489.488 286.695C489.27 287.06 489.16 287.646 489.16 288.453V292.383H487.395V288.18C487.395 286.826 487.004 286.148 486.223 286.148C485.728 286.148 485.366 286.333 485.137 286.703C484.913 287.073 484.801 287.656 484.801 288.453V292.383H483.043V284.773ZM495.34 288.523C495.34 287.424 495.733 286.49 496.52 285.719C497.306 284.948 498.264 284.562 499.395 284.562C500.53 284.562 501.493 284.951 502.285 285.727C503.066 286.503 503.457 287.456 503.457 288.586C503.457 289.727 503.064 290.682 502.277 291.453C501.486 292.219 500.514 292.602 499.363 292.602C498.223 292.602 497.267 292.211 496.496 291.43C495.725 290.659 495.34 289.69 495.34 288.523ZM497.137 288.555C497.137 289.315 497.34 289.917 497.746 290.359C498.163 290.807 498.712 291.031 499.395 291.031C500.082 291.031 500.632 290.81 501.043 290.367C501.454 289.924 501.66 289.333 501.66 288.594C501.66 287.854 501.454 287.263 501.043 286.82C500.626 286.372 500.077 286.148 499.395 286.148C498.723 286.148 498.178 286.372 497.762 286.82C497.345 287.268 497.137 287.846 497.137 288.555ZM509.996 286.297C509.996 284.599 510.618 283.141 511.863 281.922C513.103 280.703 514.592 280.094 516.332 280.094C518.051 280.094 519.525 280.708 520.754 281.938C521.988 283.167 522.605 284.643 522.605 286.367C522.605 288.102 521.986 289.573 520.746 290.781C519.501 291.995 517.999 292.602 516.238 292.602C514.681 292.602 513.283 292.062 512.043 290.984C510.678 289.792 509.996 288.229 509.996 286.297ZM511.832 286.32C511.832 287.654 512.28 288.75 513.176 289.609C514.066 290.469 515.095 290.898 516.262 290.898C517.527 290.898 518.595 290.461 519.465 289.586C520.335 288.701 520.77 287.622 520.77 286.352C520.77 285.065 520.34 283.987 519.48 283.117C518.626 282.242 517.569 281.805 516.309 281.805C515.053 281.805 513.993 282.242 513.129 283.117C512.264 283.982 511.832 285.049 511.832 286.32ZM526.379 286.414V292.383H524.613V286.414H523.988V284.773H524.613V281.836C524.613 280.878 524.78 280.201 525.113 279.805C525.572 279.253 526.238 278.977 527.113 278.977C527.426 278.977 527.819 279.068 528.293 279.25V281.047L528.113 280.953C527.733 280.76 527.421 280.664 527.176 280.664C526.863 280.664 526.652 280.776 526.543 281C526.434 281.219 526.379 281.641 526.379 282.266V284.773H528.293V286.414H526.379ZM464.293 308.172L460.355 301.32H462.449L465.207 306.141L467.973 301.32H470.066L466.113 308.172V313.383H464.293V308.172ZM469.676 309.523C469.676 308.424 470.069 307.49 470.855 306.719C471.642 305.948 472.6 305.562 473.73 305.562C474.866 305.562 475.829 305.951 476.621 306.727C477.402 307.503 477.793 308.456 477.793 309.586C477.793 310.727 477.4 311.682 476.613 312.453C475.822 313.219 474.85 313.602 473.699 313.602C472.559 313.602 471.603 313.211 470.832 312.43C470.061 311.659 469.676 310.69 469.676 309.523ZM471.473 309.555C471.473 310.315 471.676 310.917 472.082 311.359C472.499 311.807 473.048 312.031 473.73 312.031C474.418 312.031 474.967 311.81 475.379 311.367C475.79 310.924 475.996 310.333 475.996 309.594C475.996 308.854 475.79 308.263 475.379 307.82C474.962 307.372 474.413 307.148 473.73 307.148C473.059 307.148 472.514 307.372 472.098 307.82C471.681 308.268 471.473 308.846 471.473 309.555ZM481.418 305.773V310.141C481.418 311.401 481.915 312.031 482.91 312.031C483.905 312.031 484.402 311.401 484.402 310.141V305.773H486.16V310.18C486.16 310.789 486.085 311.315 485.934 311.758C485.788 312.154 485.535 312.51 485.176 312.828C484.582 313.344 483.827 313.602 482.91 313.602C481.999 313.602 481.246 313.344 480.652 312.828C480.288 312.51 480.03 312.154 479.879 311.758C479.733 311.404 479.66 310.878 479.66 310.18V305.773H481.418ZM488.379 305.773H490.137V306.453C490.46 306.115 490.746 305.883 490.996 305.758C491.251 305.628 491.553 305.562 491.902 305.562C492.366 305.562 492.85 305.714 493.355 306.016L492.551 307.625C492.217 307.385 491.892 307.266 491.574 307.266C490.616 307.266 490.137 307.99 490.137 309.438V313.383H488.379V305.773ZM506.723 310.453H501.559L500.215 313.383H498.254L504.223 300.562L509.98 313.383H507.988L506.723 310.453ZM505.98 308.742L504.191 304.641L502.316 308.742H505.98ZM512.918 317.523H511.16V305.773H512.918V306.602C513.611 305.909 514.397 305.562 515.277 305.562C516.324 305.562 517.186 305.948 517.863 306.719C518.551 307.484 518.895 308.451 518.895 309.617C518.895 310.758 518.553 311.708 517.871 312.469C517.194 313.224 516.34 313.602 515.309 313.602C514.418 313.602 513.621 313.245 512.918 312.531V317.523ZM517.098 309.625C517.098 308.896 516.9 308.302 516.504 307.844C516.103 307.38 515.598 307.148 514.988 307.148C514.342 307.148 513.819 307.372 513.418 307.82C513.017 308.268 512.816 308.857 512.816 309.586C512.816 310.299 513.017 310.888 513.418 311.352C513.814 311.805 514.335 312.031 514.98 312.031C515.59 312.031 516.092 311.802 516.488 311.344C516.895 310.885 517.098 310.312 517.098 309.625ZM522.512 317.523H520.754V305.773H522.512V306.602C523.204 305.909 523.991 305.562 524.871 305.562C525.918 305.562 526.78 305.948 527.457 306.719C528.145 307.484 528.488 308.451 528.488 309.617C528.488 310.758 528.147 311.708 527.465 312.469C526.788 313.224 525.934 313.602 524.902 313.602C524.012 313.602 523.215 313.245 522.512 312.531V317.523ZM526.691 309.625C526.691 308.896 526.493 308.302 526.098 307.844C525.697 307.38 525.191 307.148 524.582 307.148C523.936 307.148 523.413 307.372 523.012 307.82C522.611 308.268 522.41 308.857 522.41 309.586C522.41 310.299 522.611 310.888 523.012 311.352C523.408 311.805 523.928 312.031 524.574 312.031C525.184 312.031 525.686 311.802 526.082 311.344C526.488 310.885 526.691 310.312 526.691 309.625Z" fill="#39374D"/>
</g>
<g id="icon_4">
<g id="Group 626617">
<g id="Group 29157_3">
<circle id="Ellipse 21_4" cx="468.5" cy="193.5" r="9.5" fill="#173E62"/>
<path id="4" d="M471.419 193.34C471.459 193.34 471.491 193.356 471.515 193.388C471.547 193.412 471.563 193.444 471.563 193.484V194.696C471.563 194.736 471.547 194.772 471.515 194.804C471.491 194.828 471.459 194.84 471.419 194.84H470.903C470.863 194.84 470.843 194.86 470.843 194.9V196.856C470.843 196.896 470.827 196.932 470.795 196.964C470.771 196.988 470.739 197 470.699 197H469.295C469.255 197 469.219 196.988 469.187 196.964C469.163 196.932 469.151 196.896 469.151 196.856V194.9C469.151 194.86 469.131 194.84 469.091 194.84H465.407C465.367 194.84 465.331 194.828 465.299 194.804C465.275 194.772 465.263 194.736 465.263 194.696V193.736C465.263 193.688 465.275 193.628 465.299 193.556L467.459 188.708C467.491 188.636 467.547 188.6 467.627 188.6H469.127C469.183 188.6 469.219 188.616 469.235 188.648C469.259 188.672 469.259 188.712 469.235 188.768L467.231 193.268C467.223 193.284 467.223 193.3 467.231 193.316C467.239 193.332 467.251 193.34 467.267 193.34H469.091C469.131 193.34 469.151 193.32 469.151 193.28V191.792C469.151 191.752 469.163 191.72 469.187 191.696C469.219 191.664 469.255 191.648 469.295 191.648H470.699C470.739 191.648 470.771 191.664 470.795 191.696C470.827 191.72 470.843 191.752 470.843 191.792V193.28C470.843 193.32 470.863 193.34 470.903 193.34H471.419Z" fill="#FAFAFA"/>
</g>
<g id="Group 29154_2">
<circle id="Ellipse 9_3" cx="491.625" cy="222.483" r="25" fill="#CAF1E9"/>
</g>
<g id="Group_3">
<path id="Vector_23" d="M496.041 229.603C495.624 229.603 495.188 229.803 494.842 230.258L493.124 232.786C492.925 232.412 491.427 229.285 490.503 228.45C490.094 228.08 489.569 227.784 489.009 227.558C488.775 227.842 488.508 228.09 488.216 228.296C488.879 228.502 489.525 228.808 489.975 229.214C490.285 229.495 493.037 234.502 493.037 234.502L493.797 233.383L495.499 230.879C495.696 230.629 495.902 230.576 496.042 230.576C496.198 230.576 496.35 230.642 496.458 230.758C496.668 230.983 496.77 231.578 496.404 232.064L496.388 232.087L496.372 232.11L493.38 236.598C493.214 236.838 492.992 236.976 492.771 236.976C492.634 236.976 492.505 236.922 492.392 236.822L489.905 232.012V239.53C489.905 240.136 489.478 240.63 488.954 240.63H483.432C483.17 240.63 482.929 240.518 482.752 240.313C482.588 240.124 482.5 239.875 482.503 239.603L482.523 231.735L480.162 238.178C479.963 238.675 479.596 238.901 479.337 238.901C479.266 238.901 479.199 238.885 479.138 238.854C478.786 238.676 478.65 238.027 478.845 237.465L479.492 235.605C480.151 233.711 480.892 231.578 480.994 231.286C481.686 229.701 482.728 228.697 484.15 228.248C483.869 228.041 483.614 227.794 483.39 227.513C482.12 228.059 480.989 229.095 480.216 230.888C480.213 230.896 478.89 234.7 478.054 237.105C477.684 238.169 478.015 239.35 478.793 239.744C478.968 239.833 479.152 239.875 479.337 239.875C479.976 239.875 480.626 239.376 480.943 238.567L481.658 236.615L481.651 239.6C481.639 240.707 482.436 241.604 483.432 241.604L488.954 241.604C489.95 241.604 490.757 240.676 490.757 239.53V235.574L491.724 237.444C492.022 237.784 492.394 237.949 492.771 237.949C493.238 237.949 493.711 237.693 494.054 237.195L497.05 232.7C497.702 231.834 497.6 230.646 497.04 230.047C496.775 229.764 496.416 229.602 496.041 229.602L496.041 229.603Z" fill="black"/>
<path id="Vector_24" d="M503.461 213.365H485.993C485.056 213.365 484.289 214.242 484.289 215.313V220.779C484.555 220.602 484.84 220.46 485.141 220.359V215.313C485.141 214.775 485.523 214.339 485.993 214.339H503.461C503.931 214.339 504.313 214.775 504.313 215.313V229.919C504.313 230.456 503.931 230.893 503.461 230.893H498.316C498.358 231.212 498.354 231.542 498.302 231.867H503.461C504.398 231.867 505.165 230.99 505.165 229.919V215.313C505.165 214.242 504.398 213.365 503.461 213.365L503.461 213.365Z" fill="black"/>
<path id="Vector_25" d="M486.217 227.972C487.864 227.972 489.199 226.446 489.199 224.563C489.199 222.681 487.864 221.155 486.217 221.155C484.57 221.155 483.234 222.68 483.234 224.563C483.234 226.446 484.57 227.972 486.217 227.972ZM486.217 222.129C487.391 222.129 488.347 223.221 488.347 224.563C488.347 225.905 487.391 226.998 486.217 226.998C485.042 226.998 484.086 225.905 484.086 224.563C484.086 223.221 485.042 222.129 486.217 222.129Z" fill="black"/>
</g>
</g>
</g>
</g>
<g id="assigned">
<g id="text_5">
<g id="Group 29219">
<g id="Group 626628">
<g id="Frame 29368">
<path id="general concept_5" d="M20.1172 103.648H15.2812V106.547H19.9766V108.258H15.2812V112.289H20.1172V114H13.4609V101.938H20.1172V103.648ZM24.5312 109.883L21.7969 106.391H23.8906L25.5859 108.609L27.3125 106.391H29.4688L26.6562 109.883L29.9141 114H27.8203L25.5859 111.156L23.2969 114H21.1484L24.5312 109.883ZM32.8672 118.141H31.1094V106.391H32.8672V107.219C33.5599 106.526 34.3464 106.18 35.2266 106.18C36.2734 106.18 37.1354 106.565 37.8125 107.336C38.5 108.102 38.8438 109.068 38.8438 110.234C38.8438 111.375 38.5026 112.326 37.8203 113.086C37.1432 113.841 36.2891 114.219 35.2578 114.219C34.3672 114.219 33.5703 113.862 32.8672 113.148V118.141ZM37.0469 110.242C37.0469 109.513 36.849 108.919 36.4531 108.461C36.0521 107.997 35.5469 107.766 34.9375 107.766C34.2917 107.766 33.7682 107.99 33.3672 108.438C32.9661 108.885 32.7656 109.474 32.7656 110.203C32.7656 110.917 32.9661 111.505 33.3672 111.969C33.763 112.422 34.2839 112.648 34.9297 112.648C35.5391 112.648 36.0417 112.419 36.4375 111.961C36.8438 111.503 37.0469 110.93 37.0469 110.242ZM47.6328 110.609H42.1797C42.2266 111.234 42.4297 111.732 42.7891 112.102C43.1484 112.466 43.6094 112.648 44.1719 112.648C44.6094 112.648 44.9714 112.544 45.2578 112.336C45.5391 112.128 45.8594 111.742 46.2188 111.18L47.7031 112.008C47.474 112.398 47.2318 112.734 46.9766 113.016C46.7214 113.292 46.4479 113.521 46.1562 113.703C45.8646 113.88 45.5495 114.01 45.2109 114.094C44.8724 114.177 44.5052 114.219 44.1094 114.219C42.974 114.219 42.0625 113.854 41.375 113.125C40.6875 112.391 40.3438 111.417 40.3438 110.203C40.3438 109 40.6771 108.026 41.3438 107.281C42.0156 106.547 42.9062 106.18 44.0156 106.18C45.1354 106.18 46.0208 106.536 46.6719 107.25C47.3177 107.958 47.6406 108.94 47.6406 110.195L47.6328 110.609ZM45.8281 109.172C45.5833 108.234 44.9922 107.766 44.0547 107.766C43.8411 107.766 43.6406 107.799 43.4531 107.867C43.2656 107.93 43.0938 108.023 42.9375 108.148C42.7865 108.268 42.6562 108.414 42.5469 108.586C42.4375 108.758 42.3542 108.953 42.2969 109.172H45.8281ZM49.5625 106.391H51.3203V107.07C51.6432 106.732 51.9297 106.5 52.1797 106.375C52.4349 106.245 52.737 106.18 53.0859 106.18C53.5495 106.18 54.0339 106.331 54.5391 106.633L53.7344 108.242C53.401 108.003 53.0755 107.883 52.7578 107.883C51.7995 107.883 51.3203 108.607 51.3203 110.055V114H49.5625V106.391ZM57.9375 108.031V114H56.1797V108.031H55.4297V106.391H56.1797V103.602H57.9375V106.391H59.3047V108.031H57.9375ZM72.8594 111.07H67.6953L66.3516 114H64.3906L70.3594 101.18L76.1172 114H74.125L72.8594 111.07ZM72.1172 109.359L70.3281 105.258L68.4531 109.359H72.1172ZM81.7188 107.688L80.2656 108.461C80.0365 107.992 79.7526 107.758 79.4141 107.758C79.2526 107.758 79.1146 107.812 79 107.922C78.8854 108.026 78.8281 108.161 78.8281 108.328C78.8281 108.62 79.1667 108.909 79.8438 109.195C80.776 109.596 81.4036 109.966 81.7266 110.305C82.0495 110.643 82.2109 111.099 82.2109 111.672C82.2109 112.406 81.9401 113.021 81.3984 113.516C80.8724 113.984 80.237 114.219 79.4922 114.219C78.2161 114.219 77.3125 113.596 76.7812 112.352L78.2812 111.656C78.4896 112.021 78.6484 112.253 78.7578 112.352C78.9714 112.549 79.2266 112.648 79.5234 112.648C80.1172 112.648 80.4141 112.378 80.4141 111.836C80.4141 111.523 80.1849 111.232 79.7266 110.961C79.5495 110.872 79.3724 110.786 79.1953 110.703C79.0182 110.62 78.8385 110.534 78.6562 110.445C78.1458 110.195 77.7865 109.945 77.5781 109.695C77.3125 109.378 77.1797 108.969 77.1797 108.469C77.1797 107.807 77.4062 107.26 77.8594 106.828C78.3229 106.396 78.8854 106.18 79.5469 106.18C80.5208 106.18 81.2448 106.682 81.7188 107.688ZM88.2188 107.688L86.7656 108.461C86.5365 107.992 86.2526 107.758 85.9141 107.758C85.7526 107.758 85.6146 107.812 85.5 107.922C85.3854 108.026 85.3281 108.161 85.3281 108.328C85.3281 108.62 85.6667 108.909 86.3438 109.195C87.276 109.596 87.9036 109.966 88.2266 110.305C88.5495 110.643 88.7109 111.099 88.7109 111.672C88.7109 112.406 88.4401 113.021 87.8984 113.516C87.3724 113.984 86.737 114.219 85.9922 114.219C84.7161 114.219 83.8125 113.596 83.2812 112.352L84.7812 111.656C84.9896 112.021 85.1484 112.253 85.2578 112.352C85.4714 112.549 85.7266 112.648 86.0234 112.648C86.6172 112.648 86.9141 112.378 86.9141 111.836C86.9141 111.523 86.6849 111.232 86.2266 110.961C86.0495 110.872 85.8724 110.786 85.6953 110.703C85.5182 110.62 85.3385 110.534 85.1562 110.445C84.6458 110.195 84.2865 109.945 84.0781 109.695C83.8125 109.378 83.6797 108.969 83.6797 108.469C83.6797 107.807 83.9062 107.26 84.3594 106.828C84.8229 106.396 85.3854 106.18 86.0469 106.18C87.0208 106.18 87.7448 106.682 88.2188 107.688ZM92.0547 106.391V114H90.2969V106.391H92.0547ZM90.0312 103.227C90.0312 102.919 90.1432 102.654 90.3672 102.43C90.5911 102.206 90.8594 102.094 91.1719 102.094C91.4896 102.094 91.7604 102.206 91.9844 102.43C92.2083 102.648 92.3203 102.917 92.3203 103.234C92.3203 103.552 92.2083 103.823 91.9844 104.047C91.7656 104.271 91.4974 104.383 91.1797 104.383C90.862 104.383 90.5911 104.271 90.3672 104.047C90.1432 103.823 90.0312 103.549 90.0312 103.227ZM101.641 113.82C101.641 114.18 101.628 114.495 101.602 114.766C101.581 115.042 101.549 115.284 101.508 115.492C101.383 116.065 101.138 116.557 100.773 116.969C100.086 117.76 99.1406 118.156 97.9375 118.156C96.9219 118.156 96.0859 117.883 95.4297 117.336C94.7526 116.773 94.362 115.995 94.2578 115H96.0234C96.0911 115.375 96.2031 115.664 96.3594 115.867C96.724 116.341 97.2552 116.578 97.9531 116.578C99.2396 116.578 99.8828 115.789 99.8828 114.211V113.148C99.1849 113.862 98.3802 114.219 97.4688 114.219C96.4323 114.219 95.5833 113.844 94.9219 113.094C94.2552 112.333 93.9219 111.383 93.9219 110.242C93.9219 109.133 94.2318 108.19 94.8516 107.414C95.5182 106.591 96.3984 106.18 97.4922 106.18C98.4505 106.18 99.2474 106.536 99.8828 107.25V106.391H101.641V113.82ZM99.9531 110.211C99.9531 109.471 99.7552 108.88 99.3594 108.438C98.9583 107.984 98.4453 107.758 97.8203 107.758C97.1536 107.758 96.6276 108.005 96.2422 108.5C95.8932 108.943 95.7188 109.516 95.7188 110.219C95.7188 110.911 95.8932 111.479 96.2422 111.922C96.6224 112.406 97.1484 112.648 97.8203 112.648C98.4922 112.648 99.0234 112.404 99.4141 111.914C99.7734 111.471 99.9531 110.904 99.9531 110.211ZM103.859 106.391H105.625V107.094C106.24 106.484 106.932 106.18 107.703 106.18C108.589 106.18 109.279 106.458 109.773 107.016C110.201 107.49 110.414 108.263 110.414 109.336V114H108.648V109.75C108.648 109 108.544 108.482 108.336 108.195C108.133 107.904 107.763 107.758 107.227 107.758C106.643 107.758 106.229 107.951 105.984 108.336C105.745 108.716 105.625 109.38 105.625 110.328V114H103.859V106.391ZM119.57 110.609H114.117C114.164 111.234 114.367 111.732 114.727 112.102C115.086 112.466 115.547 112.648 116.109 112.648C116.547 112.648 116.909 112.544 117.195 112.336C117.477 112.128 117.797 111.742 118.156 111.18L119.641 112.008C119.411 112.398 119.169 112.734 118.914 113.016C118.659 113.292 118.385 113.521 118.094 113.703C117.802 113.88 117.487 114.01 117.148 114.094C116.81 114.177 116.443 114.219 116.047 114.219C114.911 114.219 114 113.854 113.312 113.125C112.625 112.391 112.281 111.417 112.281 110.203C112.281 109 112.615 108.026 113.281 107.281C113.953 106.547 114.844 106.18 115.953 106.18C117.073 106.18 117.958 106.536 118.609 107.25C119.255 107.958 119.578 108.94 119.578 110.195L119.57 110.609ZM117.766 109.172C117.521 108.234 116.93 107.766 115.992 107.766C115.779 107.766 115.578 107.799 115.391 107.867C115.203 107.93 115.031 108.023 114.875 108.148C114.724 108.268 114.594 108.414 114.484 108.586C114.375 108.758 114.292 108.953 114.234 109.172H117.766ZM127.109 100.805H128.875V114H127.109V113.203C126.417 113.88 125.633 114.219 124.758 114.219C123.716 114.219 122.852 113.839 122.164 113.078C121.482 112.302 121.141 111.333 121.141 110.172C121.141 109.036 121.482 108.089 122.164 107.328C122.841 106.562 123.693 106.18 124.719 106.18C125.609 106.18 126.406 106.544 127.109 107.273V100.805ZM122.938 110.172C122.938 110.901 123.133 111.495 123.523 111.953C123.924 112.417 124.43 112.648 125.039 112.648C125.69 112.648 126.216 112.424 126.617 111.977C127.018 111.513 127.219 110.924 127.219 110.211C127.219 109.497 127.018 108.909 126.617 108.445C126.216 107.992 125.695 107.766 125.055 107.766C124.451 107.766 123.945 107.995 123.539 108.453C123.138 108.917 122.938 109.49 122.938 110.172ZM51.5625 124.648V135H49.7422V124.648H46.9688V122.938H54.3281V124.648H51.5625ZM54.5391 131.141C54.5391 130.042 54.9323 129.107 55.7188 128.336C56.5052 127.565 57.4635 127.18 58.5938 127.18C59.7292 127.18 60.6927 127.568 61.4844 128.344C62.2656 129.12 62.6562 130.073 62.6562 131.203C62.6562 132.344 62.263 133.299 61.4766 134.07C60.6849 134.836 59.7135 135.219 58.5625 135.219C57.4219 135.219 56.4661 134.828 55.6953 134.047C54.9245 133.276 54.5391 132.307 54.5391 131.141ZM56.3359 131.172C56.3359 131.932 56.5391 132.534 56.9453 132.977C57.362 133.424 57.9115 133.648 58.5938 133.648C59.2812 133.648 59.8307 133.427 60.2422 132.984C60.6536 132.542 60.8594 131.951 60.8594 131.211C60.8594 130.471 60.6536 129.88 60.2422 129.438C59.8255 128.99 59.276 128.766 58.5938 128.766C57.9219 128.766 57.3776 128.99 56.9609 129.438C56.5443 129.885 56.3359 130.464 56.3359 131.172ZM72.2344 129.789L68.2969 122.938H70.3906L73.1484 127.758L75.9141 122.938H78.0078L74.0547 129.789V135H72.2344V129.789ZM77.6172 131.141C77.6172 130.042 78.0104 129.107 78.7969 128.336C79.5833 127.565 80.5417 127.18 81.6719 127.18C82.8073 127.18 83.7708 127.568 84.5625 128.344C85.3438 129.12 85.7344 130.073 85.7344 131.203C85.7344 132.344 85.3411 133.299 84.5547 134.07C83.763 134.836 82.7917 135.219 81.6406 135.219C80.5 135.219 79.5443 134.828 78.7734 134.047C78.0026 133.276 77.6172 132.307 77.6172 131.141ZM79.4141 131.172C79.4141 131.932 79.6172 132.534 80.0234 132.977C80.4401 133.424 80.9896 133.648 81.6719 133.648C82.3594 133.648 82.9089 133.427 83.3203 132.984C83.7318 132.542 83.9375 131.951 83.9375 131.211C83.9375 130.471 83.7318 129.88 83.3203 129.438C82.9036 128.99 82.3542 128.766 81.6719 128.766C81 128.766 80.4557 128.99 80.0391 129.438C79.6224 129.885 79.4141 130.464 79.4141 131.172ZM89.3594 127.391V131.758C89.3594 133.018 89.8568 133.648 90.8516 133.648C91.8464 133.648 92.3438 133.018 92.3438 131.758V127.391H94.1016V131.797C94.1016 132.406 94.026 132.932 93.875 133.375C93.7292 133.771 93.4766 134.128 93.1172 134.445C92.5234 134.961 91.7682 135.219 90.8516 135.219C89.9401 135.219 89.1875 134.961 88.5938 134.445C88.2292 134.128 87.9714 133.771 87.8203 133.375C87.6745 133.021 87.6016 132.495 87.6016 131.797V127.391H89.3594Z" fill="#39374D"/>
</g>
</g>
</g>
</g>
<g id="assigned_2">
<g id="Group 29203">
<g id="Group 29153">
<circle id="Ellipse 8_2" cx="79.3281" cy="47.3418" r="25" fill="#CAF1E9"/>
</g>
<g id="Group 19502">
<circle id="Ellipse 21_5" cx="54.5" cy="22.5" r="9.5" fill="#173E62"/>
<path id="1" d="M54.1816 19.1126C54.2216 19.0886 54.2816 19.0766 54.3616 19.0766H55.8136C55.8536 19.0766 55.8856 19.0926 55.9096 19.1246C55.9416 19.1486 55.9576 19.1806 55.9576 19.2206V27.3326C55.9576 27.3726 55.9416 27.4086 55.9096 27.4406C55.8856 27.4646 55.8536 27.4766 55.8136 27.4766H54.4096C54.3696 27.4766 54.3336 27.4646 54.3016 27.4406C54.2776 27.4086 54.2656 27.3726 54.2656 27.3326V20.7566C54.2656 20.7406 54.2576 20.7246 54.2416 20.7086C54.2256 20.6926 54.2096 20.6886 54.1936 20.6966L53.0056 21.0206L52.9576 21.0326C52.8856 21.0326 52.8496 20.9886 52.8496 20.9006L52.8136 19.8686C52.8136 19.7886 52.8496 19.7326 52.9216 19.7006L54.1816 19.1126Z" fill="#FAFAFA"/>
</g>
</g>
<g id="Group_4">
<path id="Vector_26" d="M76.7304 38.9076L78.6942 37.2787L80.658 38.9076L79.908 36.2711L81.8728 34.6399H79.4444L78.6942 32L77.944 34.6399H75.5156L77.4804 36.2711L76.7304 38.9076Z" fill="black"/>
<path id="Vector_27" d="M69.2383 42.3783L71.2021 40.7494L73.1661 42.376L72.4159 39.7418L74.3797 38.1106H71.9522L71.202 35.4707L70.4509 38.1106H68.0234L69.9872 39.7418L69.2383 42.3783Z" fill="black"/>
<path id="Vector_28" d="M84.2176 42.3783L86.1816 40.7494L88.1454 42.376L87.3964 39.7418L89.3602 38.1106H86.9316L86.1816 35.4707L85.4314 38.1106H83.0039L84.9677 39.7418L84.2176 42.3783Z" fill="black"/>
<path id="Vector_29" d="M78.6921 51.8023C81.2036 51.8023 83.2474 49.4677 83.2474 46.5964C83.2474 43.7276 81.2036 41.3906 78.6921 41.3906C76.1805 41.3906 74.1367 43.7276 74.1367 46.5964C74.1367 49.4679 76.1805 51.8023 78.6921 51.8023ZM78.6921 42.5475C80.6457 42.5475 82.2351 44.3639 82.2351 46.5964C82.2351 48.829 80.6457 50.6454 78.6921 50.6454C76.7384 50.6454 75.149 48.829 75.149 46.5964C75.149 44.3639 76.7384 42.5475 78.6921 42.5475Z" fill="black"/>
<path id="Vector_30" d="M78.6938 54.1172C73.0898 54.1172 71.1016 56.9215 71.1016 59.323V59.9014H86.2861V59.323C86.2861 56.9202 84.2979 54.1172 78.6938 54.1172ZM72.1636 58.7446C72.5403 56.6184 75.0193 55.274 78.6938 55.274C82.3684 55.274 84.8474 56.6184 85.224 58.7446H72.1636Z" fill="black"/>
<path id="Vector_31" d="M70.3925 47.7877L72.3563 46.1565H69.9288L69.1786 43.5166L68.4275 46.1565H66L67.9638 47.7877L67.2148 50.4242L69.1786 48.7953L71.1426 50.4218L70.3925 47.7877Z" fill="black"/>
<path id="Vector_32" d="M91.3836 45.8296H88.955L88.205 43.1895L87.4548 45.8296H85.0273L86.9911 47.4605L86.2409 50.097L88.205 48.4705L90.1688 50.097L89.4197 47.4605L91.3836 45.8296Z" fill="black"/>
</g>
</g>
<g id="expert">
<g id="text_6">
<g id="Frame 29295">
<path id="general concept_6" d="M384.031 88.6484H379.195V91.5469H383.891V93.2578H379.195V97.2891H384.031V99H377.375V86.9375H384.031V88.6484ZM388.445 94.8828L385.711 91.3906H387.805L389.5 93.6094L391.227 91.3906H393.383L390.57 94.8828L393.828 99H391.734L389.5 96.1562L387.211 99H385.062L388.445 94.8828ZM396.781 103.141H395.023V91.3906H396.781V92.2188C397.474 91.526 398.26 91.1797 399.141 91.1797C400.188 91.1797 401.049 91.5651 401.727 92.3359C402.414 93.1016 402.758 94.0677 402.758 95.2344C402.758 96.375 402.417 97.3255 401.734 98.0859C401.057 98.8411 400.203 99.2188 399.172 99.2188C398.281 99.2188 397.484 98.862 396.781 98.1484V103.141ZM400.961 95.2422C400.961 94.513 400.763 93.9193 400.367 93.4609C399.966 92.9974 399.461 92.7656 398.852 92.7656C398.206 92.7656 397.682 92.9896 397.281 93.4375C396.88 93.8854 396.68 94.474 396.68 95.2031C396.68 95.9167 396.88 96.5052 397.281 96.9688C397.677 97.4219 398.198 97.6484 398.844 97.6484C399.453 97.6484 399.956 97.4193 400.352 96.9609C400.758 96.5026 400.961 95.9297 400.961 95.2422ZM411.547 95.6094H406.094C406.141 96.2344 406.344 96.7318 406.703 97.1016C407.062 97.4661 407.523 97.6484 408.086 97.6484C408.523 97.6484 408.885 97.5443 409.172 97.3359C409.453 97.1276 409.773 96.7422 410.133 96.1797L411.617 97.0078C411.388 97.3984 411.146 97.7344 410.891 98.0156C410.635 98.2917 410.362 98.5208 410.07 98.7031C409.779 98.8802 409.464 99.0104 409.125 99.0938C408.786 99.1771 408.419 99.2188 408.023 99.2188C406.888 99.2188 405.977 98.8542 405.289 98.125C404.602 97.3906 404.258 96.4167 404.258 95.2031C404.258 94 404.591 93.026 405.258 92.2812C405.93 91.5469 406.82 91.1797 407.93 91.1797C409.049 91.1797 409.935 91.5365 410.586 92.25C411.232 92.9583 411.555 93.9401 411.555 95.1953L411.547 95.6094ZM409.742 94.1719C409.497 93.2344 408.906 92.7656 407.969 92.7656C407.755 92.7656 407.555 92.7995 407.367 92.8672C407.18 92.9297 407.008 93.0234 406.852 93.1484C406.701 93.2682 406.57 93.4141 406.461 93.5859C406.352 93.7578 406.268 93.9531 406.211 94.1719H409.742ZM413.477 91.3906H415.234V92.0703C415.557 91.7318 415.844 91.5 416.094 91.375C416.349 91.2448 416.651 91.1797 417 91.1797C417.464 91.1797 417.948 91.3307 418.453 91.6328L417.648 93.2422C417.315 93.0026 416.99 92.8828 416.672 92.8828C415.714 92.8828 415.234 93.6068 415.234 95.0547V99H413.477V91.3906ZM421.852 93.0312V99H420.094V93.0312H419.344V91.3906H420.094V88.6016H421.852V91.3906H423.219V93.0312H421.852ZM428.836 92.6875L427.383 93.4609C427.154 92.9922 426.87 92.7578 426.531 92.7578C426.37 92.7578 426.232 92.8125 426.117 92.9219C426.003 93.026 425.945 93.1615 425.945 93.3281C425.945 93.6198 426.284 93.9089 426.961 94.1953C427.893 94.5964 428.521 94.9661 428.844 95.3047C429.167 95.6432 429.328 96.099 429.328 96.6719C429.328 97.4062 429.057 98.0208 428.516 98.5156C427.99 98.9844 427.354 99.2188 426.609 99.2188C425.333 99.2188 424.43 98.5964 423.898 97.3516L425.398 96.6562C425.607 97.0208 425.766 97.2526 425.875 97.3516C426.089 97.5495 426.344 97.6484 426.641 97.6484C427.234 97.6484 427.531 97.3776 427.531 96.8359C427.531 96.5234 427.302 96.2318 426.844 95.9609C426.667 95.8724 426.49 95.7865 426.312 95.7031C426.135 95.6198 425.956 95.5339 425.773 95.4453C425.263 95.1953 424.904 94.9453 424.695 94.6953C424.43 94.3776 424.297 93.9688 424.297 93.4688C424.297 92.8073 424.523 92.2604 424.977 91.8281C425.44 91.3958 426.003 91.1797 426.664 91.1797C427.638 91.1797 428.362 91.6823 428.836 92.6875ZM436.188 99V86.9375H438.719C439.932 86.9375 440.891 87.0573 441.594 87.2969C442.349 87.5312 443.034 87.9297 443.648 88.4922C444.893 89.6276 445.516 91.1198 445.516 92.9688C445.516 94.8229 444.867 96.3229 443.57 97.4688C442.919 98.0417 442.237 98.4401 441.523 98.6641C440.857 98.888 439.911 99 438.688 99H436.188ZM438.008 97.2891H438.828C439.646 97.2891 440.326 97.2031 440.867 97.0312C441.409 96.849 441.898 96.5599 442.336 96.1641C443.232 95.3464 443.68 94.2812 443.68 92.9688C443.68 91.6458 443.237 90.5729 442.352 89.75C441.555 89.0156 440.38 88.6484 438.828 88.6484H438.008V97.2891ZM454.406 95.6094H448.953C449 96.2344 449.203 96.7318 449.562 97.1016C449.922 97.4661 450.383 97.6484 450.945 97.6484C451.383 97.6484 451.745 97.5443 452.031 97.3359C452.312 97.1276 452.633 96.7422 452.992 96.1797L454.477 97.0078C454.247 97.3984 454.005 97.7344 453.75 98.0156C453.495 98.2917 453.221 98.5208 452.93 98.7031C452.638 98.8802 452.323 99.0104 451.984 99.0938C451.646 99.1771 451.279 99.2188 450.883 99.2188C449.747 99.2188 448.836 98.8542 448.148 98.125C447.461 97.3906 447.117 96.4167 447.117 95.2031C447.117 94 447.451 93.026 448.117 92.2812C448.789 91.5469 449.68 91.1797 450.789 91.1797C451.909 91.1797 452.794 91.5365 453.445 92.25C454.091 92.9583 454.414 93.9401 454.414 95.1953L454.406 95.6094ZM452.602 94.1719C452.357 93.2344 451.766 92.7656 450.828 92.7656C450.615 92.7656 450.414 92.7995 450.227 92.8672C450.039 92.9297 449.867 93.0234 449.711 93.1484C449.56 93.2682 449.43 93.4141 449.32 93.5859C449.211 93.7578 449.128 93.9531 449.07 94.1719H452.602ZM460.758 92.6875L459.305 93.4609C459.076 92.9922 458.792 92.7578 458.453 92.7578C458.292 92.7578 458.154 92.8125 458.039 92.9219C457.924 93.026 457.867 93.1615 457.867 93.3281C457.867 93.6198 458.206 93.9089 458.883 94.1953C459.815 94.5964 460.443 94.9661 460.766 95.3047C461.089 95.6432 461.25 96.099 461.25 96.6719C461.25 97.4062 460.979 98.0208 460.438 98.5156C459.911 98.9844 459.276 99.2188 458.531 99.2188C457.255 99.2188 456.352 98.5964 455.82 97.3516L457.32 96.6562C457.529 97.0208 457.688 97.2526 457.797 97.3516C458.01 97.5495 458.266 97.6484 458.562 97.6484C459.156 97.6484 459.453 97.3776 459.453 96.8359C459.453 96.5234 459.224 96.2318 458.766 95.9609C458.589 95.8724 458.411 95.7865 458.234 95.7031C458.057 95.6198 457.878 95.5339 457.695 95.4453C457.185 95.1953 456.826 94.9453 456.617 94.6953C456.352 94.3776 456.219 93.9688 456.219 93.4688C456.219 92.8073 456.445 92.2604 456.898 91.8281C457.362 91.3958 457.924 91.1797 458.586 91.1797C459.56 91.1797 460.284 91.6823 460.758 92.6875ZM464.594 91.3906V99H462.836V91.3906H464.594ZM462.57 88.2266C462.57 87.9193 462.682 87.6536 462.906 87.4297C463.13 87.2057 463.398 87.0938 463.711 87.0938C464.029 87.0938 464.299 87.2057 464.523 87.4297C464.747 87.6484 464.859 87.9167 464.859 88.2344C464.859 88.5521 464.747 88.8229 464.523 89.0469C464.305 89.2708 464.036 89.3828 463.719 89.3828C463.401 89.3828 463.13 89.2708 462.906 89.0469C462.682 88.8229 462.57 88.5495 462.57 88.2266ZM474.18 98.8203C474.18 99.1797 474.167 99.4948 474.141 99.7656C474.12 100.042 474.089 100.284 474.047 100.492C473.922 101.065 473.677 101.557 473.312 101.969C472.625 102.76 471.68 103.156 470.477 103.156C469.461 103.156 468.625 102.883 467.969 102.336C467.292 101.773 466.901 100.995 466.797 100H468.562C468.63 100.375 468.742 100.664 468.898 100.867C469.263 101.341 469.794 101.578 470.492 101.578C471.779 101.578 472.422 100.789 472.422 99.2109V98.1484C471.724 98.862 470.919 99.2188 470.008 99.2188C468.971 99.2188 468.122 98.8438 467.461 98.0938C466.794 97.3333 466.461 96.3828 466.461 95.2422C466.461 94.1328 466.771 93.1901 467.391 92.4141C468.057 91.5911 468.938 91.1797 470.031 91.1797C470.99 91.1797 471.786 91.5365 472.422 92.25V91.3906H474.18V98.8203ZM472.492 95.2109C472.492 94.4714 472.294 93.8802 471.898 93.4375C471.497 92.9844 470.984 92.7578 470.359 92.7578C469.693 92.7578 469.167 93.0052 468.781 93.5C468.432 93.9427 468.258 94.5156 468.258 95.2188C468.258 95.9115 468.432 96.4792 468.781 96.9219C469.161 97.4062 469.688 97.6484 470.359 97.6484C471.031 97.6484 471.562 97.4036 471.953 96.9141C472.312 96.4714 472.492 95.9036 472.492 95.2109ZM476.398 91.3906H478.164V92.0938C478.779 91.4844 479.471 91.1797 480.242 91.1797C481.128 91.1797 481.818 91.4583 482.312 92.0156C482.74 92.4896 482.953 93.263 482.953 94.3359V99H481.188V94.75C481.188 94 481.083 93.4818 480.875 93.1953C480.672 92.9036 480.302 92.7578 479.766 92.7578C479.182 92.7578 478.768 92.9505 478.523 93.3359C478.284 93.7161 478.164 94.3802 478.164 95.3281V99H476.398V91.3906ZM399.469 114.789L395.531 107.938H397.625L400.383 112.758L403.148 107.938H405.242L401.289 114.789V120H399.469V114.789ZM404.852 116.141C404.852 115.042 405.245 114.107 406.031 113.336C406.818 112.565 407.776 112.18 408.906 112.18C410.042 112.18 411.005 112.568 411.797 113.344C412.578 114.12 412.969 115.073 412.969 116.203C412.969 117.344 412.576 118.299 411.789 119.07C410.997 119.836 410.026 120.219 408.875 120.219C407.734 120.219 406.779 119.828 406.008 119.047C405.237 118.276 404.852 117.307 404.852 116.141ZM406.648 116.172C406.648 116.932 406.852 117.534 407.258 117.977C407.674 118.424 408.224 118.648 408.906 118.648C409.594 118.648 410.143 118.427 410.555 117.984C410.966 117.542 411.172 116.951 411.172 116.211C411.172 115.471 410.966 114.88 410.555 114.438C410.138 113.99 409.589 113.766 408.906 113.766C408.234 113.766 407.69 113.99 407.273 114.438C406.857 114.885 406.648 115.464 406.648 116.172ZM416.594 112.391V116.758C416.594 118.018 417.091 118.648 418.086 118.648C419.081 118.648 419.578 118.018 419.578 116.758V112.391H421.336V116.797C421.336 117.406 421.26 117.932 421.109 118.375C420.964 118.771 420.711 119.128 420.352 119.445C419.758 119.961 419.003 120.219 418.086 120.219C417.174 120.219 416.422 119.961 415.828 119.445C415.464 119.128 415.206 118.771 415.055 118.375C414.909 118.021 414.836 117.495 414.836 116.797V112.391H416.594ZM423.555 112.391H425.312V113.07C425.635 112.732 425.922 112.5 426.172 112.375C426.427 112.245 426.729 112.18 427.078 112.18C427.542 112.18 428.026 112.331 428.531 112.633L427.727 114.242C427.393 114.003 427.068 113.883 426.75 113.883C425.792 113.883 425.312 114.607 425.312 116.055V120H423.555V112.391ZM441.898 117.07H436.734L435.391 120H433.43L439.398 107.18L445.156 120H443.164L441.898 117.07ZM441.156 115.359L439.367 111.258L437.492 115.359H441.156ZM448.094 124.141H446.336V112.391H448.094V113.219C448.786 112.526 449.573 112.18 450.453 112.18C451.5 112.18 452.362 112.565 453.039 113.336C453.727 114.102 454.07 115.068 454.07 116.234C454.07 117.375 453.729 118.326 453.047 119.086C452.37 119.841 451.516 120.219 450.484 120.219C449.594 120.219 448.797 119.862 448.094 119.148V124.141ZM452.273 116.242C452.273 115.513 452.076 114.919 451.68 114.461C451.279 113.997 450.773 113.766 450.164 113.766C449.518 113.766 448.995 113.99 448.594 114.438C448.193 114.885 447.992 115.474 447.992 116.203C447.992 116.917 448.193 117.505 448.594 117.969C448.99 118.422 449.51 118.648 450.156 118.648C450.766 118.648 451.268 118.419 451.664 117.961C452.07 117.503 452.273 116.93 452.273 116.242ZM457.688 124.141H455.93V112.391H457.688V113.219C458.38 112.526 459.167 112.18 460.047 112.18C461.094 112.18 461.956 112.565 462.633 113.336C463.32 114.102 463.664 115.068 463.664 116.234C463.664 117.375 463.323 118.326 462.641 119.086C461.964 119.841 461.109 120.219 460.078 120.219C459.188 120.219 458.391 119.862 457.688 119.148V124.141ZM461.867 116.242C461.867 115.513 461.669 114.919 461.273 114.461C460.872 113.997 460.367 113.766 459.758 113.766C459.112 113.766 458.589 113.99 458.188 114.438C457.786 114.885 457.586 115.474 457.586 116.203C457.586 116.917 457.786 117.505 458.188 117.969C458.583 118.422 459.104 118.648 459.75 118.648C460.359 118.648 460.862 118.419 461.258 117.961C461.664 117.503 461.867 116.93 461.867 116.242Z" fill="#39374D"/>
</g>
</g>
<g id="Group 29202">
<g id="Group 29154_3">
<circle id="Ellipse 9_4" cx="442" cy="44.1338" r="25" fill="#CAF1E9"/>
</g>
<g id="Group 29157_4">
<circle id="Ellipse 21_6" cx="421.5" cy="11.5" r="11.5" fill="#173E62"/>
<path id="3" d="M422.875 11.992C423.035 12.36 423.115 12.784 423.115 13.264C423.115 13.696 423.043 14.096 422.899 14.464C422.707 14.976 422.383 15.376 421.927 15.664C421.479 15.952 420.947 16.096 420.331 16.096C419.723 16.096 419.187 15.944 418.723 15.64C418.267 15.336 417.939 14.924 417.739 14.404C417.627 14.092 417.563 13.756 417.547 13.396C417.547 13.3 417.595 13.252 417.691 13.252H419.107C419.203 13.252 419.251 13.3 419.251 13.396C419.283 13.66 419.327 13.856 419.383 13.984C419.455 14.192 419.571 14.356 419.731 14.476C419.899 14.588 420.095 14.644 420.319 14.644C420.767 14.644 421.075 14.448 421.243 14.056C421.355 13.816 421.411 13.536 421.411 13.216C421.411 12.84 421.351 12.532 421.231 12.292C421.047 11.916 420.739 11.728 420.307 11.728C420.219 11.728 420.127 11.756 420.031 11.812C419.935 11.86 419.819 11.932 419.683 12.028C419.651 12.052 419.619 12.064 419.587 12.064C419.539 12.064 419.503 12.04 419.479 11.992L418.771 10.996C418.755 10.972 418.747 10.944 418.747 10.912C418.747 10.864 418.763 10.824 418.795 10.792L420.703 9.124C420.719 9.108 420.723 9.092 420.715 9.076C420.715 9.06 420.703 9.052 420.679 9.052H417.859C417.819 9.052 417.783 9.04 417.751 9.016C417.727 8.984 417.715 8.948 417.715 8.908V7.744C417.715 7.704 417.727 7.672 417.751 7.648C417.783 7.616 417.819 7.6 417.859 7.6H422.863C422.903 7.6 422.935 7.616 422.959 7.648C422.991 7.672 423.007 7.704 423.007 7.744V9.064C423.007 9.128 422.979 9.188 422.923 9.244L421.351 10.684C421.335 10.7 421.327 10.716 421.327 10.732C421.335 10.748 421.355 10.756 421.387 10.756C422.083 10.892 422.579 11.304 422.875 11.992Z" fill="#FAFAFA"/>
</g>
</g>
<path id="Vector_33" d="M443.235 31C442.24 31 441.404 31.698 441.18 32.6271H433.041V31.5906C433.04 31.3195 432.819 31.1006 432.548 31.1017H429.489C429.473 31.101 429.458 31.101 429.442 31.1017C429.191 31.1269 429 31.3384 429 31.5906V34.6493C429.001 34.9191 429.219 35.1374 429.489 35.1385H432.548C432.819 35.1394 433.04 34.9205 433.041 34.6493V33.609H438.924C435.583 35.2119 433.283 38.6184 433.283 42.5782V43.397C432.353 43.6223 431.652 44.4599 431.652 45.4556C431.652 46.6215 432.61 47.5756 433.776 47.5756C434.942 47.5756 435.896 46.6215 435.896 45.4556C435.896 44.4586 435.196 43.6198 434.265 43.3959V42.5779C434.265 38.4113 437.067 34.9379 440.893 33.914L440.894 33.9142C441.024 33.8804 441.134 33.7947 441.199 33.6773C441.447 34.5732 442.263 35.2401 443.235 35.2401C444.208 35.2401 445.027 34.5719 445.275 33.6744C445.338 33.7919 445.447 33.8784 445.576 33.9142C449.402 34.9383 452.208 38.4119 452.208 42.5781V43.3961C451.277 43.6201 450.577 44.4588 450.577 45.4558C450.577 46.6217 451.531 47.5758 452.697 47.5758C453.863 47.5758 454.821 46.6217 454.821 45.4558C454.821 44.4601 454.12 43.6225 453.19 43.3972V42.5784C453.19 38.6189 450.889 35.2121 447.546 33.6092H453.432V34.6495L453.432 34.6493C453.433 34.9204 453.654 35.1394 453.925 35.1385H456.981C457.252 35.1394 457.473 34.9204 457.474 34.6493V31.5906C457.473 31.3195 457.252 31.1006 456.981 31.1017H453.925C453.908 31.1008 453.892 31.1008 453.875 31.1017H453.874C453.623 31.1269 453.432 31.3384 453.432 31.5906V32.6271L445.293 32.6273C445.068 31.6981 444.23 31.0002 443.235 31.0002L443.235 31ZM443.235 31.9782C443.871 31.9782 444.376 32.4849 444.376 33.1202C444.376 33.7556 443.871 34.2583 443.235 34.2583C442.6 34.2583 442.097 33.7556 442.097 33.1202C442.097 32.4849 442.6 31.9782 443.235 31.9782ZM429.982 32.0836H432.059V33.0751C432.057 33.1025 432.057 33.1301 432.059 33.1575V34.1567H429.982V32.0836ZM454.416 32.0836H456.492V34.1567H454.416V33.1526C454.417 33.1323 454.417 33.1117 454.416 33.0913V32.0836ZM443.243 37.1225C443.226 37.122 443.209 37.1227 443.192 37.1242H443.192C443.021 37.14 442.872 37.2432 442.796 37.3964L436.998 48.9965H436.998C436.921 49.1514 436.931 49.336 437.024 49.4817L439.528 53.3487H438.876C438.744 53.3458 438.616 53.3962 438.522 53.4887C438.427 53.581 438.374 53.7075 438.374 53.8396C438.374 53.9718 438.427 54.0985 438.522 54.1907C438.616 54.2832 438.744 54.3336 438.876 54.3306H439.923V58.9802C439.922 59.1112 439.974 59.237 440.066 59.3297C440.159 59.4224 440.285 59.4744 440.416 59.4739H446.058C446.189 59.4744 446.315 59.4224 446.408 59.3297C446.501 59.237 446.552 59.1112 446.551 58.9802V54.3308H447.598L447.599 54.3306C447.73 54.3336 447.858 54.2832 447.953 54.1907C448.047 54.0985 448.1 53.9718 448.1 53.8396C448.1 53.7075 448.047 53.581 447.953 53.4887C447.858 53.3963 447.73 53.3458 447.599 53.3487H446.947L449.451 49.4817C449.544 49.3357 449.554 49.1512 449.476 48.9965L443.678 37.3964C443.596 37.2305 443.428 37.1247 443.243 37.1223L443.243 37.1225ZM442.747 39.6922V46.2718C442.753 46.5388 442.971 46.752 443.238 46.752C443.504 46.752 443.723 46.5388 443.728 46.2718V39.7001L448.472 49.1821L445.779 53.3493H440.695L437.998 49.1821L442.747 39.6922ZM433.776 44.3149C434.412 44.3149 434.914 44.8207 434.914 45.4559C434.914 46.0912 434.412 46.594 433.776 46.594C433.141 46.594 432.635 46.0912 432.635 45.4559C432.635 44.8205 433.141 44.3149 433.776 44.3149ZM452.697 44.3149C453.333 44.3149 453.839 44.8207 453.839 45.4559C453.839 46.0912 453.333 46.594 452.697 46.594C452.062 46.594 451.559 46.0912 451.559 45.4559C451.559 44.8205 452.062 44.3149 452.697 44.3149ZM440.905 54.331H445.569V58.4915H440.905V54.331Z" fill="black"/>
</g>
</g>
</g>
</svg>
