<svg width="62" height="62" viewBox="0 0 62 62" fill="none" xmlns="http://www.w3.org/2000/svg">
<circle cx="31" cy="31" r="31" fill="#0E5295"/>
<path d="M41.625 29.4062H39.3672V21.9688C39.3672 19.6213 37.4646 17.7188 35.1172 17.7188H26.8828C24.5354 17.7188 22.6328 19.6213 22.6328 21.9688V29.4062H20.375C19.7873 29.4062 19.3125 29.8811 19.3125 30.4688V43.2188C19.3125 43.8064 19.7873 44.2812 20.375 44.2812H41.625C42.2127 44.2812 42.6875 43.8064 42.6875 43.2188V30.4688C42.6875 29.8811 42.2127 29.4062 41.625 29.4062ZM25.0234 21.9688C25.0234 20.9428 25.8568 20.1094 26.8828 20.1094H35.1172C36.1432 20.1094 36.9766 20.9428 36.9766 21.9688V29.4062H25.0234V21.9688ZM40.2969 41.8906H21.7031V31.7969H40.2969V41.8906ZM30.0703 37.2754V39.0352C30.0703 39.1812 30.1898 39.3008 30.3359 39.3008H31.6641C31.8102 39.3008 31.9297 39.1812 31.9297 39.0352V37.2754C32.2038 37.0786 32.4083 36.7999 32.514 36.4795C32.6196 36.159 32.6208 35.8134 32.5174 35.4922C32.4141 35.171 32.2115 34.8909 31.9388 34.6922C31.6661 34.4935 31.3374 34.3864 31 34.3864C30.6626 34.3864 30.3339 34.4935 30.0612 34.6922C29.7885 34.8909 29.5859 35.171 29.4826 35.4922C29.3792 35.8134 29.3804 36.159 29.486 36.4795C29.5917 36.7999 29.7962 37.0786 30.0703 37.2754Z" fill="white"/>
</svg>
