<svg width="95" height="95" viewBox="0 0 95 95" fill="none" xmlns="http://www.w3.org/2000/svg">
<g clip-path="url(#clip0_970_27764)">
<path d="M39.7001 94.5093C34.6628 94.5093 29.68 94.5093 24.6427 94.5093C24.6155 94.1271 24.6155 93.7995 24.5883 93.472C23.1179 93.7995 21.6748 94.3182 20.2045 94.4274C16.1747 94.755 12.1449 94.8096 8.38736 92.7895C0.10992 88.3125 -2.17727 77.7478 3.5407 70.0495C5.28332 67.7018 7.0804 65.3541 8.79579 62.9791C9.04085 62.6516 9.14976 62.051 9.04085 61.6415C8.30568 58.857 7.48883 56.0998 6.72643 53.3426C5.61006 49.3024 8.08785 45.9993 12.2538 45.972C13.4519 45.972 14.6499 45.972 15.848 45.972C17.8629 45.972 19.4149 46.8182 20.6129 48.4288C20.8308 48.7291 21.2936 48.9475 21.6476 48.9748C22.5734 49.0567 23.5264 49.0021 24.5338 49.0021C24.5338 44.9619 24.5338 40.9763 24.5338 36.936C29.5983 36.936 34.5811 36.936 39.6456 36.936C39.7001 56.0725 39.7001 75.2636 39.7001 94.5093ZM17.0732 64.1803C15.5212 64.1803 13.9692 64.153 12.4444 64.2076C12.0904 64.2076 11.6275 64.3987 11.4097 64.6717C9.39482 67.3197 7.35268 69.913 5.47392 72.6429C1.5258 78.403 3.40456 86.3197 9.42204 89.8412C13.1523 92.0251 17.2366 91.9978 21.1847 91.1516C29.7345 89.3498 33.4375 79.4403 28.373 72.288C26.5487 69.722 24.6155 67.2105 22.7095 64.699C22.4917 64.426 22.056 64.2349 21.7021 64.2076C20.1773 64.153 18.6253 64.1803 17.0732 64.1803ZM25.1056 62.7607C25.3779 63.1156 25.5957 63.4159 25.8136 63.7162C27.5562 66.0639 29.4077 68.3843 31.0686 70.7866C35.3707 77.038 34.3633 85.4188 28.7542 90.5237C28.4547 90.7967 28.1552 91.0424 27.774 91.3972C30.8236 91.3972 33.7643 91.3972 36.7049 91.3972C36.7049 74.199 36.7049 57.0553 36.7049 39.9116C33.6826 39.9116 30.7147 39.9116 27.6651 39.9116C27.6651 43.0783 27.6651 46.163 27.6923 49.2478C27.6923 49.4935 27.9374 49.8211 28.128 49.9849C31.2865 52.3872 31.586 56.2636 28.7815 59.1027C27.5834 60.3311 26.3581 61.5323 25.1056 62.7607ZM18.5708 55.0079C18.5708 53.834 18.598 52.7148 18.5708 51.6228C18.5436 50.0122 17.5633 49.0021 15.9841 48.9748C14.6499 48.9475 13.3429 48.9475 12.0087 48.9748C10.2117 49.0294 9.14976 50.4763 9.61264 52.2234C10.2934 54.6803 11.0013 57.1372 11.7092 59.5941C11.8454 60.0855 12.0087 60.6041 12.1721 61.1228C15.494 61.1228 18.7614 61.1228 22.0016 61.1228C22.2466 61.1228 22.5734 61.0136 22.764 60.8498C24.1799 59.4576 25.623 58.0926 26.9572 56.6185C28.373 55.0352 27.6106 52.551 25.5685 52.1688C24.316 51.9231 22.9546 52.1142 21.5932 52.1142C21.5932 53.097 21.5932 54.0524 21.5932 55.0079C20.5585 55.0079 19.6327 55.0079 18.5708 55.0079Z" fill="#1F1D59"/>
<path d="M16.554 95.0005C13.7767 95.0005 10.9449 94.6183 8.19482 93.1442C4.16502 90.9875 1.30603 87.2203 0.353035 82.8252C-0.627188 78.3482 0.407492 73.5982 3.23925 69.8036C3.81105 69.0393 4.38284 68.2476 4.98187 67.4832C6.15269 65.9272 7.35074 64.3439 8.49434 62.7332C8.65771 62.4875 8.76662 62.0235 8.68493 61.7232C8.19482 59.9214 7.67748 58.0651 7.18737 56.2907C6.91509 55.3352 6.6428 54.3798 6.37052 53.4243C5.79872 51.3496 6.09823 49.3841 7.2146 47.8553C8.33097 46.3539 10.1553 45.5349 12.2791 45.5349C12.9598 45.5349 13.6405 45.5349 14.294 45.5349C14.8113 45.5349 15.3559 45.5349 15.8732 45.5349C17.9426 45.5349 19.658 46.4085 20.9377 48.1556C21.0739 48.3467 21.4278 48.5105 21.6729 48.5378C22.3264 48.5924 22.9799 48.5924 23.6606 48.5651C23.8239 48.5651 23.9601 48.5651 24.1235 48.5651V36.499H40.0521V94.9186H24.2596L24.2051 93.9631C23.9056 94.045 23.6061 94.1269 23.3066 94.1815C22.2991 94.4545 21.2917 94.7275 20.2298 94.8094C19.0317 94.9186 17.8065 95.0005 16.554 95.0005ZM13.3955 46.3539C13.0415 46.3539 12.6603 46.3539 12.3063 46.3539C10.4276 46.3539 8.84831 47.0637 7.89531 48.374C6.91509 49.6571 6.67003 51.3769 7.18737 53.2059C7.45966 54.1614 7.73194 55.1168 8.00422 56.0723C8.52156 57.8467 9.0389 59.7031 9.52902 61.5048C9.66516 62.0235 9.52902 62.7605 9.20227 63.1973C8.05868 64.8079 6.8334 66.3913 5.66258 67.9473C5.09078 68.7117 4.49176 69.5033 3.91996 70.2677C1.25157 73.8712 0.244121 78.3755 1.19712 82.6068C2.12288 86.7562 4.8185 90.3324 8.63048 92.3798C12.388 94.3999 16.4178 94.2907 20.2026 93.9904C21.1828 93.9085 22.1086 93.6628 23.116 93.3898C23.5789 93.2806 24.0418 93.1441 24.5047 93.035L24.9675 92.9258L25.022 94.0723H39.2625V37.2907H24.9948V49.4114H24.5863C24.2868 49.4114 24.0145 49.4114 23.7423 49.4114C23.0343 49.4114 22.3536 49.4387 21.6729 49.3841C21.1828 49.3295 20.611 49.0292 20.3387 48.6743C19.1951 47.1183 17.752 46.3812 15.9277 46.3812C15.7099 46.3812 15.492 46.3812 15.2742 46.3812C14.6207 46.3539 14.0217 46.3539 13.3955 46.3539ZM16.5812 92.0795C13.8311 92.0795 11.3805 91.4516 9.2295 90.1959C6.23438 88.4487 4.08333 85.5005 3.32093 82.0881C2.55854 78.7031 3.21202 75.2361 5.17247 72.397C6.69726 70.1585 8.35819 68.0019 9.96467 65.8999C10.3459 65.4085 10.7271 64.9171 11.1083 64.3985C11.4078 64.0163 12.0068 63.7979 12.4425 63.7706C13.5861 63.7433 14.7296 63.7433 15.846 63.7433C16.6629 63.7433 17.4797 63.7433 18.2966 63.7433C19.4129 63.7433 20.5838 63.7433 21.7274 63.7706C22.2175 63.7979 22.762 64.0709 23.0343 64.4258L23.6061 65.1628C25.3215 67.374 27.0641 69.6944 28.7251 72.0148C31.2301 75.5364 31.7746 80.0134 30.2499 83.9717C28.7251 87.9028 25.4576 90.6327 21.2917 91.5335C19.6035 91.8884 18.0515 92.0795 16.5812 92.0795ZM14.6207 64.5622C13.9128 64.5622 13.1776 64.5623 12.4697 64.5895C12.1974 64.5895 11.8707 64.726 11.7617 64.8898C11.3805 65.3812 10.9994 65.8726 10.6182 66.3913C9.01168 68.4933 7.35074 70.6499 5.85318 72.8611C4.02887 75.5364 3.42985 78.7304 4.13779 81.9243C4.84573 85.091 6.86063 87.8482 9.66516 89.4861C12.8237 91.3424 16.4723 91.7246 21.1283 90.7418C25.022 89.9229 28.0443 87.3568 29.4875 83.6987C30.9306 80.0134 30.4132 75.8094 28.0716 72.5062C26.4379 70.1858 24.668 67.8927 22.9799 65.6815L22.4081 64.9444C22.2719 64.7806 21.9452 64.6168 21.7001 64.6168C20.5838 64.5895 19.4129 64.5895 18.2966 64.5895C17.4797 64.5895 16.6629 64.5895 15.8188 64.5895C15.4376 64.5895 15.0292 64.5622 14.6207 64.5622ZM37.1114 91.8338H26.7102L27.8538 90.7965C28.0716 90.6054 28.2622 90.4143 28.48 90.2505C33.9801 85.2275 34.9331 77.147 30.74 71.0321C29.5964 69.3941 28.3711 67.7562 27.173 66.1729C26.6012 65.4358 26.0567 64.6987 25.4849 63.9617C25.3215 63.7706 25.1854 63.5522 25.022 63.3338L24.5591 62.7059L24.8042 62.4602C25.2126 62.0781 25.5938 61.6686 25.975 61.2864C26.8191 60.4401 27.6359 59.6485 28.4528 58.8295C29.7325 57.5464 30.3588 55.9904 30.2499 54.4344C30.1409 52.8783 29.2969 51.4315 27.8538 50.3122C27.5542 50.0939 27.2547 49.6571 27.2547 49.2749C27.2275 46.818 27.2275 44.3884 27.2275 41.8496V39.5292H37.0842V91.8338H37.1114ZM28.834 91.0148H36.2946V40.3482H28.0716V41.8496C28.0716 44.3884 28.0716 46.818 28.0988 49.2749C28.0988 49.3295 28.2077 49.5479 28.3983 49.6844C30.032 50.9401 30.985 52.6053 31.1212 54.3798C31.2573 56.1815 30.5221 57.9559 29.079 59.4028C28.2622 60.2217 27.4453 61.0407 26.6012 61.887C26.3017 62.1872 25.975 62.4875 25.6755 62.8151L25.7299 62.8697C25.8933 63.0881 26.0294 63.2792 26.1928 63.4976C26.7374 64.2347 27.3092 64.9717 27.8538 65.7088C29.0518 67.2921 30.3043 68.9301 31.4479 70.5953C35.8861 77.0378 34.8787 85.5824 29.079 90.8783C28.9429 90.9329 28.8884 90.9602 28.834 91.0148ZM16.2544 61.5594C15.5737 61.5594 14.893 61.5594 14.2123 61.5594H11.8434L11.6256 60.795C11.5167 60.4401 11.4078 60.1125 11.3261 59.7576C11.1355 59.1025 10.9449 58.4473 10.7543 57.7921C10.237 56.0177 9.71962 54.1887 9.2295 52.387C8.95722 51.4042 9.12059 50.476 9.63793 49.7663C10.1553 49.0565 10.9994 48.647 12.0068 48.6197C13.1776 48.5924 14.4301 48.5924 15.9822 48.6197C17.7792 48.647 18.9501 49.8482 18.9773 51.6772C18.9773 52.4416 18.9773 53.1786 18.9773 53.9703C18.9773 54.1887 18.9773 54.4071 18.9773 54.6528H21.1556V51.7591H21.564C21.9724 51.7591 22.4081 51.7318 22.8165 51.7318C23.7423 51.7045 24.6953 51.6499 25.5938 51.8137C26.6829 52.0048 27.527 52.7691 27.881 53.8065C28.2349 54.8985 27.9899 56.0996 27.2003 56.9459C26.1111 58.1743 24.9131 59.3209 23.7695 60.4401C23.5244 60.6858 23.2521 60.9315 23.0071 61.2045C22.7076 61.4775 22.2719 61.5867 21.9724 61.5867C20.0664 61.5321 18.1877 61.5594 16.2544 61.5594ZM12.4697 60.7404H14.2123C16.8807 60.7404 19.4129 60.7404 21.9724 60.7404C22.163 60.7404 22.3536 60.6585 22.4353 60.5766C22.6803 60.3309 22.9526 60.0852 23.1977 59.8122C24.3413 58.693 25.5121 57.5464 26.6012 56.3453C27.2003 55.6901 27.3909 54.8166 27.0914 53.9976C26.8463 53.2332 26.22 52.6872 25.4304 52.5508C24.6136 52.387 23.7423 52.4416 22.8165 52.4689C22.517 52.4689 22.2175 52.4962 21.918 52.4962V55.4171H18.106V55.0076C18.106 54.6255 18.106 54.2706 18.106 53.9157C18.106 53.124 18.106 52.387 18.106 51.6226C18.0787 50.2576 17.2619 49.4114 15.9277 49.3841C14.3757 49.3568 13.1232 49.3568 11.9796 49.3841C11.2444 49.4114 10.6454 49.6844 10.2642 50.203C9.88299 50.7217 9.77407 51.4042 9.9919 52.114C10.482 53.9157 11.0266 55.7447 11.5167 57.5191C11.7073 58.1743 11.8979 58.8295 12.0885 59.4847C12.1974 59.8395 12.2791 60.1671 12.388 60.522L12.4697 60.7404Z" fill="#1F1D59"/>
<path d="M32.6458 22.9309C31.5838 25.5788 30.0863 27.872 27.9352 29.6737C22.898 33.8504 17.2345 34.997 11.1353 32.6493C5.06335 30.3288 1.44197 25.7426 0.570663 19.2182C-0.654617 10.2915 5.63515 1.91074 14.3755 0.600397C23.497 -0.764546 31.9378 5.2412 33.4354 14.2771C33.7077 15.8332 33.5715 17.4711 33.5443 19.0817C33.5171 19.7369 33.5443 20.0918 34.3067 20.2829C37.683 21.1564 41.0593 22.0846 44.4357 23.0128C44.8441 23.122 45.1164 23.2038 45.4703 22.7671C48.3838 18.9998 53.3394 19.3274 55.7355 23.4222C55.7899 23.5041 55.8444 23.586 55.9533 23.7498C57.9954 23.4222 60.0648 23.0947 62.1341 22.6852C62.3792 22.6306 62.597 22.1665 62.6787 21.8389C63.3867 18.7541 66.3546 16.6794 69.4041 17.1435C72.6171 17.6622 74.8771 20.474 74.6048 23.6679C74.6048 23.7498 74.6048 23.859 74.5775 23.9409C73.8696 25.2786 74.7137 25.9064 75.6667 26.6435C80.35 30.1105 85.006 33.6593 89.6893 37.1536C89.9344 37.3447 90.2067 37.5084 90.6423 37.8633C90.3428 35.9797 90.0705 34.3145 89.7982 32.5674C90.7785 32.4036 91.7315 32.2398 92.7661 32.076C93.3652 35.6521 93.937 39.1191 94.536 42.6952C90.9691 43.2958 87.511 43.8691 83.9714 44.4697C83.808 43.4596 83.6446 42.5587 83.454 41.4941C85.2511 41.1938 86.9937 40.8662 89.0358 40.5113C83.3451 36.2254 77.8449 32.1033 72.372 27.9811C68.4784 30.6018 64.6664 28.9639 62.9782 25.688C60.9633 26.0156 58.894 26.3432 56.8518 26.7254C56.6068 26.78 56.3345 27.2168 56.28 27.5171C55.6538 30.1924 53.3938 32.1579 50.7254 32.2944C47.9754 32.4309 45.4976 30.7383 44.6263 28.1176C44.599 28.0357 44.5446 27.9265 44.5446 27.8447C44.6535 26.2067 43.5644 25.8791 42.2574 25.5515C39.0717 24.7599 35.9132 23.8317 32.6458 22.9309ZM17.0439 3.43948C9.55605 3.43948 3.42965 9.55442 3.42965 17.0616C3.42965 24.6234 9.55605 30.7656 17.0711 30.7656C24.5589 30.7656 30.6853 24.6234 30.6853 17.1435C30.6853 9.58172 24.5589 3.43948 17.0439 3.43948ZM71.5824 23.1493C71.5824 21.5113 70.1938 20.1464 68.5601 20.1464C66.9264 20.1464 65.5377 21.5113 65.5377 23.1493C65.5105 24.8418 66.9264 26.234 68.6145 26.2067C70.221 26.1794 71.5824 24.8145 71.5824 23.1493ZM53.3938 26.2067C53.3938 24.5688 52.0324 23.1765 50.3715 23.1765C48.7105 23.1765 47.3491 24.5142 47.3219 26.1794C47.2947 27.872 48.7105 29.2642 50.3715 29.2642C52.0324 29.2369 53.3938 27.8447 53.3938 26.2067Z" fill="#1F1D59"/>
<path d="M83.6184 44.8787L82.9649 41.1115L88.0294 40.2379L72.3458 28.4448C70.576 29.564 68.6972 29.9189 66.9273 29.4548C65.212 29.0181 63.6872 27.7896 62.7342 26.0971C62.353 26.1517 61.9718 26.2063 61.6178 26.2882C60.093 26.5339 58.5138 26.7796 56.9617 27.0798C56.8801 27.1344 56.7167 27.3801 56.6622 27.5712C55.9815 30.4376 53.5582 32.5123 50.7264 32.6761C47.7585 32.8399 45.1446 31.0382 44.2188 28.2264C44.2188 28.1991 44.2188 28.1991 44.1916 28.1718C44.1644 28.0899 44.1099 27.9534 44.1099 27.7896C44.1916 26.5612 43.5653 26.2882 42.1222 25.9333C39.8623 25.3873 37.6568 24.7594 35.3151 24.1043C34.4983 23.8859 33.6814 23.6402 32.8646 23.4218C31.6938 26.179 30.169 28.3356 28.1813 30.0008C22.9262 34.3959 17.1538 35.406 11.0001 33.031C4.81929 30.656 1.06177 25.906 0.16323 19.2997C-0.435795 14.8773 0.707799 10.4548 3.40341 6.8241C6.09903 3.19335 9.96546 0.845653 14.322 0.190481C23.7158 -1.20176 32.2928 4.94048 33.8448 14.1948C34.0626 15.5324 34.0082 16.8974 33.9809 18.2077C33.9809 18.508 33.9537 18.781 33.9537 19.0813C33.9265 19.6819 33.9537 19.7638 34.4166 19.873C37.2756 20.61 40.1618 21.4017 42.9663 22.1661L44.5456 22.6028C44.9268 22.712 44.9812 22.712 45.1446 22.4936C46.6149 20.5827 48.6843 19.5727 50.8081 19.7092C52.9319 19.8457 54.8651 21.1287 56.0904 23.2034C56.1177 23.2307 56.1177 23.258 56.1449 23.2853C56.5261 23.2307 56.9073 23.1488 57.2885 23.0942C58.8405 22.8485 60.447 22.5755 62.0262 22.2752C62.1079 22.1934 62.2441 21.9477 62.2985 21.7293C63.0609 18.4261 66.2194 16.2149 69.4868 16.7336C72.9176 17.2796 75.3137 20.2551 75.0414 23.6948C75.0414 23.7221 75.0414 23.7221 75.0414 23.7494C75.0414 23.8586 75.0414 23.9951 74.9597 24.1316C74.4424 25.1143 74.9053 25.5238 75.9399 26.2882C79.3707 28.827 82.8287 31.4204 86.1506 33.9592C87.4031 34.9146 88.6829 35.8701 89.9354 36.8255C89.9898 36.8528 90.0443 36.9074 90.0987 36.9347L89.3091 32.212L93.0666 31.5842L94.9726 42.9951L83.6184 44.8787ZM83.9179 41.7666L84.2991 43.9232L94.0469 42.2853L92.4131 32.485L90.2621 32.8399L91.1879 38.7092L89.9626 37.8356C89.7448 37.6718 89.5814 37.5626 89.418 37.4261C88.1655 36.4707 86.8858 35.5152 85.6333 34.5597C82.2842 32.0482 78.8262 29.4275 75.4226 26.9161C74.4424 26.2063 73.3532 25.3873 74.1973 23.7494V23.7221C74.1973 23.6948 74.1973 23.6402 74.1973 23.6129C74.4424 20.61 72.3458 18.0166 69.3234 17.5252C66.4917 17.0885 63.7416 18.9994 63.0609 21.8931C63.0065 22.1661 62.7069 22.9304 62.1896 23.0396C60.5831 23.3399 58.9766 23.6129 57.3974 23.8586C56.9345 23.9405 56.4716 24.0224 56.0087 24.077L55.7365 24.1316L55.4914 23.7767C55.4369 23.6948 55.4097 23.6402 55.3553 23.5856C54.2661 21.7566 52.578 20.61 50.7264 20.5008C48.8749 20.3916 47.0506 21.2925 45.7709 22.9577C45.2535 23.6129 44.7362 23.4764 44.3005 23.3672L42.7213 22.9304C39.9167 22.1661 37.0305 21.3744 34.1988 20.6373C33.1096 20.3643 33.1096 19.6546 33.1369 19.0267C33.1369 18.7264 33.1641 18.4534 33.1641 18.1531C33.2185 16.8701 33.2458 15.5324 33.0552 14.2767C31.5576 5.51376 23.3891 -0.328197 14.4309 1.00945C5.79951 2.29249 -0.217968 10.4548 0.980083 19.1632C1.85139 25.5511 5.33663 29.9735 11.2997 32.2666C17.1538 34.5051 22.6811 33.5497 27.6912 29.3457C29.6516 27.7077 31.1492 25.5511 32.2928 22.7666L32.4289 22.439L32.7829 22.5482C33.7359 22.8212 34.6617 23.0669 35.5874 23.3399C37.9018 23.9951 40.1073 24.5957 42.3673 25.1416C43.5653 25.4419 45.0629 25.7968 44.9812 27.8169V27.8442C45.0085 27.8988 45.0085 27.9261 45.0357 27.9807C45.8525 30.4376 48.1397 32.0209 50.7264 31.8844C53.177 31.748 55.3008 29.9189 55.8998 27.4074C55.9815 27.0798 56.3083 26.3974 56.7984 26.2882C58.3776 25.9879 59.9569 25.7149 61.5089 25.4692C61.9718 25.3873 62.4619 25.3054 62.9248 25.2508L63.2243 25.1962L63.3604 25.4692C64.2045 27.0798 65.5931 28.2537 67.1724 28.6632C68.7789 29.0727 70.5215 28.7178 72.1552 27.5985L72.4003 27.4347L90.0443 40.702L83.9179 41.7666ZM17.0449 31.1747C13.3146 31.1747 9.77487 29.7005 7.13371 27.0525C4.46532 24.3773 2.99499 20.8284 3.02222 17.0612C3.02222 9.3356 9.33921 3.02956 17.0449 3.02956C20.8024 3.02956 24.3148 4.5037 26.9832 7.15169C29.6516 9.82697 31.0947 13.3758 31.0947 17.1158C31.0675 24.8686 24.7777 31.1747 17.0449 31.1747ZM17.0449 3.43904V3.84853C9.77487 3.84853 3.83907 9.77238 3.83907 17.0612C3.83907 20.61 5.20049 23.9405 7.70551 26.452C10.2105 28.9635 13.5324 30.3557 17.0449 30.3557C24.3148 30.3557 30.2506 24.4319 30.2506 17.1431C30.2506 13.5942 28.8892 10.2638 26.3842 7.75226C23.8792 5.24077 20.5573 3.84853 17.0449 3.84853V3.43904ZM50.3725 29.6459C49.4739 29.6459 48.6026 29.2911 47.9491 28.6359C47.2956 27.9807 46.9144 27.0798 46.9417 26.1517C46.9689 24.2681 48.4937 22.7393 50.3725 22.7393C50.3725 22.7393 50.3725 22.7393 50.3997 22.7393C52.2784 22.7393 53.8032 24.2954 53.8032 26.179C53.8032 28.0626 52.2784 29.6186 50.3997 29.6459H50.3725ZM50.3725 23.5856C48.9566 23.5856 47.7858 24.7321 47.7585 26.179C47.7585 26.8888 48.0308 27.5439 48.5209 28.0626C49.0383 28.5813 49.6917 28.8543 50.3997 28.827C51.8156 28.7997 52.9864 27.5985 52.9864 26.2063C52.9864 24.7867 51.7883 23.5856 50.3725 23.5856ZM68.5338 26.6158C67.6353 26.6158 66.764 26.2609 66.1105 25.6057C65.457 24.9505 65.0758 24.077 65.103 23.1488C65.1303 21.2652 66.6551 19.7365 68.5338 19.7365C70.4126 19.7365 71.9646 21.2652 71.9646 23.1488C71.9646 25.0324 70.467 26.5885 68.5883 26.6158C68.5883 26.6158 68.561 26.6158 68.5338 26.6158ZM68.5338 20.5554C67.0907 20.5554 65.9199 21.7293 65.9199 23.1488C65.9199 23.8586 66.1922 24.5138 66.7095 25.0324C67.2269 25.5511 67.8803 25.8241 68.5883 25.7968C70.0042 25.7695 71.175 24.5684 71.175 23.1488C71.1477 21.7566 69.9497 20.5554 68.5338 20.5554Z" fill="#1F1D59"/>
<path d="M61.0469 38.4099C66.0841 38.4099 71.0397 38.4099 76.077 38.4099C76.077 57.1096 76.077 75.782 76.077 94.5091C71.0669 94.5091 66.0841 94.5091 61.0469 94.5091C61.0469 75.8366 61.0469 57.1642 61.0469 38.4099ZM64.0692 41.4401C64.0692 58.1743 64.0692 74.7993 64.0692 91.4243C67.1188 91.4243 70.0867 91.4243 73.0546 91.4243C73.0546 74.7174 73.0546 58.0924 73.0546 41.4401C70.0323 41.4401 67.0916 41.4401 64.0692 41.4401Z" fill="#1F1D59"/>
<path d="M76.4837 94.9186H60.6367V38.0005H76.4837V94.9186ZM61.4536 94.0996H75.6668V38.8195H61.4536V94.0996ZM73.4341 91.8338H63.6318V41.0307H73.4341V91.8338ZM64.4759 91.0148H72.6445V41.8496H64.4759V91.0148Z" fill="#1F1D59"/>
<path d="M42.8516 45.9983C47.8888 45.9983 52.8716 45.9983 57.8817 45.9983C57.8817 62.1592 57.8817 78.2655 57.8817 94.4811C52.8989 94.4811 47.9161 94.4811 42.8516 94.4811C42.8516 78.3474 42.8516 62.2138 42.8516 45.9983ZM45.8739 91.4509C48.9235 91.4509 51.8914 91.4509 54.8593 91.4509C54.8593 77.2555 54.8593 63.142 54.8593 49.0558C51.837 49.0558 48.8691 49.0558 45.8739 49.0558C45.8739 63.1966 45.8739 77.2828 45.8739 91.4509Z" fill="#1F1D59"/>
<path d="M58.2923 94.8633H42.4453V45.5889H58.2923V94.8633ZM43.2622 94.0443H57.4754V46.4078H43.2622V94.0443ZM55.2427 91.8604H45.4404V48.619H55.2427V91.8604ZM46.2845 91.0415H54.4531V49.438H46.2845V91.0415Z" fill="#1F1D59"/>
<path d="M94.2332 94.5359C89.3593 94.5359 84.5127 94.5359 79.6932 94.5359C79.5299 94.5359 79.3937 94.5087 79.2031 94.5087C79.2031 80.3678 79.2031 66.2816 79.2031 52.1135C84.1859 52.1135 89.1687 52.1135 94.2332 52.1135C94.2332 66.1997 94.2332 80.3132 94.2332 94.5359ZM91.1836 91.4512C91.1836 79.2759 91.1836 67.1825 91.1836 55.1164C88.1341 55.1164 85.1662 55.1164 82.2255 55.1164C82.2255 67.2644 82.2255 79.3305 82.2255 91.4512C85.2206 91.4512 88.1885 91.4512 91.1836 91.4512Z" fill="#1F1D59"/>
<path d="M90.5596 94.9455C86.9109 94.9455 83.3168 94.9455 79.6954 94.9455C79.5865 94.9455 79.4776 94.9455 79.3414 94.9182C79.287 94.9182 79.2325 94.9182 79.1781 94.8909L78.7969 94.8636V51.7041H94.6438V94.9728H92.4111C91.7848 94.9455 91.1586 94.9455 90.5596 94.9455ZM79.6137 94.1265C79.641 94.1265 79.6682 94.1265 79.6954 94.1265C83.9158 94.1265 88.1362 94.1265 92.3839 94.1265H93.7997V52.5231H79.5865V94.1265H79.6137ZM91.5942 91.8607H81.8192V54.7343H91.5942V91.8607ZM82.6361 91.0418H90.7774V55.5532H82.6361V91.0418Z" fill="#1F1D59"/>
<path d="M17.0712 64.1802C18.6232 64.1802 20.1752 64.1529 21.7 64.2075C22.054 64.2075 22.4897 64.4259 22.7075 64.6988C24.6135 67.2103 26.5467 69.6945 28.371 72.2879C33.4355 79.4675 29.7597 89.3497 21.1827 91.1514C17.2346 91.9977 13.1503 92.025 9.42001 89.8411C3.40253 86.3195 1.52377 78.4029 5.47189 72.6428C7.35065 69.9129 9.39279 67.2922 11.4077 64.6715C11.5983 64.3986 12.0884 64.2348 12.4424 64.2075C13.9672 64.1529 15.5192 64.1802 17.0712 64.1802ZM12.5513 79.4129C12.279 81.9517 12.7691 83.9991 15.2197 85.1184C15.383 85.2003 15.492 85.5825 15.5192 85.8281C15.5464 86.7017 15.5192 87.5753 15.5192 88.4215C16.6083 88.4215 17.5341 88.4215 18.5415 88.4215C18.5415 87.5207 18.5143 86.6744 18.5688 85.8281C18.596 85.5552 18.7866 85.173 19.0044 85.0365C20.6381 84.1902 21.5639 82.8799 21.5367 81.0235C21.5094 79.1399 20.502 77.8296 18.8138 77.0379C17.9697 76.6284 17.1257 76.1917 16.2816 75.7549C15.6826 75.4546 15.3558 74.9359 15.5464 74.2807C15.737 73.571 16.2544 73.298 16.9623 73.2707C18.0242 73.2434 18.4326 73.8713 18.6232 74.7448C19.6307 74.7448 20.5837 74.7448 21.5639 74.7448C21.5367 72.8885 20.747 71.5509 19.1406 70.7319C18.6777 70.4862 18.5143 70.2405 18.5143 69.7218C18.5688 68.9029 18.5143 68.0839 18.5143 67.2649C17.4524 67.2649 16.4994 67.2649 15.492 67.2649C15.492 68.1385 15.5464 68.9575 15.4647 69.7764C15.4375 70.104 15.1924 70.5135 14.9202 70.6773C13.3954 71.5509 12.4968 72.8066 12.4968 74.581C12.4968 76.3828 13.3954 77.6931 14.9746 78.5121C15.8459 78.9488 16.7172 79.3856 17.5885 79.8224C18.2693 80.1773 18.7049 80.696 18.4326 81.4876C18.1603 82.2793 17.4796 82.4431 16.7445 82.3612C15.9276 82.252 15.5192 81.7879 15.492 80.969C15.492 80.4503 15.492 79.9316 15.492 79.3856C14.4573 79.4129 13.5315 79.4129 12.5513 79.4129Z" fill="#159E83"/>
<path d="M18.5678 55.0076C19.6297 55.0076 20.5555 55.0076 21.5629 55.0076C21.5629 54.0249 21.5629 53.0967 21.5629 52.1139C22.9243 52.1139 24.2858 51.9229 25.5383 52.1685C27.6076 52.5507 28.3428 55.0622 26.9269 56.6182C25.5927 58.0924 24.1496 59.4573 22.7337 60.8496C22.5704 61.0134 22.2436 61.1225 21.9713 61.1225C18.7312 61.1498 15.491 61.1225 12.1419 61.1225C11.9785 60.6039 11.8424 60.1125 11.679 59.5938C10.9711 57.1369 10.2631 54.68 9.58241 52.2231C9.09229 50.476 10.1814 49.0292 11.9785 48.9746C13.3127 48.9473 14.6197 48.9473 15.9539 48.9746C17.5331 49.0019 18.5133 50.0119 18.5406 51.6226C18.5678 52.7418 18.5678 53.8338 18.5678 55.0076Z" fill="#159E83"/>
<path d="M17.0439 3.43994C24.5862 3.43994 30.7126 9.58218 30.6853 17.144C30.6853 24.6511 24.559 30.7661 17.0711 30.7661C9.55608 30.7661 3.42969 24.6238 3.42969 17.0621C3.42969 9.55488 9.55609 3.43994 17.0439 3.43994ZM12.5512 18.6727C12.2789 21.1569 12.7418 23.2316 15.1924 24.3782C15.383 24.4601 15.4919 24.8695 15.5191 25.1425C15.5736 25.9888 15.5463 26.8351 15.5463 27.6813C16.6082 27.6813 17.5612 27.6813 18.5687 27.6813C18.5687 26.7532 18.5415 25.9069 18.5959 25.0606C18.6232 24.8149 18.7865 24.4601 19.0044 24.3509C20.6925 23.5046 21.6183 22.167 21.5911 20.2833C21.5638 18.3451 20.4747 17.0621 18.7593 16.2704C17.9697 15.8882 17.18 15.4787 16.3904 15.0965C15.7642 14.769 15.4102 14.2503 15.628 13.5405C15.8186 12.8853 16.3087 12.6124 16.9894 12.5851C18.0514 12.5305 18.5142 13.131 18.6504 14.0319C19.6578 14.0319 20.6108 14.0319 21.6183 14.0319C21.5638 12.2029 20.8014 10.8379 19.2222 10.0736C18.7048 9.82787 18.5415 9.52759 18.5687 8.98161C18.5959 8.16264 18.5687 7.37098 18.5687 6.55201C17.5068 6.55201 16.5538 6.55201 15.5463 6.55201C15.5463 7.45287 15.6008 8.29914 15.5191 9.1181C15.4919 9.41839 15.2468 9.80057 15.0018 9.93707C13.4498 10.8106 12.524 12.0937 12.524 13.8954C12.5512 15.6971 13.4497 17.0075 15.0562 17.7991C15.9275 18.2359 16.7988 18.6727 17.6702 19.1095C18.3236 19.4371 18.7321 19.9557 18.487 20.7201C18.2147 21.5664 17.5068 21.7302 16.7172 21.621C15.9548 21.5118 15.5463 21.0477 15.5191 20.256C15.4919 19.7374 15.5191 19.1914 15.5191 18.6454C14.5117 18.6727 13.5587 18.6727 12.5512 18.6727Z" fill="#159E83"/>
<path d="M12.5515 79.4122C13.5317 79.4122 14.4575 79.4122 15.5194 79.4122C15.5194 79.9309 15.5194 80.4769 15.5194 80.9955C15.5466 81.8145 15.9551 82.3059 16.7719 82.3878C17.5343 82.4697 18.1878 82.3059 18.4601 81.5142C18.7324 80.6952 18.2967 80.1766 17.616 79.849C16.7447 79.4122 15.8734 78.9754 15.0021 78.5386C13.3956 77.7197 12.5243 76.4093 12.5243 74.6076C12.5243 72.8332 13.4228 71.5774 14.9476 70.7039C15.2199 70.5401 15.465 70.1306 15.4922 69.803C15.5739 68.984 15.5194 68.1651 15.5194 67.2915C16.5269 67.2915 17.5071 67.2915 18.5418 67.2915C18.5418 68.1378 18.569 68.9567 18.5418 69.7484C18.5145 70.2671 18.6779 70.5128 19.168 70.7585C20.7745 71.5774 21.5641 72.9151 21.5913 74.7714C20.6111 74.7714 19.6581 74.7714 18.6507 74.7714C18.4873 73.8978 18.0789 73.2427 16.9897 73.2973C16.2818 73.3246 15.7645 73.6248 15.5739 74.3073C15.4105 74.9625 15.71 75.4812 16.309 75.7815C17.1531 76.2182 17.9972 76.655 18.8413 77.0645C20.5294 77.8562 21.5369 79.1665 21.5641 81.0501C21.5913 82.9064 20.6384 84.2168 19.0319 85.0631C18.814 85.1723 18.5962 85.5817 18.5962 85.8547C18.5418 86.701 18.569 87.5473 18.569 88.4481C17.5615 88.4481 16.6085 88.4481 15.5466 88.4481C15.5466 87.6019 15.5739 86.7283 15.5466 85.8547C15.5466 85.609 15.4377 85.2269 15.2471 85.145C12.7693 83.9984 12.2792 81.9237 12.5515 79.4122Z" fill="#1F1D59"/>
<path d="M12.5535 18.6725C13.561 18.6725 14.4867 18.6725 15.5214 18.6725C15.5214 19.2458 15.5214 19.7644 15.5214 20.2831C15.5486 21.0475 15.9571 21.5389 16.7195 21.6481C17.5091 21.7573 18.217 21.5935 18.4893 20.7472C18.7344 19.9828 18.3532 19.4642 17.6724 19.1366C16.8011 18.6998 15.9298 18.263 15.0585 17.8262C13.452 17.0073 12.5535 15.7242 12.5263 13.9225C12.499 12.0935 13.4248 10.8377 15.0041 9.96416C15.2491 9.82766 15.4942 9.44548 15.5214 9.14519C15.6031 8.29893 15.5486 7.45266 15.5486 6.5791C16.5833 6.5791 17.5091 6.5791 18.571 6.5791C18.571 7.39807 18.5982 8.18973 18.571 9.0087C18.5438 9.55468 18.7071 9.82766 19.2245 10.1007C20.8037 10.8923 21.5661 12.23 21.6206 14.059C20.6131 14.059 19.6601 14.059 18.6527 14.059C18.5165 13.1581 18.0536 12.5576 16.9917 12.6121C16.311 12.6394 15.8209 12.9397 15.6303 13.5676C15.4397 14.2774 15.7665 14.7961 16.3927 15.1236C17.1823 15.5331 17.972 15.9426 18.7616 16.2975C20.477 17.0892 21.5661 18.3722 21.5933 20.3104C21.6206 22.194 20.6948 23.5317 19.0066 24.378C18.7888 24.4872 18.6254 24.842 18.5982 25.0877C18.5438 25.934 18.571 26.7803 18.571 27.7084C17.5635 27.7084 16.6105 27.7084 15.5486 27.7084C15.5486 26.8622 15.5759 26.0159 15.5214 25.1696C15.5214 24.8966 15.3853 24.4872 15.1947 24.4053C12.7441 23.2041 12.2812 21.1567 12.5535 18.6725Z" fill="#1F1D59"/>
</g>
<defs>
<clipPath id="clip0_970_27764">
<rect width="95" height="95" fill="white"/>
</clipPath>
</defs>
</svg>
