<svg width="106" height="106" viewBox="0 0 106 106" fill="none" xmlns="http://www.w3.org/2000/svg">
<circle cx="53" cy="53" r="53" fill="#1BCCAA"/>
<path d="M40.6896 70.655V72.2412H61.3103V70.655H40.6896ZM40.6896 70.655V72.2412H61.3103V70.655H40.6896ZM41.4827 53.2069V65.8965H44.6551V53.2069H41.4827ZM49.4137 51.6207V65.8965H52.5861V51.6207H49.4137ZM57.3448 56.3793V65.8965H60.5172V56.3793H57.3448ZM40.6896 70.655V72.2412H61.3103V70.655H40.6896ZM57.3448 56.3793V65.8965H60.5172V56.3793H57.3448ZM49.4137 51.6207V65.8965H52.5861V51.6207H49.4137ZM41.4827 53.2069V65.8965H44.6551V53.2069H41.4827ZM40.6896 70.655V72.2412H61.3103V70.655H40.6896ZM41.4827 53.2069V65.8965H44.6551V53.2069H41.4827ZM49.4137 51.6207V65.8965H52.5861V51.6207H49.4137ZM57.3448 56.3793V65.8965H60.5172V56.3793H57.3448ZM40.6896 70.655V72.2412H61.3103V70.655H40.6896ZM57.3448 56.3793V65.8965H60.5172V56.3793H57.3448ZM49.4137 51.6207V65.8965H52.5861V51.6207H49.4137ZM41.4827 53.2069V65.8965H44.6551V53.2069H41.4827ZM40.6896 70.655V72.2412H61.3103V70.655H40.6896ZM41.4827 53.2069V65.8965H44.6551V53.2069H41.4827ZM49.4137 51.6207V65.8965H52.5861V51.6207H49.4137ZM57.3448 56.3793V65.8965H60.5172V56.3793H57.3448ZM40.6896 70.655V72.2412H61.3103V70.655H40.6896ZM57.3448 56.3793V65.8965H60.5172V56.3793H57.3448ZM49.4137 51.6207V65.8965H52.5861V51.6207H49.4137ZM41.4827 53.2069V65.8965H44.6551V53.2069H41.4827ZM40.6896 70.655V72.2412H61.3103V70.655H40.6896ZM41.4827 53.2069V65.8965H44.6551V53.2069H41.4827ZM49.4137 51.6207V65.8965H52.5861V51.6207H49.4137ZM57.3448 56.3793V65.8965H60.5172V56.3793H57.3448ZM40.6896 70.655V72.2412H61.3103V70.655H40.6896ZM57.3448 56.3793V65.8965H60.5172V56.3793H57.3448ZM49.4137 51.6207V65.8965H52.5861V51.6207H49.4137ZM41.4827 53.2069V65.8965H44.6551V53.2069H41.4827ZM40.6896 70.655V72.2412H61.3103V70.655H40.6896ZM41.4827 53.2069V65.8965H44.6551V53.2069H41.4827ZM49.4137 51.6207V65.8965H52.5861V51.6207H49.4137ZM57.3448 56.3793V65.8965H60.5172V56.3793H57.3448ZM40.6896 70.655V72.2412H61.3103V70.655H40.6896ZM57.3448 56.3793V65.8965H60.5172V56.3793H57.3448ZM49.4137 51.6207V65.8965H52.5861V51.6207H49.4137ZM41.4827 53.2069V65.8965H44.6551V53.2069H41.4827ZM40.6896 70.655V72.2412H61.3103V70.655H40.6896ZM41.4827 53.2069V65.8965H44.6551V53.2069H41.4827ZM49.4137 51.6207V65.8965H52.5861V51.6207H49.4137ZM57.3448 56.3793V65.8965H60.5172V56.3793H57.3448ZM40.6896 70.655V72.2412H61.3103V70.655H40.6896ZM57.3448 56.3793V65.8965H60.5172V56.3793H57.3448ZM49.4137 51.6207V65.8965H52.5861V51.6207H49.4137ZM41.4827 53.2069V65.8965H44.6551V53.2069H41.4827ZM40.6896 70.655V72.2412H61.3103V70.655H40.6896ZM41.4827 53.2069V65.8965H44.6551V53.2069H41.4827ZM49.4137 51.6207V65.8965H52.5861V51.6207H49.4137ZM57.3448 56.3793V65.8965H60.5172V56.3793H57.3448ZM40.6896 70.655V72.2412H61.3103V70.655H40.6896ZM57.3448 56.3793V65.8965H60.5172V56.3793H57.3448ZM49.4137 51.6207V65.8965H52.5861V51.6207H49.4137ZM41.4827 53.2069V65.8965H44.6551V53.2069H41.4827ZM40.6896 70.655V72.2412H61.3103V70.655H40.6896ZM41.4827 53.2069V65.8965H44.6551V53.2069H41.4827ZM49.4137 51.6207V65.8965H52.5861V51.6207H49.4137ZM57.3448 56.3793V65.8965H60.5172V56.3793H57.3448ZM40.6896 70.655V72.2412H61.3103V70.655H40.6896ZM57.3448 56.3793V65.8965H60.5172V56.3793H57.3448ZM49.4137 51.6207V65.8965H52.5861V51.6207H49.4137ZM41.4827 53.2069V65.8965H44.6551V53.2069H41.4827ZM40.6896 70.655V72.2412H61.3103V70.655H40.6896ZM41.4827 53.2069V65.8965H44.6551V53.2069H41.4827ZM49.4137 51.6207V65.8965H52.5861V51.6207H49.4137ZM57.3448 56.3793V65.8965H60.5172V56.3793H57.3448ZM40.6896 70.655V72.2412H61.3103V70.655H40.6896ZM57.3448 56.3793V65.8965H60.5172V56.3793H57.3448ZM49.4137 51.6207V65.8965H52.5861V51.6207H49.4137ZM41.4827 53.2069V65.8965H44.6551V53.2069H41.4827ZM40.6896 70.655V72.2412H61.3103V70.655H40.6896ZM41.4827 53.2069V65.8965H44.6551V53.2069H41.4827ZM49.4137 51.6207V65.8965H52.5861V51.6207H49.4137ZM57.3448 56.3793V65.8965H60.5172V56.3793H57.3448ZM40.6896 70.655V72.2412H61.3103V70.655H40.6896ZM57.3448 56.3793V65.8965H60.5172V56.3793H57.3448ZM49.4137 51.6207V65.8965H52.5861V51.6207H49.4137ZM41.4827 53.2069V65.8965H44.6551V53.2069H41.4827ZM40.6896 70.655V72.2412H61.3103V70.655H40.6896ZM41.4827 53.2069V65.8965H44.6551V53.2069H41.4827ZM49.4137 51.6207V65.8965H52.5861V51.6207H49.4137ZM57.3448 56.3793V65.8965H60.5172V56.3793H57.3448ZM40.6896 70.655V72.2412H61.3103V70.655H40.6896ZM57.3448 56.3793V65.8965H60.5172V56.3793H57.3448ZM49.4137 51.6207V65.8965H52.5861V51.6207H49.4137ZM41.4827 53.2069V65.8965H44.6551V53.2069H41.4827ZM40.6896 70.655V72.2412H61.3103V70.655H40.6896ZM41.4827 53.2069V65.8965H44.6551V53.2069H41.4827ZM49.4137 51.6207V65.8965H52.5861V51.6207H49.4137ZM57.3448 56.3793V65.8965H60.5172V56.3793H57.3448ZM40.6896 70.655V72.2412H61.3103V70.655H40.6896ZM57.3448 56.3793V65.8965H60.5172V56.3793H57.3448ZM49.4137 51.6207V65.8965H52.5861V51.6207H49.4137ZM41.4827 53.2069V65.8965H44.6551V53.2069H41.4827ZM40.6896 70.655V72.2412H61.3103V70.655H40.6896ZM41.4827 53.2069V65.8965H44.6551V53.2069H41.4827ZM49.4137 51.6207V65.8965H52.5861V51.6207H49.4137ZM57.3448 56.3793V65.8965H60.5172V56.3793H57.3448ZM40.6896 70.655V72.2412H61.3103V70.655H40.6896ZM57.3448 56.3793V65.8965H60.5172V56.3793H57.3448ZM49.4137 65.8965H52.5861V51.6207H49.4137V65.8965ZM41.4827 65.8965H44.6551V53.2069H41.4827V65.8965ZM40.6896 70.655V72.2412H61.3103V70.655H40.6896ZM73.2068 37.5036H68.718C68.2896 37.5036 67.9249 37.8527 67.9249 38.2967C67.9249 38.7407 68.2896 39.0898 68.718 39.0898H69.0512L66.0693 42.0716L66.069 31.7931C66.069 31.3491 65.7199 31 65.2759 31H36.7241C36.2801 31 35.931 31.3491 35.931 31.7931V49.844L28.2379 57.537C27.9207 57.8543 27.9207 58.3461 28.2379 58.6633L30.4746 60.8999C30.6173 61.0586 30.8237 61.1379 31.0297 61.1379C31.2517 61.1379 31.4422 61.0586 31.6009 60.8999L35.931 56.5698V75.4138H35.1379C34.6939 75.4138 34.3448 75.7629 34.3448 76.2069C34.3448 76.6509 34.6939 77 35.1379 77H66.8621C67.3061 77 67.6552 76.6509 67.6552 76.2069C67.6552 75.7629 67.3061 75.4138 66.8621 75.4138H66.069V48.7975L72.4138 42.4527V42.7859C72.4138 43.2298 72.7629 43.579 73.2069 43.579C73.6509 43.579 74 43.2298 74 42.7859V38.2971C74 37.8531 73.6509 37.504 73.2069 37.504L73.2068 37.5036ZM54.8866 32.5864C54.728 33.3476 54.3633 34.0459 53.8082 34.601C52.3332 36.076 49.6681 36.076 48.1931 34.601C47.6379 34.0459 47.2732 33.348 47.1146 32.5864H54.887H54.8866ZM62.8969 73.0343C62.8969 73.4783 62.5478 73.8274 62.1038 73.8274H39.8969C39.4529 73.8274 39.1038 73.4783 39.1038 73.0343V69.8619C39.1038 69.418 39.4529 69.0688 39.8969 69.0688H62.1038C62.5478 69.0688 62.8969 69.418 62.8969 69.8619V73.0343ZM62.1038 67.4827H39.8969C39.4529 67.4827 39.1038 67.1335 39.1038 66.6896C39.1038 66.2456 39.4529 65.8965 39.8969 65.8965V52.4138C39.8969 51.9698 40.246 51.6207 40.69 51.6207H45.4487C45.8927 51.6207 46.2418 51.9698 46.2418 52.4138V65.8965H47.828V50.8276C47.828 50.3836 48.1771 50.0345 48.6211 50.0345H53.3797C53.8237 50.0345 54.1728 50.3836 54.1728 50.8276V65.8965H55.759V55.5862C55.759 55.1422 56.1081 54.7931 56.5521 54.7931H61.3107C61.7547 54.7931 62.1038 55.1422 62.1038 55.5862V65.8965C62.5478 65.8965 62.8969 66.2456 62.8969 66.6896C62.8969 67.1335 62.5478 67.4827 62.1038 67.4827ZM72.4142 40.2164L62.0567 50.5738L57.0127 45.514C56.6955 45.2126 56.2037 45.2126 55.8864 45.514L54.1735 47.2428L49.161 42.2303C48.8438 41.9131 48.352 41.9131 48.0347 42.2303L31.0306 59.2189L29.9202 58.0927L48.5894 39.4236L53.6179 44.4361C53.9192 44.7374 54.4269 44.7374 54.7282 44.4361L56.4097 42.7546L61.4696 47.7985C61.7709 48.1158 62.2787 48.1158 62.58 47.7985L71.2882 39.0904H72.4145L72.4142 40.2164ZM40.69 72.2412H61.3107V70.655H40.69V72.2412ZM57.3452 65.8965H60.5176V56.3793H57.3452V65.8965ZM49.4142 65.8965H52.5866V51.6207H49.4142V65.8965ZM41.4831 65.8965H44.6556V53.2069H41.4831V65.8965ZM40.69 70.655V72.2412H61.3107V70.655H40.69ZM41.4831 53.2069V65.8965H44.6556V53.2069H41.4831ZM49.4142 51.6207V65.8965H52.5866V51.6207H49.4142ZM57.3452 56.3793V65.8965H60.5176V56.3793H57.3452ZM40.69 70.655V72.2412H61.3107V70.655H40.69ZM57.3452 56.3793V65.8965H60.5176V56.3793H57.3452ZM49.4142 51.6207V65.8965H52.5866V51.6207H49.4142ZM41.4831 53.2069V65.8965H44.6556V53.2069H41.4831ZM40.69 70.655V72.2412H61.3107V70.655H40.69ZM41.4831 53.2069V65.8965H44.6556V53.2069H41.4831ZM49.4142 51.6207V65.8965H52.5866V51.6207H49.4142ZM57.3452 56.3793V65.8965H60.5176V56.3793H57.3452ZM40.69 70.655V72.2412H61.3107V70.655H40.69ZM57.3452 56.3793V65.8965H60.5176V56.3793H57.3452ZM49.4142 51.6207V65.8965H52.5866V51.6207H49.4142ZM41.4831 53.2069V65.8965H44.6556V53.2069H41.4831ZM40.69 70.655V72.2412H61.3107V70.655H40.69ZM41.4831 53.2069V65.8965H44.6556V53.2069H41.4831ZM49.4142 51.6207V65.8965H52.5866V51.6207H49.4142ZM57.3452 56.3793V65.8965H60.5176V56.3793H57.3452ZM40.69 70.655V72.2412H61.3107V70.655H40.69ZM57.3452 56.3793V65.8965H60.5176V56.3793H57.3452ZM49.4142 51.6207V65.8965H52.5866V51.6207H49.4142ZM41.4831 53.2069V65.8965H44.6556V53.2069H41.4831ZM40.69 70.655V72.2412H61.3107V70.655H40.69ZM41.4831 53.2069V65.8965H44.6556V53.2069H41.4831ZM49.4142 51.6207V65.8965H52.5866V51.6207H49.4142ZM57.3452 56.3793V65.8965H60.5176V56.3793H57.3452ZM40.69 70.655V72.2412H61.3107V70.655H40.69ZM57.3452 56.3793V65.8965H60.5176V56.3793H57.3452ZM49.4142 51.6207V65.8965H52.5866V51.6207H49.4142ZM41.4831 53.2069V65.8965H44.6556V53.2069H41.4831ZM40.69 70.655V72.2412H61.3107V70.655H40.69ZM41.4831 53.2069V65.8965H44.6556V53.2069H41.4831ZM49.4142 51.6207V65.8965H52.5866V51.6207H49.4142ZM57.3452 56.3793V65.8965H60.5176V56.3793H57.3452ZM40.69 70.655V72.2412H61.3107V70.655H40.69ZM57.3452 56.3793V65.8965H60.5176V56.3793H57.3452ZM49.4142 51.6207V65.8965H52.5866V51.6207H49.4142ZM41.4831 53.2069V65.8965H44.6556V53.2069H41.4831ZM40.69 70.655V72.2412H61.3107V70.655H40.69ZM41.4831 53.2069V65.8965H44.6556V53.2069H41.4831ZM49.4142 51.6207V65.8965H52.5866V51.6207H49.4142ZM57.3452 56.3793V65.8965H60.5176V56.3793H57.3452ZM40.69 70.655V72.2412H61.3107V70.655H40.69ZM57.3452 56.3793V65.8965H60.5176V56.3793H57.3452ZM49.4142 51.6207V65.8965H52.5866V51.6207H49.4142ZM41.4831 53.2069V65.8965H44.6556V53.2069H41.4831ZM40.69 70.655V72.2412H61.3107V70.655H40.69ZM41.4831 53.2069V65.8965H44.6556V53.2069H41.4831ZM49.4142 51.6207V65.8965H52.5866V51.6207H49.4142ZM57.3452 56.3793V65.8965H60.5176V56.3793H57.3452ZM40.69 70.655V72.2412H61.3107V70.655H40.69ZM57.3452 56.3793V65.8965H60.5176V56.3793H57.3452ZM49.4142 51.6207V65.8965H52.5866V51.6207H49.4142ZM41.4831 53.2069V65.8965H44.6556V53.2069H41.4831ZM40.69 70.655V72.2412H61.3107V70.655H40.69ZM41.4831 53.2069V65.8965H44.6556V53.2069H41.4831ZM49.4142 51.6207V65.8965H52.5866V51.6207H49.4142ZM57.3452 56.3793V65.8965H60.5176V56.3793H57.3452ZM40.69 70.655V72.2412H61.3107V70.655H40.69ZM57.3452 56.3793V65.8965H60.5176V56.3793H57.3452ZM49.4142 51.6207V65.8965H52.5866V51.6207H49.4142ZM41.4831 53.2069V65.8965H44.6556V53.2069H41.4831ZM40.69 70.655V72.2412H61.3107V70.655H40.69ZM41.4831 53.2069V65.8965H44.6556V53.2069H41.4831ZM49.4142 51.6207V65.8965H52.5866V51.6207H49.4142ZM57.3452 56.3793V65.8965H60.5176V56.3793H57.3452ZM40.69 70.655V72.2412H61.3107V70.655H40.69ZM57.3452 56.3793V65.8965H60.5176V56.3793H57.3452ZM49.4142 51.6207V65.8965H52.5866V51.6207H49.4142ZM41.4831 53.2069V65.8965H44.6556V53.2069H41.4831ZM40.69 70.655V72.2412H61.3107V70.655H40.69ZM41.4831 53.2069V65.8965H44.6556V53.2069H41.4831ZM49.4142 51.6207V65.8965H52.5866V51.6207H49.4142ZM57.3452 56.3793V65.8965H60.5176V56.3793H57.3452ZM40.69 70.655V72.2412H61.3107V70.655H40.69ZM57.3452 56.3793V65.8965H60.5176V56.3793H57.3452ZM49.4142 51.6207V65.8965H52.5866V51.6207H49.4142ZM41.4831 53.2069V65.8965H44.6556V53.2069H41.4831ZM40.69 70.655V72.2412H61.3107V70.655H40.69ZM41.4831 53.2069V65.8965H44.6556V53.2069H41.4831ZM49.4142 51.6207V65.8965H52.5866V51.6207H49.4142ZM57.3452 56.3793V65.8965H60.5176V56.3793H57.3452ZM40.69 70.655V72.2412H61.3107V70.655H40.69ZM57.3452 56.3793V65.8965H60.5176V56.3793H57.3452ZM49.4142 51.6207V65.8965H52.5866V51.6207H49.4142ZM41.4831 53.2069V65.8965H44.6556V53.2069H41.4831ZM40.69 70.655V72.2412H61.3107V70.655H40.69ZM41.4831 53.2069V65.8965H44.6556V53.2069H41.4831ZM49.4142 51.6207V65.8965H52.5866V51.6207H49.4142ZM57.3452 56.3793V65.8965H60.5176V56.3793H57.3452ZM40.69 70.655V72.2412H61.3107V70.655H40.69ZM57.3452 56.3793V65.8965H60.5176V56.3793H57.3452ZM49.4142 51.6207V65.8965H52.5866V51.6207H49.4142ZM41.4831 53.2069V65.8965H44.6556V53.2069H41.4831ZM40.69 70.655V72.2412H61.3107V70.655H40.69ZM41.4831 53.2069V65.8965H44.6556V53.2069H41.4831ZM49.4142 51.6207V65.8965H52.5866V51.6207H49.4142ZM57.3452 56.3793V65.8965H60.5176V56.3793H57.3452ZM40.69 70.655V72.2412H61.3107V70.655H40.69ZM57.3452 56.3793V65.8965H60.5176V56.3793H57.3452ZM49.4142 51.6207V65.8965H52.5866V51.6207H49.4142ZM41.4831 53.2069V65.8965H44.6556V53.2069H41.4831Z" fill="white"/>
</svg>
