<svg width="62" height="62" viewBox="0 0 62 62" fill="none" xmlns="http://www.w3.org/2000/svg">
<circle cx="31" cy="31" r="31" fill="#0E5295"/>
<path d="M33.6641 40.3333C38.6921 40.3333 41.2067 40.3333 42.7681 38.7707C44.3307 37.2093 44.3307 34.6947 44.3307 29.6667C44.3307 24.6387 44.3307 22.124 42.7681 20.5627C41.2067 19 38.6921 19 33.6641 19H28.3307C23.3027 19 20.7881 19 19.2267 20.5627C17.6641 22.124 17.6641 24.6387 17.6641 29.6667C17.6641 34.6947 17.6641 37.2093 19.2267 38.7707C20.0974 39.6427 21.2641 40.028 22.9974 40.1973" stroke="white" stroke-width="2" stroke-linecap="round" stroke-linejoin="round"/>
<path d="M27 29.6667L30 32.3333L35 27" stroke="white" stroke-width="2" stroke-linecap="round" stroke-linejoin="round"/>
<path d="M33.6631 40.3335C32.0151 40.3335 30.1991 41.0002 28.5417 41.8602C25.8777 43.2428 24.5457 43.9348 23.8897 43.4935C23.2337 43.0535 23.3577 41.6868 23.6071 38.9548L23.6631 38.3335" stroke="white" stroke-width="2" stroke-linecap="round"/>
</svg>
